{
.appVersion = "848";
classes = (
{
automatic = 1;
code = "A Aacute Acircumflex Adieresis Agrave Aring Atilde AE B C Ccedilla D Eth E Eacute Ecircumflex Edieresis Egrave F G H I Iacute Icircumflex Idieresis Igrave J K L Lslash M N Ntilde O Oacute Ocircumflex Odieresis Ograve Oslash Otilde OE P Thorn Q R S Scaron T U Uacute Ucircumflex Udieresis Ugrave V W X Y Yacute Ydieresis Z Zcaron Delta Omega";
name = Uppercase;
}
);
copyright = "Copyright (c) 2011-2016 by Omnibus-Type (www.omnibus-type.com omnibus.type@gmail.com)";
customParameters = (
{
name = openTypeNameLicenseURL;
value = "http://scripts.sil.org/OFL";
},
{
name = openTypeNameDescription;
value = "Chivo (Goat) is a new Omnibus-Type grotesque. The strength of Chivo Black Italic make it ideal for highlights and headlines. Chivo Black Italic elegance makes it ideal for combining the strength of Chivo family and to use in texts for continuous reading. Its design detail becomes an indispensable ally for any designer.";
},
{
name = trademark;
value = "Chivo is a trademark of Omnibus-Type.";
},
{
name = openTypeNameLicense;
value = "This Font Software is licensed under the SIL Open Font License, Version 1.1. This license is available with a FAQ at: http://scripts.sil.org/OFL";
},
{
name = openTypeOS2VendorID;
value = OMNI;
},
{
name = fsType;
value = (
);
},
{
name = "Family Alignment Zones";
value = (
"{686, 12}",
"{511, 12}",
"{0, -12}"
);
},
{
name = glyphOrder;
value = (
".notdef",
space,
exclam,
quotedbl,
numbersign,
dollar,
percent,
ampersand,
quotesingle,
parenleft,
parenright,
asterisk,
plus,
comma,
hyphen,
period,
slash,
zero,
one,
two,
three,
four,
five,
six,
seven,
eight,
nine,
colon,
semicolon,
less,
equal,
greater,
question,
at,
A,
B,
C,
D,
E,
F,
G,
H,
I,
J,
K,
L,
M,
N,
O,
P,
Q,
R,
S,
T,
U,
V,
W,
X,
Y,
Z,
bracketleft,
backslash,
bracketright,
asciicircum,
underscore,
grave,
a,
b,
c,
d,
e,
f,
g,
h,
i,
j,
k,
l,
m,
n,
o,
p,
q,
r,
s,
t,
u,
v,
w,
x,
y,
z,
braceleft,
bar,
braceright,
asciitilde,
nbspace,

glyphs = (
{
glyphname = .notdef;
lastChange = "2014-09-05 18:35:58 +0000";
layers = (
{
background = {
paths = (
{
closed = 1;
nodes = (
"0 0 LINE",
"500 0 LINE",
"500 700 LINE",
"0 700 LINE"
);
},
{
closed = 1;
nodes = (
"250 395 LINE",
"80 650 LINE",
"420 650 LINE"
);
},
{
closed = 1;
nodes = (
"280 350 LINE",
"450 605 LINE",
"450 95 LINE"
);
},
{
closed = 1;
nodes = (
"80 50 LINE",
"250 305 LINE",
"420 50 LINE"
);
},
{
closed = 1;
nodes = (
"50 605 LINE",
"220 350 LINE",
"50 95 LINE"
);
}
);
};
layerId = "D9505699-D8FA-43B1-90A1-014B81D3291F";
paths = (
{
closed = 1;
nodes = (
"0 0 LINE",
"500 0 LINE",
"500 700 LINE",
"0 700 LINE"
);
},
{
closed = 1;
nodes = (
"250 395 LINE",
"80 650 LINE",
"420 650 LINE"
);
},
{
closed = 1;
nodes = (
"280 350 LINE",
"450 605 LINE",
"450 95 LINE"
);
},
{
closed = 1;
nodes = (
"80 50 LINE",
"250 305 LINE",
"420 50 LINE"
);
},
{
closed = 1;
nodes = (
"50 605 LINE",
"220 350 LINE",
"50 95 LINE"
);
}
);
width = 500;
}
);
},
{
glyphname = exclam;
lastChange = "2014-09-05 18:35:58 +0000";
layers = (
{
background = {
paths = (
{
closed = 1;
nodes = (
"72 0 LINE",
"218 0 LINE",
"218 147 LINE",
"72 147 LINE"
);
},
{
closed = 1;
nodes = (
"95 202 LINE",
"192 202 LINE",
"233 686 LINE",
"56 686 LINE"
);
}
);
};
layerId = "D9505699-D8FA-43B1-90A1-014B81D3291F";
paths = (
{
closed = 1;
nodes = (
"72 0 LINE",
"218 0 LINE",
"218 147 LINE",
"72 147 LINE"
);
},
{
closed = 1;
nodes = (
"95 202 LINE",
"192 202 LINE",
"233 686 LINE",
"56 686 LINE"
);
}
);
width = 290;
}
);
unicode = 0021;
},
{
glyphname = quotedbl;
lastChange = "2014-09-05 18:35:58 +0000";
layers = (
{
background = {
paths = (
{
closed = 1;
nodes = (
"166 401 LINE",
"178 447 OFFCURVE",
"189 492 OFFCURVE",
"200 539 CURVE",
"200 686 LINE",
"82 686 LINE",
"82 539 LINE",
"94 492 OFFCURVE",
"104 447 OFFCURVE",
"116 401 CURVE"
);
},
{
closed = 1;
nodes = (
"344 401 LINE",
"355 447 OFFCURVE",
"367 492 OFFCURVE",
"379 539 CURVE",
"379 686 LINE",
"260 686 LINE",
"260 539 LINE",
"272 492 OFFCURVE",
"283 447 OFFCURVE",
"294 401 CURVE"
);
}
);
};
layerId = "D9505699-D8FA-43B1-90A1-014B81D3291F";
paths = (
{
closed = 1;
nodes = (
"166 401 LINE",
"178 447 OFFCURVE",
"189 492 OFFCURVE",
"200 539 CURVE",
"200 686 LINE",
"82 686 LINE",
"82 539 LINE",
"94 492 OFFCURVE",
"104 447 OFFCURVE",
"116 401 CURVE"
);
},
{
closed = 1;
nodes = (
"344 401 LINE",
"355 447 OFFCURVE",
"367 492 OFFCURVE",
"379 539 CURVE",
"379 686 LINE",
"260 686 LINE",
"260 539 LINE",
"272 492 OFFCURVE",
"283 447 OFFCURVE",
"294 401 CURVE"
);
}
);
width = 461;
}
);
unicode = 0022;
},
{
glyphname = numbersign;
lastChange = "2014-09-05 18:35:58 +0000";
layers = (
{
background = {
paths = (
{
closed = 1;
nodes = (
"45 402 LINE",
"159 402 LINE",
"128 264 LINE",
"3 264 LINE",
"3 172 LINE",
"107 172 LINE",
"69 0 LINE",
"166 0 LINE",
"203 172 LINE",
"334 172 LINE",
"322 115 OFFCURVE",
"309 57 OFFCURVE",
"296 0 CURVE",
"392 0 LINE",
"405 57 OFFCURVE",
"418 115 OFFCURVE",
"430 172 CURVE",
"562 172 LINE",
"562 264 LINE",
"452 264 LINE",
"482 402 LINE",
"598 402 LINE",
"598 494 LINE",
"500 494 LINE",
"516 561 OFFCURVE",
"531 628 OFFCURVE",
"546 696 CURVE",
"450 696 LINE",
"435 628 OFFCURVE",
"420 561 OFFCURVE",
"405 494 CURVE",
"275 494 LINE",
"290 561 OFFCURVE",
"305 628 OFFCURVE",
"320 696 CURVE",
"223 696 LINE",
"208 628 OFFCURVE",
"193 561 OFFCURVE",
"178 494 CURVE",
"45 494 LINE"
);
},
{
closed = 1;
nodes = (
"254 401 LINE",
"386 401 LINE",
"355 263 LINE",
"224 263 LINE"
);
}
);
};
layerId = "D9505699-D8FA-43B1-90A1-014B81D3291F";
paths = (
{
closed = 1;
nodes = (
"45 402 LINE",
"159 402 LINE",
"128 264 LINE",
"3 264 LINE",
"3 172 LINE",
"107 172 LINE",
"69 0 LINE",
"166 0 LINE",
"203 172 LINE",
"334 172 LINE",
"322 115 OFFCURVE",
"309 57 OFFCURVE",
"296 0 CURVE",
"392 0 LINE",
"405 57 OFFCURVE",
"418 115 OFFCURVE",
"430 172 CURVE",
"562 172 LINE",
"562 264 LINE",
"452 264 LINE",
"482 402 LINE",
"598 402 LINE",
"598 494 LINE",
"500 494 LINE",
"516 561 OFFCURVE",
"531 628 OFFCURVE",
"546 696 CURVE",
"450 696 LINE",
"435 628 OFFCURVE",
"420 561 OFFCURVE",
"405 494 CURVE",
"275 494 LINE",
"290 561 OFFCURVE",
"305 628 OFFCURVE",
"320 696 CURVE",
"223 696 LINE",
"208 628 OFFCURVE",
"193 561 OFFCURVE",
"178 494 CURVE",
"45 494 LINE"
);
},
{
closed = 1;
nodes = (
"254 401 LINE",
"386 401 LINE",
"355 263 LINE",
"224 263 LINE"
);
}
);
width = 600;
}
);
unicode = 0023;
},
{
glyphname = dollar;
lastChange = "2014-09-05 18:35:58 +0000";
layers = (
{
background = {
paths = (
{
closed = 1;
nodes = (
"533 476 LINE",
"533 487 LINE SMOOTH",
"533 607 OFFCURVE",
"441 664 OFFCURVE",
"324 672 CURVE",
"328 701 OFFCURVE",
"332 729 OFFCURVE",
"337 758 CURVE",
"236 758 LINE",
"241 729 OFFCURVE",
"245 700 OFFCURVE",
"249 671 CURVE",
"136 658 OFFCURVE",
"50 597 OFFCURVE",
"50 485 CURVE SMOOTH",
"50 242 OFFCURVE",
"402 328 OFFCURVE",
"402 205 CURVE SMOOTH",
"402 170 OFFCURVE",
"375 137 OFFCURVE",
"283 137 CURVE SMOOTH",
"209 137 OFFCURVE",
"170 169 OFFCURVE",
"170 221 CURVE SMOOTH",
"170 226 OFFCURVE",
"171 234 OFFCURVE",
"171 236 CURVE",
"36 236 LINE SMOOTH",
"36 236 OFFCURVE",
"35 223 OFFCURVE",
"35 216 CURVE SMOOTH",
"35 89 OFFCURVE",
"131 31 OFFCURVE",
"249 21 CURVE",
"236 -66 LINE",
"337 -66 LINE",
"332 -37 OFFCURVE",
"328 -8 OFFCURVE",
"324 20 CURVE",
"455 28 OFFCURVE",
"547 89 OFFCURVE",
"547 228 CURVE SMOOTH",
"547 460 OFFCURVE",
"193 380 OFFCURVE",
"193 500 CURVE SMOOTH",
"193 534 OFFCURVE",
"232 560 OFFCURVE",
"298 560 CURVE SMOOTH",
"361 560 OFFCURVE",
"399 529 OFFCURVE",
"399 485 CURVE SMOOTH",
"399 476 LINE"
);
}
);
};
layerId = "D9505699-D8FA-43B1-90A1-014B81D3291F";
paths = (
{
closed = 1;
nodes = (
"533 476 LINE",
"533 487 LINE SMOOTH",
"533 607 OFFCURVE",
"441 664 OFFCURVE",
"324 672 CURVE",
"328 701 OFFCURVE",
"332 729 OFFCURVE",
"337 758 CURVE",
"236 758 LINE",
"241 729 OFFCURVE",
"245 700 OFFCURVE",
"249 671 CURVE",
"136 658 OFFCURVE",
"50 597 OFFCURVE",
"50 485 CURVE SMOOTH",
"50 242 OFFCURVE",
"402 328 OFFCURVE",
"402 205 CURVE SMOOTH",
"402 170 OFFCURVE",
"375 137 OFFCURVE",
"283 137 CURVE SMOOTH",
"209 137 OFFCURVE",
"170 169 OFFCURVE",
"170 221 CURVE SMOOTH",
"170 226 OFFCURVE",
"171 234 OFFCURVE",
"171 236 CURVE",
"36 236 LINE SMOOTH",
"36 236 OFFCURVE",
"35 223 OFFCURVE",
"35 216 CURVE SMOOTH",
"35 89 OFFCURVE",
"131 31 OFFCURVE",
"249 21 CURVE",
"236 -66 LINE",
"337 -66 LINE",
"332 -37 OFFCURVE",
"328 -8 OFFCURVE",
"324 20 CURVE",
"455 28 OFFCURVE",
"547 89 OFFCURVE",
"547 228 CURVE SMOOTH",
"547 460 OFFCURVE",
"193 380 OFFCURVE",
"193 500 CURVE SMOOTH",
"193 534 OFFCURVE",
"232 560 OFFCURVE",
"298 560 CURVE SMOOTH",
"361 560 OFFCURVE",
"399 529 OFFCURVE",
"399 485 CURVE SMOOTH",
"399 476 LINE"
);
}
);
width = 586;
}
);
unicode = 0024;
},
{
glyphname = percent;
lastChange = "2014-09-05 18:35:58 +0000";
layers = (
{
background = {
paths = (
{
closed = 1;
nodes = (
"693 226 LINE SMOOTH",
"693 293 OFFCURVE",
"641 348 OFFCURVE",
"571 348 CURVE SMOOTH",
"556 348 LINE SMOOTH",
"486 348 OFFCURVE",
"434 293 OFFCURVE",
"434 226 CURVE SMOOTH",
"434 121 LINE SMOOTH",
"434 54 OFFCURVE",
"486 -1 OFFCURVE",
"556 -1 CURVE SMOOTH",
"571 -1 LINE SMOOTH",
"641 -1 OFFCURVE",
"693 54 OFFCURVE",
"693 121 CURVE SMOOTH"
);
},
{
closed = 1;
nodes = (
"618 686 LINE",
"538 686 LINE",
"119 0 LINE",
"202 0 LINE"
);
},
{
closed = 1;
nodes = (
"303 563 LINE SMOOTH",
"303 630 OFFCURVE",
"251 685 OFFCURVE",
"181 685 CURVE SMOOTH",
"166 685 LINE SMOOTH",
"96 685 OFFCURVE",
"44 630 OFFCURVE",
"44 563 CURVE SMOOTH",
"44 458 LINE SMOOTH",
"44 391 OFFCURVE",
"96 336 OFFCURVE",
"166 336 CURVE SMOOTH",
"181 336 LINE SMOOTH",
"251 336 OFFCURVE",
"303 391 OFFCURVE",
"303 458 CURVE SMOOTH"
);
},
{
closed = 1;
nodes = (
"612 111 LINE SMOOTH",
"612 84 OFFCURVE",
"593 62 OFFCURVE",
"564 62 CURVE SMOOTH",
"535 62 OFFCURVE",
"515 84 OFFCURVE",
"515 111 CURVE SMOOTH",
"515 235 LINE SMOOTH",
"515 263 OFFCURVE",
"535 285 OFFCURVE",
"564 285 CURVE SMOOTH",
"593 285 OFFCURVE",
"612 263 OFFCURVE",
"612 235 CURVE SMOOTH"
);
},
{
closed = 1;
nodes = (
"222 449 LINE SMOOTH",
"222 421 OFFCURVE",
"203 400 OFFCURVE",
"174 400 CURVE SMOOTH",
"145 400 OFFCURVE",
"125 421 OFFCURVE",
"125 449 CURVE SMOOTH",
"125 573 LINE SMOOTH",
"125 600 OFFCURVE",
"145 622 OFFCURVE",
"174 622 CURVE SMOOTH",
"203 622 OFFCURVE",
"222 600 OFFCURVE",
"222 573 CURVE SMOOTH"
);
}
);
};
layerId = "D9505699-D8FA-43B1-90A1-014B81D3291F";
paths = (
{
closed = 1;
nodes = (
"693 226 LINE SMOOTH",
"693 293 OFFCURVE",
"641 348 OFFCURVE",
"571 348 CURVE SMOOTH",
"556 348 LINE SMOOTH",
"486 348 OFFCURVE",
"434 293 OFFCURVE",
"434 226 CURVE SMOOTH",
"434 121 LINE SMOOTH",
"434 54 OFFCURVE",
"486 -1 OFFCURVE",
"556 -1 CURVE SMOOTH",
"571 -1 LINE SMOOTH",
"641 -1 OFFCURVE",
"693 54 OFFCURVE",
"693 121 CURVE SMOOTH"
);
},
{
closed = 1;
nodes = (
"618 686 LINE",
"538 686 LINE",
"119 0 LINE",
"202 0 LINE"
);
},
{
closed = 1;
nodes = (
"303 563 LINE SMOOTH",
"303 630 OFFCURVE",
"251 685 OFFCURVE",
"181 685 CURVE SMOOTH",
"166 685 LINE SMOOTH",
"96 685 OFFCURVE",
"44 630 OFFCURVE",
"44 563 CURVE SMOOTH",
"44 458 LINE SMOOTH",
"44 391 OFFCURVE",
"96 336 OFFCURVE",
"166 336 CURVE SMOOTH",
"181 336 LINE SMOOTH",
"251 336 OFFCURVE",
"303 391 OFFCURVE",
"303 458 CURVE SMOOTH"
);
},
{
closed = 1;
nodes = (
"612 111 LINE SMOOTH",
"612 84 OFFCURVE",
"593 62 OFFCURVE",
"564 62 CURVE SMOOTH",
"535 62 OFFCURVE",
"515 84 OFFCURVE",
"515 111 CURVE SMOOTH",
"515 235 LINE SMOOTH",
"515 263 OFFCURVE",
"535 285 OFFCURVE",
"564 285 CURVE SMOOTH",
"593 285 OFFCURVE",
"612 263 OFFCURVE",
"612 235 CURVE SMOOTH"
);
},
{
closed = 1;
nodes = (
"222 449 LINE SMOOTH",
"222 421 OFFCURVE",
"203 400 OFFCURVE",
"174 400 CURVE SMOOTH",
"145 400 OFFCURVE",
"125 421 OFFCURVE",
"125 449 CURVE SMOOTH",
"125 573 LINE SMOOTH",
"125 600 OFFCURVE",
"145 622 OFFCURVE",
"174 622 CURVE SMOOTH",
"203 622 OFFCURVE",
"222 600 OFFCURVE",
"222 573 CURVE SMOOTH"
);
}
);
width = 739;
}
);
unicode = 0025;
},
{
glyphname = ampersand;
lastChange = "2014-09-05 18:35:58 +0000";
layers = (
{
background = {
paths = (
{
closed = 1;
nodes = (
"347 691 LINE",
"329 694 OFFCURVE",
"310 696 OFFCURVE",
"291 696 CURVE SMOOTH",
"172 696 OFFCURVE",
"55 631 OFFCURVE",
"55 507 CURVE SMOOTH",
"55 433 OFFCURVE",
"98 381 OFFCURVE",
"163 357 CURVE",
"88 332 OFFCURVE",
"37 284 OFFCURVE",
"37 195 CURVE SMOOTH",
"37 51 OFFCURVE",
"159 0 OFFCURVE",
"294 0 CURVE SMOOTH",
"566 0 LINE",
"566 292 LINE",
"660 292 LINE",
"660 408 LINE",
"566 408 LINE",
"566 539 LINE",
"463 539 LINE",
"450 495 OFFCURVE",
"436 452 OFFCURVE",
"422 408 CURVE",
"300 408 LINE SMOOTH",
"234 408 OFFCURVE",
"201 460 OFFCURVE",
"201 493 CURVE SMOOTH",
"201 550 OFFCURVE",
"250 577 OFFCURVE",
"304 577 CURVE SMOOTH",
"320 577 OFFCURVE",
"334 574 OFFCURVE",
"347 570 CURVE"
);
},
{
closed = 1;
nodes = (
"418 292 LINE",
"418 113 LINE",
"325 113 LINE SMOOTH",
"256 113 OFFCURVE",
"185 129 OFFCURVE",
"185 204 CURVE SMOOTH",
"185 251 OFFCURVE",
"222 292 OFFCURVE",
"304 292 CURVE SMOOTH"
);
}
);
};
layerId = "D9505699-D8FA-43B1-90A1-014B81D3291F";
paths = (
{
closed = 1;
nodes = (
"347 691 LINE",
"329 694 OFFCURVE",
"310 696 OFFCURVE",
"291 696 CURVE SMOOTH",
"172 696 OFFCURVE",
"55 631 OFFCURVE",
"55 507 CURVE SMOOTH",
"55 433 OFFCURVE",
"98 381 OFFCURVE",
"163 357 CURVE",
"88 332 OFFCURVE",
"37 284 OFFCURVE",
"37 195 CURVE SMOOTH",
"37 51 OFFCURVE",
"159 0 OFFCURVE",
"294 0 CURVE SMOOTH",
"566 0 LINE",
"566 292 LINE",
"660 292 LINE",
"660 408 LINE",
"566 408 LINE",
"566 539 LINE",
"463 539 LINE",
"450 495 OFFCURVE",
"436 452 OFFCURVE",
"422 408 CURVE",
"300 408 LINE SMOOTH",
"234 408 OFFCURVE",
"201 460 OFFCURVE",
"201 493 CURVE SMOOTH",
"201 550 OFFCURVE",
"250 577 OFFCURVE",
"304 577 CURVE SMOOTH",
"320 577 OFFCURVE",
"334 574 OFFCURVE",
"347 570 CURVE"
);
},
{
closed = 1;
nodes = (
"418 292 LINE",
"418 113 LINE",
"325 113 LINE SMOOTH",
"256 113 OFFCURVE",
"185 129 OFFCURVE",
"185 204 CURVE SMOOTH",
"185 251 OFFCURVE",
"222 292 OFFCURVE",
"304 292 CURVE SMOOTH"
);
}
);
width = 670;
}
);
unicode = 0026;
},
{
glyphname = quotesingle;
lastChange = "2014-09-05 18:35:58 +0000";
layers = (
{
background = {
paths = (
{
closed = 1;
nodes = (
"160 401 LINE",
"172 447 OFFCURVE",
"183 492 OFFCURVE",
"195 539 CURVE",
"195 686 LINE",
"76 686 LINE",
"76 539 LINE",
"88 492 OFFCURVE",
"99 447 OFFCURVE",
"110 401 CURVE"
);
}
);
};
layerId = "D9505699-D8FA-43B1-90A1-014B81D3291F";
paths = (
{
closed = 1;
nodes = (
"160 401 LINE",
"172 447 OFFCURVE",
"183 492 OFFCURVE",
"195 539 CURVE",
"195 686 LINE",
"76 686 LINE",
"76 539 LINE",
"88 492 OFFCURVE",
"99 447 OFFCURVE",
"110 401 CURVE"
);
}
);
width = 272;
}
);
unicode = 0027;
},
{
glyphname = parenleft;
lastChange = "2014-09-05 18:35:58 +0000";
layers = (
{
background = {
paths = (
{
closed = 1;
nodes = (
"36 109 OFFCURVE",
"93 -41 OFFCURVE",
"195 -157 CURVE",
"275 -157 LINE",
"205 -42 OFFCURVE",
"155 123 OFFCURVE",
"155 265 CURVE SMOOTH",
"155 406 OFFCURVE",
"205 570 OFFCURVE",
"275 686 CURVE",
"195 686 LINE",
"93 570 OFFCURVE",
"36 419 OFFCURVE",
"36 264 CURVE SMOOTH"
);
}
);
};
layerId = "D9505699-D8FA-43B1-90A1-014B81D3291F";
paths = (
{
closed = 1;
nodes = (
"36 109 OFFCURVE",
"93 -41 OFFCURVE",
"195 -157 CURVE",
"275 -157 LINE",
"205 -42 OFFCURVE",
"155 123 OFFCURVE",
"155 265 CURVE SMOOTH",
"155 406 OFFCURVE",
"205 570 OFFCURVE",
"275 686 CURVE",
"195 686 LINE",
"93 570 OFFCURVE",
"36 419 OFFCURVE",
"36 264 CURVE SMOOTH"
);
}
);
width = 326;
}
);
unicode = 0028;
},
{
glyphname = parenright;
lastChange = "2014-09-05 18:35:58 +0000";
layers = (
{
background = {
paths = (
{
closed = 1;
nodes = (
"285 419 OFFCURVE",
"228 570 OFFCURVE",
"126 686 CURVE",
"46 686 LINE",
"115 570 OFFCURVE",
"165 406 OFFCURVE",
"165 265 CURVE SMOOTH",
"165 123 OFFCURVE",
"115 -43 OFFCURVE",
"46 -158 CURVE",
"126 -158 LINE",
"228 -42 OFFCURVE",
"285 109 OFFCURVE",
"285 264 CURVE SMOOTH"
);
}
);
};
layerId = "D9505699-D8FA-43B1-90A1-014B81D3291F";
paths = (
{
closed = 1;
nodes = (
"285 419 OFFCURVE",
"228 570 OFFCURVE",
"126 686 CURVE",
"46 686 LINE",
"115 570 OFFCURVE",
"165 406 OFFCURVE",
"165 265 CURVE SMOOTH",
"165 123 OFFCURVE",
"115 -43 OFFCURVE",
"46 -158 CURVE",
"126 -158 LINE",
"228 -42 OFFCURVE",
"285 109 OFFCURVE",
"285 264 CURVE SMOOTH"
);
}
);
width = 326;
}
);
unicode = 0029;
},
{
glyphname = asterisk;
lastChange = "2014-09-05 18:35:58 +0000";
layers = (
{
background = {
paths = (
{
closed = 1;
nodes = (
"508 494 LINE",
"479 588 LINE",
"326 526 LINE",
"341 686 LINE",
"242 686 LINE",
"255 526 LINE",
"107 589 LINE",
"75 496 LINE",
"230 458 LINE",
"125 339 LINE",
"207 280 LINE",
"289 417 LINE",
"373 279 LINE",
"455 339 LINE",
"350 458 LINE"
);
}
);
};
layerId = "D9505699-D8FA-43B1-90A1-014B81D3291F";
paths = (
{
closed = 1;
nodes = (
"508 494 LINE",
"479 588 LINE",
"326 526 LINE",
"341 686 LINE",
"242 686 LINE",
"255 526 LINE",
"107 589 LINE",
"75 496 LINE",
"230 458 LINE",
"125 339 LINE",
"207 280 LINE",
"289 417 LINE",
"373 279 LINE",
"455 339 LINE",
"350 458 LINE"
);
}
);
width = 583;
}
);
unicode = 002A;
},
{
glyphname = plus;
lastChange = "2014-09-05 18:35:58 +0000";
layers = (
{
background = {
paths = (
{
closed = 1;
nodes = (
"352 511 LINE",
"247 511 LINE",
"247 308 LINE",
"44 308 LINE",
"44 202 LINE",
"247 202 LINE",
"247 0 LINE",
"352 0 LINE",
"352 202 LINE",
"556 202 LINE",
"556 308 LINE",
"352 308 LINE"
);
}
);
};
layerId = "D9505699-D8FA-43B1-90A1-014B81D3291F";
paths = (
{
closed = 1;
nodes = (
"352 511 LINE",
"247 511 LINE",
"247 308 LINE",
"44 308 LINE",
"44 202 LINE",
"247 202 LINE",
"247 0 LINE",
"352 0 LINE",
"352 202 LINE",
"556 202 LINE",
"556 308 LINE",
"352 308 LINE"
);
}
);
width = 600;
}
);
unicode = 002B;
},
{
glyphname = comma;
lastChange = "2014-09-05 18:35:58 +0000";
layers = (
{
background = {
paths = (
{
closed = 1;
nodes = (
"169 -144 LINE",
"211 24 LINE",
"211 147 LINE",
"65 147 LINE",
"65 0 LINE",
"128 0 LINE",
"117 -48 OFFCURVE",
"106 -96 OFFCURVE",
"96 -144 CURVE"
);
}
);
};
layerId = "D9505699-D8FA-43B1-90A1-014B81D3291F";
paths = (
{
closed = 1;
nodes = (
"169 -144 LINE",
"211 24 LINE",
"211 147 LINE",
"65 147 LINE",
"65 0 LINE",
"128 0 LINE",
"117 -48 OFFCURVE",
"106 -96 OFFCURVE",
"96 -144 CURVE"
);
}
);
width = 277;
}
);
unicode = 002C;
},
{
glyphname = hyphen;
lastChange = "2014-09-05 18:35:58 +0000";
layers = (
{
background = {
paths = (
{
closed = 1;
nodes = (
"0 208 LINE",
"253 208 LINE",
"253 336 LINE",
"0 336 LINE"
);
}
);
};
layerId = "D9505699-D8FA-43B1-90A1-014B81D3291F";
paths = (
{
closed = 1;
nodes = (
"0 208 LINE",
"253 208 LINE",
"253 336 LINE",
"0 336 LINE"
);
}
);
width = 260;
}
);
unicode = 002D;
},
{
glyphname = period;
lastChange = "2014-09-05 18:35:58 +0000";
layers = (
{
background = {
paths = (
{
closed = 1;
nodes = (
"65 0 LINE",
"211 0 LINE",
"211 147 LINE",
"65 147 LINE"
);
}
);
};
layerId = "D9505699-D8FA-43B1-90A1-014B81D3291F";
paths = (
{
closed = 1;
nodes = (
"65 0 LINE",
"211 0 LINE",
"211 147 LINE",
"65 147 LINE"
);
}
);
width = 277;
}
);
unicode = 002E;
},
{
glyphname = slash;
lastChange = "2014-09-05 18:35:58 +0000";
layers = (
{
background = {
paths = (
{
closed = 1;
nodes = (
"570 686 LINE",
"465 686 LINE",
"-25 -171 LINE",
"81 -171 LINE"
);
}
);
};
layerId = "D9505699-D8FA-43B1-90A1-014B81D3291F";
paths = (
{
closed = 1;
nodes = (
"570 686 LINE",
"465 686 LINE",
"-25 -171 LINE",
"81 -171 LINE"
);
}
);
width = 564;
}
);
unicode = 002F;
},
{
glyphname = zero;
lastChange = "2014-09-05 18:35:58 +0000";
layers = (
{
background = {
paths = (
{
closed = 1;
nodes = (
"560 455 LINE SMOOTH",
"560 591 OFFCURVE",
"454 696 OFFCURVE",
"320 696 CURVE SMOOTH",
"291 696 LINE SMOOTH",
"157 696 OFFCURVE",
"52 591 OFFCURVE",
"52 455 CURVE SMOOTH",
"52 230 LINE SMOOTH",
"52 94 OFFCURVE",
"157 -10 OFFCURVE",
"291 -10 CURVE SMOOTH",
"320 -10 LINE SMOOTH",
"454 -10 OFFCURVE",
"560 94 OFFCURVE",
"560 230 CURVE SMOOTH"
);
},
{
closed = 1;
nodes = (
"412 214 LINE SMOOTH",
"412 154 OFFCURVE",
"367 107 OFFCURVE",
"306 107 CURVE SMOOTH",
"245 107 OFFCURVE",
"200 154 OFFCURVE",
"200 214 CURVE SMOOTH",
"200 472 LINE SMOOTH",
"200 532 OFFCURVE",
"245 579 OFFCURVE",
"306 579 CURVE SMOOTH",
"367 579 OFFCURVE",
"412 532 OFFCURVE",
"412 472 CURVE SMOOTH"
);
}
);
};
layerId = "D9505699-D8FA-43B1-90A1-014B81D3291F";
paths = (
{
closed = 1;
nodes = (
"560 455 LINE SMOOTH",
"560 591 OFFCURVE",
"454 696 OFFCURVE",
"320 696 CURVE SMOOTH",
"291 696 LINE SMOOTH",
"157 696 OFFCURVE",
"52 591 OFFCURVE",
"52 455 CURVE SMOOTH",
"52 230 LINE SMOOTH",
"52 94 OFFCURVE",
"157 -10 OFFCURVE",
"291 -10 CURVE SMOOTH",
"320 -10 LINE SMOOTH",
"454 -10 OFFCURVE",
"560 94 OFFCURVE",
"560 230 CURVE SMOOTH"
);
},
{
closed = 1;
nodes = (
"412 214 LINE SMOOTH",
"412 154 OFFCURVE",
"367 107 OFFCURVE",
"306 107 CURVE SMOOTH",
"245 107 OFFCURVE",
"200 154 OFFCURVE",
"200 214 CURVE SMOOTH",
"200 472 LINE SMOOTH",
"200 532 OFFCURVE",
"245 579 OFFCURVE",
"306 579 CURVE SMOOTH",
"367 579 OFFCURVE",
"412 532 OFFCURVE",
"412 472 CURVE SMOOTH"
);
}
);
width = 612;
}
);
unicode = 0030;
},
{
glyphname = one;
lastChange = "2014-09-05 18:35:58 +0000";
layers = (
{
background = {
paths = (
{
closed = 1;
nodes = (
"556 0 LINE",
"556 121 LINE",
"393 121 LINE",
"393 691 LINE",
"340 691 LINE",
"259 646 OFFCURVE",
"156 609 OFFCURVE",
"79 603 CURVE",
"79 514 LINE",
"246 514 LINE",
"246 121 LINE",
"80 121 LINE",
"80 0 LINE"
);
}
);
};
layerId = "D9505699-D8FA-43B1-90A1-014B81D3291F";
paths = (
{
closed = 1;
nodes = (
"556 0 LINE",
"556 121 LINE",
"393 121 LINE",
"393 691 LINE",
"340 691 LINE",
"259 646 OFFCURVE",
"156 609 OFFCURVE",
"79 603 CURVE",
"79 514 LINE",
"246 514 LINE",
"246 121 LINE",
"80 121 LINE",
"80 0 LINE"
);
}
);
width = 612;
}
);
unicode = 0031;
},
{
glyphname = two;
lastChange = "2014-09-05 18:35:58 +0000";
layers = (
{
background = {
paths = (
{
closed = 1;
nodes = (
"58 0 LINE",
"561 0 LINE",
"561 128 LINE",
"267 128 LINE",
"267 134 OFFCURVE",
"298 161 OFFCURVE",
"307 168 CURVE SMOOTH",
"348 199 OFFCURVE",
"410 247 OFFCURVE",
"459 288 CURVE SMOOTH",
"534 351 OFFCURVE",
"559 407 OFFCURVE",
"559 484 CURVE SMOOTH",
"559 590 OFFCURVE",
"483 696 OFFCURVE",
"332 696 CURVE SMOOTH",
"317 696 LINE SMOOTH",
"114 696 OFFCURVE",
"59 557 OFFCURVE",
"59 464 CURVE SMOOTH",
"59 458 OFFCURVE",
"59 453 OFFCURVE",
"60 445 CURVE",
"197 445 LINE",
"196 454 OFFCURVE",
"196 462 OFFCURVE",
"196 472 CURVE SMOOTH",
"196 502 OFFCURVE",
"226 573 OFFCURVE",
"310 573 CURVE SMOOTH",
"379 573 OFFCURVE",
"406 525 OFFCURVE",
"406 481 CURVE SMOOTH",
"406 442 OFFCURVE",
"393 400 OFFCURVE",
"339 358 CURVE SMOOTH",
"144 205 LINE SMOOTH",
"99 170 OFFCURVE",
"58 128 OFFCURVE",
"58 30 CURVE SMOOTH"
);
}
);
};
layerId = "D9505699-D8FA-43B1-90A1-014B81D3291F";
paths = (
{
closed = 1;
nodes = (
"58 0 LINE",
"561 0 LINE",
"561 128 LINE",
"267 128 LINE",
"267 134 OFFCURVE",
"298 161 OFFCURVE",
"307 168 CURVE SMOOTH",
"348 199 OFFCURVE",
"410 247 OFFCURVE",
"459 288 CURVE SMOOTH",
"534 351 OFFCURVE",
"559 407 OFFCURVE",
"559 484 CURVE SMOOTH",
"559 590 OFFCURVE",
"483 696 OFFCURVE",
"332 696 CURVE SMOOTH",
"317 696 LINE SMOOTH",
"114 696 OFFCURVE",
"59 557 OFFCURVE",
"59 464 CURVE SMOOTH",
"59 458 OFFCURVE",
"59 453 OFFCURVE",
"60 445 CURVE",
"197 445 LINE",
"196 454 OFFCURVE",
"196 462 OFFCURVE",
"196 472 CURVE SMOOTH",
"196 502 OFFCURVE",
"226 573 OFFCURVE",
"310 573 CURVE SMOOTH",
"379 573 OFFCURVE",
"406 525 OFFCURVE",
"406 481 CURVE SMOOTH",
"406 442 OFFCURVE",
"393 400 OFFCURVE",
"339 358 CURVE SMOOTH",
"144 205 LINE SMOOTH",
"99 170 OFFCURVE",
"58 128 OFFCURVE",
"58 30 CURVE SMOOTH"
);
}
);
width = 612;
}
);
unicode = 0032;
},
{
glyphname = three;
lastChange = "2014-09-05 18:35:58 +0000";
layers = (
{
background = {
paths = (
{
closed = 1;
nodes = (
"37 191 LINE SMOOTH",
"37 76 OFFCURVE",
"126 -10 OFFCURVE",
"286 -10 CURVE SMOOTH",
"313 -10 LINE SMOOTH",
"466 -10 OFFCURVE",
"563 73 OFFCURVE",
"563 186 CURVE SMOOTH",
"563 274 OFFCURVE",
"516 330 OFFCURVE",
"443 354 CURVE",
"443 359 LINE",
"503 386 OFFCURVE",
"545 435 OFFCURVE",
"545 510 CURVE SMOOTH",
"545 617 OFFCURVE",
"448 696 OFFCURVE",
"313 696 CURVE SMOOTH",
"294 696 LINE SMOOTH",
"154 696 OFFCURVE",
"56 617 OFFCURVE",
"56 509 CURVE SMOOTH",
"56 488 LINE",
"189 488 LINE",
"189 546 OFFCURVE",
"238 577 OFFCURVE",
"292 577 CURVE SMOOTH",
"348 577 OFFCURVE",
"398 551 OFFCURVE",
"398 492 CURVE SMOOTH",
"398 432 OFFCURVE",
"351 403 OFFCURVE",
"295 403 CURVE SMOOTH",
"213 403 LINE",
"213 296 LINE",
"285 296 LINE SMOOTH",
"349 296 OFFCURVE",
"414 286 OFFCURVE",
"414 205 CURVE SMOOTH",
"414 140 OFFCURVE",
"370 109 OFFCURVE",
"292 109 CURVE SMOOTH",
"213 109 OFFCURVE",
"174 140 OFFCURVE",
"174 205 CURVE",
"37 205 LINE"
);
}
);
};
layerId = "D9505699-D8FA-43B1-90A1-014B81D3291F";
paths = (
{
closed = 1;
nodes = (
"37 191 LINE SMOOTH",
"37 76 OFFCURVE",
"126 -10 OFFCURVE",
"286 -10 CURVE SMOOTH",
"313 -10 LINE SMOOTH",
"466 -10 OFFCURVE",
"563 73 OFFCURVE",
"563 186 CURVE SMOOTH",
"563 274 OFFCURVE",
"516 330 OFFCURVE",
"443 354 CURVE",
"443 359 LINE",
"503 386 OFFCURVE",
"545 435 OFFCURVE",
"545 510 CURVE SMOOTH",
"545 617 OFFCURVE",
"448 696 OFFCURVE",
"313 696 CURVE SMOOTH",
"294 696 LINE SMOOTH",
"154 696 OFFCURVE",
"56 617 OFFCURVE",
"56 509 CURVE SMOOTH",
"56 488 LINE",
"189 488 LINE",
"189 546 OFFCURVE",
"238 577 OFFCURVE",
"292 577 CURVE SMOOTH",
"348 577 OFFCURVE",
"398 551 OFFCURVE",
"398 492 CURVE SMOOTH",
"398 432 OFFCURVE",
"351 403 OFFCURVE",
"295 403 CURVE SMOOTH",
"213 403 LINE",
"213 296 LINE",
"285 296 LINE SMOOTH",
"349 296 OFFCURVE",
"414 286 OFFCURVE",
"414 205 CURVE SMOOTH",
"414 140 OFFCURVE",
"370 109 OFFCURVE",
"292 109 CURVE SMOOTH",
"213 109 OFFCURVE",
"174 140 OFFCURVE",
"174 205 CURVE",
"37 205 LINE"
);
}
);
width = 612;
}
);
unicode = 0033;
},
{
glyphname = four;
lastChange = "2014-09-05 18:35:58 +0000";
layers = (
{
background = {
paths = (
{
closed = 1;
nodes = (
"335 278 LINE",
"145 278 LINE",
"204 347 OFFCURVE",
"326 551 OFFCURVE",
"359 696 CURVE",
"218 696 LINE",
"182 570 OFFCURVE",
"102 388 OFFCURVE",
"33 279 CURVE",
"33 160 LINE",
"335 160 LINE",
"335 0 LINE",
"478 0 LINE",
"478 160 LINE",
"570 160 LINE",
"570 278 LINE",
"478 278 LINE",
"478 612 LINE",
"414 612 LINE",
"400 559 OFFCURVE",
"370 480 OFFCURVE",
"335 428 CURVE"
);
}
);
};
layerId = "D9505699-D8FA-43B1-90A1-014B81D3291F";
paths = (
{
closed = 1;
nodes = (
"335 278 LINE",
"145 278 LINE",
"204 347 OFFCURVE",
"326 551 OFFCURVE",
"359 696 CURVE",
"218 696 LINE",
"182 570 OFFCURVE",
"102 388 OFFCURVE",
"33 279 CURVE",
"33 160 LINE",
"335 160 LINE",
"335 0 LINE",
"478 0 LINE",
"478 160 LINE",
"570 160 LINE",
"570 278 LINE",
"478 278 LINE",
"478 612 LINE",
"414 612 LINE",
"400 559 OFFCURVE",
"370 480 OFFCURVE",
"335 428 CURVE"
);
}
);
width = 612;
}
);
unicode = 0034;
},
{
glyphname = five;
lastChange = "2014-09-05 18:35:58 +0000";
layers = (
{
background = {
paths = (
{
closed = 1;
nodes = (
"274 453 OFFCURVE",
"227 420 OFFCURVE",
"208 405 CURVE",
"220 556 LINE",
"517 556 LINE",
"517 686 LINE",
"104 686 LINE",
"76 305 LINE",
"199 287 LINE",
"216 311 OFFCURVE",
"248 339 OFFCURVE",
"306 339 CURVE SMOOTH",
"376 339 OFFCURVE",
"413 287 OFFCURVE",
"413 227 CURVE SMOOTH",
"413 158 OFFCURVE",
"367 111 OFFCURVE",
"299 111 CURVE SMOOTH",
"241 111 OFFCURVE",
"187 155 OFFCURVE",
"186 219 CURVE",
"49 219 LINE",
"50 92 OFFCURVE",
"145 -10 OFFCURVE",
"297 -10 CURVE SMOOTH",
"312 -10 LINE SMOOTH",
"461 -10 OFFCURVE",
"561 89 OFFCURVE",
"561 223 CURVE SMOOTH",
"561 354 OFFCURVE",
"483 453 OFFCURVE",
"341 453 CURVE SMOOTH"
);
}
);
};
layerId = "D9505699-D8FA-43B1-90A1-014B81D3291F";
paths = (
{
closed = 1;
nodes = (
"274 453 OFFCURVE",
"227 420 OFFCURVE",
"208 405 CURVE",
"220 556 LINE",
"517 556 LINE",
"517 686 LINE",
"104 686 LINE",
"76 305 LINE",
"199 287 LINE",
"216 311 OFFCURVE",
"248 339 OFFCURVE",
"306 339 CURVE SMOOTH",
"376 339 OFFCURVE",
"413 287 OFFCURVE",
"413 227 CURVE SMOOTH",
"413 158 OFFCURVE",
"367 111 OFFCURVE",
"299 111 CURVE SMOOTH",
"241 111 OFFCURVE",
"187 155 OFFCURVE",
"186 219 CURVE",
"49 219 LINE",
"50 92 OFFCURVE",
"145 -10 OFFCURVE",
"297 -10 CURVE SMOOTH",
"312 -10 LINE SMOOTH",
"461 -10 OFFCURVE",
"561 89 OFFCURVE",
"561 223 CURVE SMOOTH",
"561 354 OFFCURVE",
"483 453 OFFCURVE",
"341 453 CURVE SMOOTH"
);
}
);
width = 612;
}
);
unicode = 0035;
},
{
glyphname = six;
lastChange = "2014-09-05 18:35:58 +0000";
layers = (
{
background = {
paths = (
{
closed = 1;
nodes = (
"369 576 OFFCURVE",
"409 526 OFFCURVE",
"409 469 CURVE",
"547 469 LINE",
"547 614 OFFCURVE",
"442 696 OFFCURVE",
"311 696 CURVE SMOOTH",
"297 696 LINE SMOOTH",
"161 696 OFFCURVE",
"52 591 OFFCURVE",
"52 455 CURVE SMOOTH",
"52 231 LINE SMOOTH",
"52 87 OFFCURVE",
"163 -10 OFFCURVE",
"300 -10 CURVE SMOOTH",
"314 -10 LINE SMOOTH",
"452 -10 OFFCURVE",
"561 80 OFFCURVE",
"561 225 CURVE SMOOTH",
"561 355 OFFCURVE",
"462 434 OFFCURVE",
"339 434 CURVE SMOOTH",
"289 434 OFFCURVE",
"236 414 OFFCURVE",
"199 375 CURVE",
"199 472 LINE SMOOTH",
"199 531 OFFCURVE",
"249 576 OFFCURVE",
"307 576 CURVE SMOOTH"
);
},
{
closed = 1;
nodes = (
"416 208 LINE SMOOTH",
"416 147 OFFCURVE",
"368 104 OFFCURVE",
"309 104 CURVE SMOOTH",
"247 104 OFFCURVE",
"199 147 OFFCURVE",
"199 208 CURVE SMOOTH",
"199 228 LINE SMOOTH",
"199 289 OFFCURVE",
"247 332 OFFCURVE",
"306 332 CURVE SMOOTH",
"368 332 OFFCURVE",
"416 289 OFFCURVE",
"416 228 CURVE SMOOTH"
);
}
);
};
layerId = "D9505699-D8FA-43B1-90A1-014B81D3291F";
paths = (
{
closed = 1;
nodes = (
"369 576 OFFCURVE",
"409 526 OFFCURVE",
"409 469 CURVE",
"547 469 LINE",
"547 614 OFFCURVE",
"442 696 OFFCURVE",
"311 696 CURVE SMOOTH",
"297 696 LINE SMOOTH",
"161 696 OFFCURVE",
"52 591 OFFCURVE",
"52 455 CURVE SMOOTH",
"52 231 LINE SMOOTH",
"52 87 OFFCURVE",
"163 -10 OFFCURVE",
"300 -10 CURVE SMOOTH",
"314 -10 LINE SMOOTH",
"452 -10 OFFCURVE",
"561 80 OFFCURVE",
"561 225 CURVE SMOOTH",
"561 355 OFFCURVE",
"462 434 OFFCURVE",
"339 434 CURVE SMOOTH",
"289 434 OFFCURVE",
"236 414 OFFCURVE",
"199 375 CURVE",
"199 472 LINE SMOOTH",
"199 531 OFFCURVE",
"249 576 OFFCURVE",
"307 576 CURVE SMOOTH"
);
},
{
closed = 1;
nodes = (
"416 208 LINE SMOOTH",
"416 147 OFFCURVE",
"368 104 OFFCURVE",
"309 104 CURVE SMOOTH",
"247 104 OFFCURVE",
"199 147 OFFCURVE",
"199 208 CURVE SMOOTH",
"199 228 LINE SMOOTH",
"199 289 OFFCURVE",
"247 332 OFFCURVE",
"306 332 CURVE SMOOTH",
"368 332 OFFCURVE",
"416 289 OFFCURVE",
"416 228 CURVE SMOOTH"
);
}
);
width = 612;
}
);
unicode = 0036;
},
{
glyphname = seven;
lastChange = "2014-09-05 18:35:58 +0000";
layers = (
{
background = {
paths = (
{
closed = 1;
nodes = (
"562 686 LINE",
"66 686 LINE",
"66 555 LINE",
"391 555 LINE",
"278 411 OFFCURVE",
"154 213 OFFCURVE",
"154 0 CURVE",
"322 0 LINE",
"321 12 OFFCURVE",
"321 45 OFFCURVE",
"321 55 CURVE SMOOTH",
"321 267 OFFCURVE",
"445 464 OFFCURVE",
"562 614 CURVE"
);
}
);
};
layerId = "D9505699-D8FA-43B1-90A1-014B81D3291F";
paths = (
{
closed = 1;
nodes = (
"562 686 LINE",
"66 686 LINE",
"66 555 LINE",
"391 555 LINE",
"278 411 OFFCURVE",
"154 213 OFFCURVE",
"154 0 CURVE",
"322 0 LINE",
"321 12 OFFCURVE",
"321 45 OFFCURVE",
"321 55 CURVE SMOOTH",
"321 267 OFFCURVE",
"445 464 OFFCURVE",
"562 614 CURVE"
);
}
);
width = 612;
}
);
unicode = 0037;
},
{
glyphname = eight;
lastChange = "2014-09-05 18:35:58 +0000";
layers = (
{
background = {
paths = (
{
closed = 1;
nodes = (
"452 352 LINE",
"501 385 OFFCURVE",
"538 420 OFFCURVE",
"538 500 CURVE SMOOTH",
"538 625 OFFCURVE",
"438 696 OFFCURVE",
"306 696 CURVE SMOOTH",
"174 696 OFFCURVE",
"74 625 OFFCURVE",
"74 500 CURVE SMOOTH",
"74 420 OFFCURVE",
"111 385 OFFCURVE",
"160 352 CURVE",
"160 348 LINE",
"95 315 OFFCURVE",
"51 273 OFFCURVE",
"51 187 CURVE SMOOTH",
"51 61 OFFCURVE",
"156 -10 OFFCURVE",
"306 -10 CURVE SMOOTH",
"464 -10 OFFCURVE",
"561 61 OFFCURVE",
"561 187 CURVE SMOOTH",
"561 273 OFFCURVE",
"517 314 OFFCURVE",
"452 348 CURVE"
);
},
{
closed = 1;
nodes = (
"211 498 LINE SMOOTH",
"211 547 OFFCURVE",
"250 586 OFFCURVE",
"306 586 CURVE SMOOTH",
"362 586 OFFCURVE",
"401 547 OFFCURVE",
"401 498 CURVE SMOOTH",
"401 487 LINE SMOOTH",
"401 438 OFFCURVE",
"362 399 OFFCURVE",
"306 399 CURVE SMOOTH",
"250 399 OFFCURVE",
"211 438 OFFCURVE",
"211 487 CURVE SMOOTH"
);
},
{
closed = 1;
nodes = (
"200 208 LINE SMOOTH",
"200 266 OFFCURVE",
"247 300 OFFCURVE",
"306 300 CURVE SMOOTH",
"365 300 OFFCURVE",
"412 266 OFFCURVE",
"412 208 CURVE SMOOTH",
"412 192 LINE SMOOTH",
"412 134 OFFCURVE",
"365 100 OFFCURVE",
"306 100 CURVE SMOOTH",
"247 100 OFFCURVE",
"200 134 OFFCURVE",
"200 192 CURVE SMOOTH"
);
}
);
};
layerId = "D9505699-D8FA-43B1-90A1-014B81D3291F";
paths = (
{
closed = 1;
nodes = (
"452 352 LINE",
"501 385 OFFCURVE",
"538 420 OFFCURVE",
"538 500 CURVE SMOOTH",
"538 625 OFFCURVE",
"438 696 OFFCURVE",
"306 696 CURVE SMOOTH",
"174 696 OFFCURVE",
"74 625 OFFCURVE",
"74 500 CURVE SMOOTH",
"74 420 OFFCURVE",
"111 385 OFFCURVE",
"160 352 CURVE",
"160 348 LINE",
"95 315 OFFCURVE",
"51 273 OFFCURVE",
"51 187 CURVE SMOOTH",
"51 61 OFFCURVE",
"156 -10 OFFCURVE",
"306 -10 CURVE SMOOTH",
"464 -10 OFFCURVE",
"561 61 OFFCURVE",
"561 187 CURVE SMOOTH",
"561 273 OFFCURVE",
"517 314 OFFCURVE",
"452 348 CURVE"
);
},
{
closed = 1;
nodes = (
"211 498 LINE SMOOTH",
"211 547 OFFCURVE",
"250 586 OFFCURVE",
"306 586 CURVE SMOOTH",
"362 586 OFFCURVE",
"401 547 OFFCURVE",
"401 498 CURVE SMOOTH",
"401 487 LINE SMOOTH",
"401 438 OFFCURVE",
"362 399 OFFCURVE",
"306 399 CURVE SMOOTH",
"250 399 OFFCURVE",
"211 438 OFFCURVE",
"211 487 CURVE SMOOTH"
);
},
{
closed = 1;
nodes = (
"200 208 LINE SMOOTH",
"200 266 OFFCURVE",
"247 300 OFFCURVE",
"306 300 CURVE SMOOTH",
"365 300 OFFCURVE",
"412 266 OFFCURVE",
"412 208 CURVE SMOOTH",
"412 192 LINE SMOOTH",
"412 134 OFFCURVE",
"365 100 OFFCURVE",
"306 100 CURVE SMOOTH",
"247 100 OFFCURVE",
"200 134 OFFCURVE",
"200 192 CURVE SMOOTH"
);
}
);
width = 612;
}
);
unicode = 0038;
},
{
glyphname = nine;
lastChange = "2014-09-05 18:35:58 +0000";
layers = (
{
background = {
paths = (
{
closed = 1;
nodes = (
"244 109 OFFCURVE",
"203 158 OFFCURVE",
"203 216 CURVE",
"65 216 LINE",
"65 71 OFFCURVE",
"170 -10 OFFCURVE",
"301 -10 CURVE SMOOTH",
"315 -10 LINE SMOOTH",
"451 -10 OFFCURVE",
"560 94 OFFCURVE",
"560 230 CURVE SMOOTH",
"560 454 LINE SMOOTH",
"560 598 OFFCURVE",
"449 696 OFFCURVE",
"312 696 CURVE SMOOTH",
"298 696 LINE SMOOTH",
"160 696 OFFCURVE",
"51 605 OFFCURVE",
"51 460 CURVE SMOOTH",
"51 331 OFFCURVE",
"150 251 OFFCURVE",
"273 251 CURVE SMOOTH",
"323 251 OFFCURVE",
"376 271 OFFCURVE",
"413 310 CURVE",
"413 213 LINE SMOOTH",
"413 154 OFFCURVE",
"357 109 OFFCURVE",
"305 109 CURVE SMOOTH"
);
},
{
closed = 1;
nodes = (
"196 478 LINE SMOOTH",
"196 538 OFFCURVE",
"245 581 OFFCURVE",
"304 581 CURVE SMOOTH",
"366 581 OFFCURVE",
"413 538 OFFCURVE",
"413 478 CURVE SMOOTH",
"413 457 LINE SMOOTH",
"413 397 OFFCURVE",
"363 354 OFFCURVE",
"304 354 CURVE SMOOTH",
"242 354 OFFCURVE",
"196 397 OFFCURVE",
"196 457 CURVE SMOOTH"
);
}
);
};
layerId = "D9505699-D8FA-43B1-90A1-014B81D3291F";
paths = (
{
closed = 1;
nodes = (
"244 109 OFFCURVE",
"203 158 OFFCURVE",
"203 216 CURVE",
"65 216 LINE",
"65 71 OFFCURVE",
"170 -10 OFFCURVE",
"301 -10 CURVE SMOOTH",
"315 -10 LINE SMOOTH",
"451 -10 OFFCURVE",
"560 94 OFFCURVE",
"560 230 CURVE SMOOTH",
"560 454 LINE SMOOTH",
"560 598 OFFCURVE",
"449 696 OFFCURVE",
"312 696 CURVE SMOOTH",
"298 696 LINE SMOOTH",
"160 696 OFFCURVE",
"51 605 OFFCURVE",
"51 460 CURVE SMOOTH",
"51 331 OFFCURVE",
"150 251 OFFCURVE",
"273 251 CURVE SMOOTH",
"323 251 OFFCURVE",
"376 271 OFFCURVE",
"413 310 CURVE",
"413 213 LINE SMOOTH",
"413 154 OFFCURVE",
"357 109 OFFCURVE",
"305 109 CURVE SMOOTH"
);
},
{
closed = 1;
nodes = (
"196 478 LINE SMOOTH",
"196 538 OFFCURVE",
"245 581 OFFCURVE",
"304 581 CURVE SMOOTH",
"366 581 OFFCURVE",
"413 538 OFFCURVE",
"413 478 CURVE SMOOTH",
"413 457 LINE SMOOTH",
"413 397 OFFCURVE",
"363 354 OFFCURVE",
"304 354 CURVE SMOOTH",
"242 354 OFFCURVE",
"196 397 OFFCURVE",
"196 457 CURVE SMOOTH"
);
}
);
width = 612;
}
);
unicode = 0039;
},
{
glyphname = colon;
lastChange = "2014-09-05 18:35:58 +0000";
layers = (
{
background = {
paths = (
{
closed = 1;
nodes = (
"65 0 LINE",
"211 0 LINE",
"211 147 LINE",
"65 147 LINE"
);
},
{
closed = 1;
nodes = (
"65 363 LINE",
"211 363 LINE",
"211 511 LINE",
"65 511 LINE"
);
}
);
};
layerId = "D9505699-D8FA-43B1-90A1-014B81D3291F";
paths = (
{
closed = 1;
nodes = (
"65 0 LINE",
"211 0 LINE",
"211 147 LINE",
"65 147 LINE"
);
},
{
closed = 1;
nodes = (
"65 363 LINE",
"211 363 LINE",
"211 511 LINE",
"65 511 LINE"
);
}
);
width = 277;
}
);
unicode = 003A;
},
{
glyphname = semicolon;
lastChange = "2014-09-05 18:35:58 +0000";
layers = (
{
background = {
paths = (
{
closed = 1;
nodes = (
"65 363 LINE",
"211 363 LINE",
"211 511 LINE",
"65 511 LINE"
);
},
{
closed = 1;
nodes = (
"169 -144 LINE",
"211 24 LINE",
"211 147 LINE",
"65 147 LINE",
"65 0 LINE",
"128 0 LINE",
"117 -48 OFFCURVE",
"106 -96 OFFCURVE",
"96 -144 CURVE"
);
}
);
};
layerId = "D9505699-D8FA-43B1-90A1-014B81D3291F";
paths = (
{
closed = 1;
nodes = (
"65 363 LINE",
"211 363 LINE",
"211 511 LINE",
"65 511 LINE"
);
},
{
closed = 1;
nodes = (
"169 -144 LINE",
"211 24 LINE",
"211 147 LINE",
"65 147 LINE",
"65 0 LINE",
"128 0 LINE",
"117 -48 OFFCURVE",
"106 -96 OFFCURVE",
"96 -144 CURVE"
);
}
);
width = 277;
}
);
unicode = 003B;
},
{
glyphname = less;
lastChange = "2014-09-05 18:35:58 +0000";
layers = (
{
background = {
paths = (
{
closed = 1;
nodes = (
"45 192 LINE",
"215 127 OFFCURVE",
"384 61 OFFCURVE",
"554 -3 CURVE",
"554 110 LINE",
"165 254 LINE",
"554 398 LINE",
"554 512 LINE",
"45 315 LINE"
);
}
);
};
layerId = "D9505699-D8FA-43B1-90A1-014B81D3291F";
paths = (
{
closed = 1;
nodes = (
"45 192 LINE",
"215 127 OFFCURVE",
"384 61 OFFCURVE",
"554 -3 CURVE",
"554 110 LINE",
"165 254 LINE",
"554 398 LINE",
"554 512 LINE",
"45 315 LINE"
);
}
);
width = 599;
}
);
unicode = 003C;
},
{
glyphname = equal;
lastChange = "2014-09-05 18:35:58 +0000";
layers = (
{
background = {
paths = (
{
closed = 1;
nodes = (
"554 309 LINE",
"554 415 LINE",
"46 415 LINE",
"46 309 LINE"
);
},
{
closed = 1;
nodes = (
"554 93 LINE",
"554 199 LINE",
"46 199 LINE",
"46 93 LINE"
);
}
);
};
layerId = "D9505699-D8FA-43B1-90A1-014B81D3291F";
paths = (
{
closed = 1;
nodes = (
"554 309 LINE",
"554 415 LINE",
"46 415 LINE",
"46 309 LINE"
);
},
{
closed = 1;
nodes = (
"554 93 LINE",
"554 199 LINE",
"46 199 LINE",
"46 93 LINE"
);
}
);
width = 600;
}
);
unicode = 003D;
},
{
glyphname = greater;
lastChange = "2014-09-05 18:35:58 +0000";
layers = (
{
background = {
paths = (
{
closed = 1;
nodes = (
"554 315 LINE",
"45 512 LINE",
"45 398 LINE",
"174 349 OFFCURVE",
"303 302 OFFCURVE",
"433 254 CURVE",
"303 206 OFFCURVE",
"174 158 OFFCURVE",
"45 110 CURVE",
"45 -3 LINE",
"215 61 OFFCURVE",
"384 127 OFFCURVE",
"554 192 CURVE"
);
}
);
};
layerId = "D9505699-D8FA-43B1-90A1-014B81D3291F";
paths = (
{
closed = 1;
nodes = (
"554 315 LINE",
"45 512 LINE",
"45 398 LINE",
"174 349 OFFCURVE",
"303 302 OFFCURVE",
"433 254 CURVE",
"303 206 OFFCURVE",
"174 158 OFFCURVE",
"45 110 CURVE",
"45 -3 LINE",
"215 61 OFFCURVE",
"384 127 OFFCURVE",
"554 192 CURVE"
);
}
);
width = 600;
}
);
unicode = 003E;
},
{
glyphname = question;
lastChange = "2014-09-05 18:35:58 +0000";
layers = (
{
background = {
paths = (
{
closed = 1;
nodes = (
"216 0 LINE",
"363 0 LINE",
"363 147 LINE",
"216 147 LINE"
);
},
{
closed = 1;
nodes = (
"358 233 LINE SMOOTH",
"358 307 OFFCURVE",
"521 325 OFFCURVE",
"521 491 CURVE SMOOTH",
"521 599 OFFCURVE",
"442 696 OFFCURVE",
"296 696 CURVE SMOOTH",
"274 696 LINE SMOOTH",
"130 696 OFFCURVE",
"38 592 OFFCURVE",
"38 489 CURVE SMOOTH",
"38 472 OFFCURVE",
"40 461 OFFCURVE",
"41 452 CURVE",
"182 452 LINE",
"182 452 OFFCURVE",
"181 473 OFFCURVE",
"181 484 CURVE SMOOTH",
"181 521 OFFCURVE",
"196 582 OFFCURVE",
"275 582 CURVE SMOOTH",
"338 582 OFFCURVE",
"365 543 OFFCURVE",
"365 493 CURVE SMOOTH",
"365 387 OFFCURVE",
"222 358 OFFCURVE",
"222 259 CURVE SMOOTH",
"222 201 LINE",
"358 201 LINE"
);
}
);
};
layerId = "D9505699-D8FA-43B1-90A1-014B81D3291F";
paths = (
{
closed = 1;
nodes = (
"216 0 LINE",
"363 0 LINE",
"363 147 LINE",
"216 147 LINE"
);
},
{
closed = 1;
nodes = (
"358 233 LINE SMOOTH",
"358 307 OFFCURVE",
"521 325 OFFCURVE",
"521 491 CURVE SMOOTH",
"521 599 OFFCURVE",
"442 696 OFFCURVE",
"296 696 CURVE SMOOTH",
"274 696 LINE SMOOTH",
"130 696 OFFCURVE",
"38 592 OFFCURVE",
"38 489 CURVE SMOOTH",
"38 472 OFFCURVE",
"40 461 OFFCURVE",
"41 452 CURVE",
"182 452 LINE",
"182 452 OFFCURVE",
"181 473 OFFCURVE",
"181 484 CURVE SMOOTH",
"181 521 OFFCURVE",
"196 582 OFFCURVE",
"275 582 CURVE SMOOTH",
"338 582 OFFCURVE",
"365 543 OFFCURVE",
"365 493 CURVE SMOOTH",
"365 387 OFFCURVE",
"222 358 OFFCURVE",
"222 259 CURVE SMOOTH",
"222 201 LINE",
"358 201 LINE"
);
}
);
width = 572;
}
);
unicode = 003F;
},
{
glyphname = at;
lastChange = "2014-09-05 18:35:58 +0000";
layers = (
{
background = {
paths = (
{
closed = 1;
nodes = (
"553 225 LINE SMOOTH",
"553 157 OFFCURVE",
"501 114 OFFCURVE",
"446 114 CURVE SMOOTH",
"404 114 OFFCURVE",
"377 128 OFFCURVE",
"377 172 CURVE SMOOTH",
"377 227 OFFCURVE",
"439 247 OFFCURVE",
"553 247 CURVE"
);
},
{
closed = 1;
nodes = (
"688 371 LINE SMOOTH",
"688 461 OFFCURVE",
"621 521 OFFCURVE",
"482 521 CURVE SMOOTH",
"462 521 LINE SMOOTH",
"336 521 OFFCURVE",
"251 462 OFFCURVE",
"251 381 CURVE SMOOTH",
"251 375 OFFCURVE",
"251 370 OFFCURVE",
"252 364 CURVE",
"384 364 LINE",
"384 371 LINE SMOOTH",
"384 391 OFFCURVE",
"403 431 OFFCURVE",
"468 431 CURVE SMOOTH",
"536 431 OFFCURVE",
"553 395 OFFCURVE",
"553 360 CURVE SMOOTH",
"553 324 LINE",
"361 324 OFFCURVE",
"236 300 OFFCURVE",
"236 162 CURVE SMOOTH",
"236 42 OFFCURVE",
"322 22 OFFCURVE",
"399 22 CURVE SMOOTH",
"476 22 OFFCURVE",
"518 56 OFFCURVE",
"559 103 CURVE",
"563 103 LINE",
"574 57 OFFCURVE",
"598 22 OFFCURVE",
"676 22 CURVE SMOOTH",
"766 22 OFFCURVE",
"879 91 OFFCURVE",
"879 320 CURVE SMOOTH",
"879 588 OFFCURVE",
"707 697 OFFCURVE",
"476 697 CURVE SMOOTH",
"245 697 OFFCURVE",
"48 580 OFFCURVE",
"48 262 CURVE SMOOTH",
"48 -27 OFFCURVE",
"198 -153 OFFCURVE",
"441 -153 CURVE SMOOTH",
"484 -153 OFFCURVE",
"564 -142 OFFCURVE",
"606 -126 CURVE",
"606 -63 LINE",
"570 -81 OFFCURVE",
"487 -95 OFFCURVE",
"441 -95 CURVE SMOOTH",
"218 -95 OFFCURVE",
"114 24 OFFCURVE",
"114 261 CURVE SMOOTH",
"114 516 OFFCURVE",
"253 639 OFFCURVE",
"475 639 CURVE SMOOTH",
"674 639 OFFCURVE",
"813 546 OFFCURVE",
"813 321 CURVE SMOOTH",
"813 146 OFFCURVE",
"758 113 OFFCURVE",
"723 113 CURVE SMOOTH",
"704 113 OFFCURVE",
"688 124 OFFCURVE",
"688 150 CURVE SMOOTH"
);
}
);
};
layerId = "D9505699-D8FA-43B1-90A1-014B81D3291F";
paths = (
{
closed = 1;
nodes = (
"553 225 LINE SMOOTH",
"553 157 OFFCURVE",
"501 114 OFFCURVE",
"446 114 CURVE SMOOTH",
"404 114 OFFCURVE",
"377 128 OFFCURVE",
"377 172 CURVE SMOOTH",
"377 227 OFFCURVE",
"439 247 OFFCURVE",
"553 247 CURVE"
);
},
{
closed = 1;
nodes = (
"688 371 LINE SMOOTH",
"688 461 OFFCURVE",
"621 521 OFFCURVE",
"482 521 CURVE SMOOTH",
"462 521 LINE SMOOTH",
"336 521 OFFCURVE",
"251 462 OFFCURVE",
"251 381 CURVE SMOOTH",
"251 375 OFFCURVE",
"251 370 OFFCURVE",
"252 364 CURVE",
"384 364 LINE",
"384 371 LINE SMOOTH",
"384 391 OFFCURVE",
"403 431 OFFCURVE",
"468 431 CURVE SMOOTH",
"536 431 OFFCURVE",
"553 395 OFFCURVE",
"553 360 CURVE SMOOTH",
"553 324 LINE",
"361 324 OFFCURVE",
"236 300 OFFCURVE",
"236 162 CURVE SMOOTH",
"236 42 OFFCURVE",
"322 22 OFFCURVE",
"399 22 CURVE SMOOTH",
"476 22 OFFCURVE",
"518 56 OFFCURVE",
"559 103 CURVE",
"563 103 LINE",
"574 57 OFFCURVE",
"598 22 OFFCURVE",
"676 22 CURVE SMOOTH",
"766 22 OFFCURVE",
"879 91 OFFCURVE",
"879 320 CURVE SMOOTH",
"879 588 OFFCURVE",
"707 697 OFFCURVE",
"476 697 CURVE SMOOTH",
"245 697 OFFCURVE",
"48 580 OFFCURVE",
"48 262 CURVE SMOOTH",
"48 -27 OFFCURVE",
"198 -153 OFFCURVE",
"441 -153 CURVE SMOOTH",
"484 -153 OFFCURVE",
"564 -142 OFFCURVE",
"606 -126 CURVE",
"606 -63 LINE",
"570 -81 OFFCURVE",
"487 -95 OFFCURVE",
"441 -95 CURVE SMOOTH",
"218 -95 OFFCURVE",
"114 24 OFFCURVE",
"114 261 CURVE SMOOTH",
"114 516 OFFCURVE",
"253 639 OFFCURVE",
"475 639 CURVE SMOOTH",
"674 639 OFFCURVE",
"813 546 OFFCURVE",
"813 321 CURVE SMOOTH",
"813 146 OFFCURVE",
"758 113 OFFCURVE",
"723 113 CURVE SMOOTH",
"704 113 OFFCURVE",
"688 124 OFFCURVE",
"688 150 CURVE SMOOTH"
);
}
);
width = 927;
}
);
unicode = 0040;
},
{
glyphname = A;
lastChange = "2014-09-05 18:35:58 +0000";
layers = (
{
anchors = (
{
name = ogonek;
position = "{617, 10}";
},
{
name = top;
position = "{343, 686}";
}
);
background = {
anchors = (
{
name = ogonek;
position = "{617, 10}";
},
{
name = top;
position = "{343, 686}";
}
);
paths = (
{
closed = 1;
nodes = (
"522 0 LINE",
"684 0 LINE",
"435 686 LINE",
"251 686 LINE",
"2 0 LINE",
"151 0 LINE",
"199 135 LINE",
"472 135 LINE"
);
},
{
closed = 1;
nodes = (
"339 521 LINE",
"370 432 OFFCURVE",
"401 342 OFFCURVE",
"431 252 CURVE",
"241 252 LINE",
"272 342 OFFCURVE",
"303 432 OFFCURVE",
"334 521 CURVE"
);
}
);
};
layerId = "D9505699-D8FA-43B1-90A1-014B81D3291F";
paths = (
{
closed = 1;
nodes = (
"522 0 LINE",
"684 0 LINE",
"435 686 LINE",
"251 686 LINE",
"2 0 LINE",
"151 0 LINE",
"199 135 LINE",
"472 135 LINE"
);
},
{
closed = 1;
nodes = (
"339 521 LINE",
"370 432 OFFCURVE",
"401 342 OFFCURVE",
"431 252 CURVE",
"241 252 LINE",
"272 342 OFFCURVE",
"303 432 OFFCURVE",
"334 521 CURVE"
);
}
);
width = 686;
}
);
unicode = 0041;
},
{
glyphname = B;
lastChange = "2014-09-05 18:35:58 +0000";
layers = (
{
background = {
paths = (
{
closed = 1;
nodes = (
"72 0 LINE",
"418 0 LINE SMOOTH",
"523 0 OFFCURVE",
"608 82 OFFCURVE",
"608 183 CURVE SMOOTH",
"608 299 OFFCURVE",
"534 341 OFFCURVE",
"475 353 CURVE",
"475 358 LINE",
"534 374 OFFCURVE",
"592 417 OFFCURVE",
"592 518 CURVE SMOOTH",
"592 611 OFFCURVE",
"511 686 OFFCURVE",
"412 686 CURVE SMOOTH",
"72 686 LINE"
);
},
{
closed = 1;
nodes = (
"218 408 LINE",
"218 568 LINE",
"368 568 LINE SMOOTH",
"400 568 OFFCURVE",
"444 551 OFFCURVE",
"444 489 CURVE SMOOTH",
"444 441 OFFCURVE",
"407 408 OFFCURVE",
"368 408 CURVE SMOOTH"
);
},
{
closed = 1;
nodes = (
"218 124 LINE",
"218 291 LINE",
"379 291 LINE SMOOTH",
"423 291 OFFCURVE",
"458 256 OFFCURVE",
"458 212 CURVE SMOOTH",
"458 203 LINE SMOOTH",
"458 159 OFFCURVE",
"423 124 OFFCURVE",
"379 124 CURVE SMOOTH"
);
}
);
};
layerId = "D9505699-D8FA-43B1-90A1-014B81D3291F";
paths = (
{
closed = 1;
nodes = (
"72 0 LINE",
"418 0 LINE SMOOTH",
"523 0 OFFCURVE",
"608 82 OFFCURVE",
"608 183 CURVE SMOOTH",
"608 299 OFFCURVE",
"534 341 OFFCURVE",
"475 353 CURVE",
"475 358 LINE",
"534 374 OFFCURVE",
"592 417 OFFCURVE",
"592 518 CURVE SMOOTH",
"592 611 OFFCURVE",
"511 686 OFFCURVE",
"412 686 CURVE SMOOTH",
"72 686 LINE"
);
},
{
closed = 1;
nodes = (
"218 408 LINE",
"218 568 LINE",
"368 568 LINE SMOOTH",
"400 568 OFFCURVE",
"444 551 OFFCURVE",
"444 489 CURVE SMOOTH",
"444 441 OFFCURVE",
"407 408 OFFCURVE",
"368 408 CURVE SMOOTH"
);
},
{
closed = 1;
nodes = (
"218 124 LINE",
"218 291 LINE",
"379 291 LINE SMOOTH",
"423 291 OFFCURVE",
"458 256 OFFCURVE",
"458 212 CURVE SMOOTH",
"458 203 LINE SMOOTH",
"458 159 OFFCURVE",
"423 124 OFFCURVE",
"379 124 CURVE SMOOTH"
);
}
);
width = 645;
}
);
unicode = 0042;
},
{
glyphname = C;
lastChange = "2014-09-05 18:35:58 +0000";
layers = (
{
anchors = (
{
name = bottom;
position = "{342, 0}";
},
{
name = top;
position = "{342, 686}";
}
);
background = {
anchors = (
{
name = bottom;
position = "{342, 0}";
},
{
name = top;
position = "{342, 686}";
}
);
paths = (
{
closed = 1;
nodes = (
"210 414 LINE SMOOTH",
"210 519 OFFCURVE",
"274 573 OFFCURVE",
"354 573 CURVE SMOOTH",
"440 573 OFFCURVE",
"488 519 OFFCURVE",
"488 414 CURVE",
"635 414 LINE",
"635 603 OFFCURVE",
"514 696 OFFCURVE",
"358 696 CURVE SMOOTH",
"344 696 LINE SMOOTH",
"180 696 OFFCURVE",
"48 586 OFFCURVE",
"48 392 CURVE SMOOTH",
"48 294 LINE SMOOTH",
"48 95 OFFCURVE",
"178 -10 OFFCURVE",
"348 -10 CURVE SMOOTH",
"362 -10 LINE SMOOTH",
"515 -10 OFFCURVE",
"635 88 OFFCURVE",
"635 270 CURVE",
"494 270 LINE",
"494 163 OFFCURVE",
"450 113 OFFCURVE",
"355 113 CURVE SMOOTH",
"275 113 OFFCURVE",
"210 167 OFFCURVE",
"210 272 CURVE SMOOTH"
);
}
);
};
layerId = "D9505699-D8FA-43B1-90A1-014B81D3291F";
paths = (
{
closed = 1;
nodes = (
"210 414 LINE SMOOTH",
"210 519 OFFCURVE",
"274 573 OFFCURVE",
"354 573 CURVE SMOOTH",
"440 573 OFFCURVE",
"488 519 OFFCURVE",
"488 414 CURVE",
"635 414 LINE",
"635 603 OFFCURVE",
"514 696 OFFCURVE",
"358 696 CURVE SMOOTH",
"344 696 LINE SMOOTH",
"180 696 OFFCURVE",
"48 586 OFFCURVE",
"48 392 CURVE SMOOTH",
"48 294 LINE SMOOTH",
"48 95 OFFCURVE",
"178 -10 OFFCURVE",
"348 -10 CURVE SMOOTH",
"362 -10 LINE SMOOTH",
"515 -10 OFFCURVE",
"635 88 OFFCURVE",
"635 270 CURVE",
"494 270 LINE",
"494 163 OFFCURVE",
"450 113 OFFCURVE",
"355 113 CURVE SMOOTH",
"275 113 OFFCURVE",
"210 167 OFFCURVE",
"210 272 CURVE SMOOTH"
);
}
);
width = 683;
}
);
unicode = 0043;
},
{
glyphname = D;
lastChange = "2014-09-05 18:35:58 +0000";
layers = (
{
anchors = (
{
name = center;
position = "{343, 343}";
},
{
name = top;
position = "{343, 686}";
}
);
background = {
anchors = (
{
name = center;
position = "{343, 343}";
},
{
name = top;
position = "{343, 686}";
}
);
paths = (
{
closed = 1;
nodes = (
"72 686 LINE",
"72 0 LINE",
"332 0 LINE SMOOTH",
"499 0 OFFCURVE",
"638 109 OFFCURVE",
"638 304 CURVE SMOOTH",
"638 382 LINE SMOOTH",
"638 577 OFFCURVE",
"499 686 OFFCURVE",
"332 686 CURVE SMOOTH"
);
},
{
closed = 1;
nodes = (
"332 563 LINE SMOOTH",
"414 563 OFFCURVE",
"476 509 OFFCURVE",
"476 404 CURVE SMOOTH",
"476 282 LINE SMOOTH",
"476 177 OFFCURVE",
"414 123 OFFCURVE",
"332 123 CURVE SMOOTH",
"227 123 LINE",
"227 563 LINE"
);
}
);
};
layerId = "D9505699-D8FA-43B1-90A1-014B81D3291F";
paths = (
{
closed = 1;
nodes = (
"72 686 LINE",
"72 0 LINE",
"332 0 LINE SMOOTH",
"499 0 OFFCURVE",
"638 109 OFFCURVE",
"638 304 CURVE SMOOTH",
"638 382 LINE SMOOTH",
"638 577 OFFCURVE",
"499 686 OFFCURVE",
"332 686 CURVE SMOOTH"
);
},
{
closed = 1;
nodes = (
"332 563 LINE SMOOTH",
"414 563 OFFCURVE",
"476 509 OFFCURVE",
"476 404 CURVE SMOOTH",
"476 282 LINE SMOOTH",
"476 177 OFFCURVE",
"414 123 OFFCURVE",
"332 123 CURVE SMOOTH",
"227 123 LINE",
"227 563 LINE"
);
}
);
width = 686;
}
);
unicode = 0044;
},
{
glyphname = E;
lastChange = "2014-09-09 17:41:52 +0000";
layers = (
{
anchors = (
{
name = bottom;
position = "{299, 0}";
},
{
name = ogonek;
position = "{528, 10}";
},
{
name = top;
position = "{299, 686}";
}
);
background = {
anchors = (
{
name = bottom;
position = "{299, 0}";
},
{
name = ogonek;
position = "{538, 10}";
},
{
name = top;
position = "{299, 686}";
}
);
paths = (
{
closed = 1;
nodes = (
"558 0 LINE",
"541 123 LINE",
"224 123 LINE",
"224 290 LINE",
"517 290 LINE",
"517 413 LINE",
"224 413 LINE",
"224 563 LINE",
"538 563 LINE",
"555 686 LINE",
"72 686 LINE",
"72 0 LINE"
);
}
);
};
layerId = "D9505699-D8FA-43B1-90A1-014B81D3291F";
paths = (
{
closed = 1;
nodes = (
"558 0 LINE",
"541 123 LINE",
"224 123 LINE",
"224 290 LINE",
"517 290 LINE",
"517 413 LINE",
"224 413 LINE",
"224 563 LINE",
"538 563 LINE",
"555 686 LINE",
"72 686 LINE",
"72 0 LINE"
);
}
);
width = 598;
}
);
unicode = 0045;
},
{
glyphname = F;
lastChange = "2014-09-05 18:35:58 +0000";
layers = (
{
background = {
paths = (
{
closed = 1;
nodes = (
"536 686 LINE",
"72 686 LINE",
"72 0 LINE",
"224 0 LINE",
"224 276 LINE",
"490 276 LINE",
"490 399 LINE",
"224 399 LINE",
"224 563 LINE",
"520 563 LINE"
);
}
);
};
layerId = "D9505699-D8FA-43B1-90A1-014B81D3291F";
paths = (
{
closed = 1;
nodes = (
"536 686 LINE",
"72 686 LINE",
"72 0 LINE",
"224 0 LINE",
"224 276 LINE",
"490 276 LINE",
"490 399 LINE",
"224 399 LINE",
"224 563 LINE",
"520 563 LINE"
);
}
);
width = 563;
}
);
unicode = 0046;
},
{
glyphname = G;
lastChange = "2014-09-05 18:35:58 +0000";
layers = (
{
anchors = (
{
name = bottom;
position = "{350, 0}";
},
{
name = top;
position = "{350, 686}";
}
);
background = {
anchors = (
{
name = bottom;
position = "{350, 0}";
},
{
name = top;
position = "{350, 686}";
}
);
paths = (
{
closed = 1;
nodes = (
"210 414 LINE SMOOTH",
"210 519 OFFCURVE",
"272 573 OFFCURVE",
"353 573 CURVE SMOOTH",
"425 573 OFFCURVE",
"487 534 OFFCURVE",
"487 442 CURVE",
"633 442 LINE",
"633 597 OFFCURVE",
"512 696 OFFCURVE",
"362 696 CURVE SMOOTH",
"348 696 LINE SMOOTH",
"173 696 OFFCURVE",
"48 579 OFFCURVE",
"48 392 CURVE SMOOTH",
"48 294 LINE SMOOTH",
"48 107 OFFCURVE",
"167 -10 OFFCURVE",
"332 -10 CURVE SMOOTH",
"337 -10 LINE SMOOTH",
"415 -10 OFFCURVE",
"487 23 OFFCURVE",
"530 77 CURVE",
"539 42 OFFCURVE",
"548 16 OFFCURVE",
"554 0 CURVE",
"639 0 LINE",
"639 0 OFFCURVE",
"633 56 OFFCURVE",
"633 136 CURVE SMOOTH",
"633 373 LINE",
"333 373 LINE",
"333 261 LINE",
"488 261 LINE",
"488 159 OFFCURVE",
"436 113 OFFCURVE",
"356 113 CURVE SMOOTH",
"276 113 OFFCURVE",
"210 167 OFFCURVE",
"210 272 CURVE SMOOTH"
);
}
);
};
layerId = "D9505699-D8FA-43B1-90A1-014B81D3291F";
paths = (
{
closed = 1;
nodes = (
"210 414 LINE SMOOTH",
"210 519 OFFCURVE",
"272 573 OFFCURVE",
"353 573 CURVE SMOOTH",
"425 573 OFFCURVE",
"487 534 OFFCURVE",
"487 442 CURVE",
"633 442 LINE",
"633 597 OFFCURVE",
"512 696 OFFCURVE",
"362 696 CURVE SMOOTH",
"348 696 LINE SMOOTH",
"173 696 OFFCURVE",
"48 579 OFFCURVE",
"48 392 CURVE SMOOTH",
"48 294 LINE SMOOTH",
"48 107 OFFCURVE",
"167 -10 OFFCURVE",
"332 -10 CURVE SMOOTH",
"337 -10 LINE SMOOTH",
"415 -10 OFFCURVE",
"487 23 OFFCURVE",
"530 77 CURVE",
"539 42 OFFCURVE",
"548 16 OFFCURVE",
"554 0 CURVE",
"639 0 LINE",
"639 0 OFFCURVE",
"633 56 OFFCURVE",
"633 136 CURVE SMOOTH",
"633 373 LINE",
"333 373 LINE",
"333 261 LINE",
"488 261 LINE",
"488 159 OFFCURVE",
"436 113 OFFCURVE",
"356 113 CURVE SMOOTH",
"276 113 OFFCURVE",
"210 167 OFFCURVE",
"210 272 CURVE SMOOTH"
);
}
);
width = 699;
}
);
unicode = 0047;
},
{
glyphname = H;
lastChange = "2014-09-05 18:35:58 +0000";
layers = (
{
anchors = (
{
name = center;
position = "{346, 343}";
},
{
name = top;
position = "{346, 686}";
}
);
background = {
anchors = (
{
name = center;
position = "{346, 343}";
},
{
name = top;
position = "{346, 686}";
}
);
paths = (
{
closed = 1;
nodes = (
"618 0 LINE",
"618 686 LINE",
"464 686 LINE",
"464 414 LINE",
"226 414 LINE",
"226 686 LINE",
"72 686 LINE",
"72 0 LINE",
"227 0 LINE",
"227 286 LINE",
"464 286 LINE",
"464 0 LINE"
);
}
);
};
layerId = "D9505699-D8FA-43B1-90A1-014B81D3291F";
paths = (
{
closed = 1;
nodes = (
"618 0 LINE",
"618 686 LINE",
"464 686 LINE",
"464 414 LINE",
"226 414 LINE",
"226 686 LINE",
"72 686 LINE",
"72 0 LINE",
"227 0 LINE",
"227 286 LINE",
"464 286 LINE",
"464 0 LINE"
);
}
);
width = 691;
}
);
unicode = 0048;
},
{
glyphname = I;
lastChange = "2014-09-05 18:50:41 +0000";
layers = (
{
anchors = (
{
name = ogonek;
position = "{365, 10}";
},
{
name = top;
position = "{231, 686}";
}
);
background = {
anchors = (
{
name = ogonek;
position = "{415, 10}";
},
{
name = top;
position = "{231, 686}";
}
);
paths = (
{
closed = 1;
nodes = (
"72 563 LINE",
"153 563 LINE",
"153 123 LINE",
"72 123 LINE",
"72 0 LINE",
"388 0 LINE",
"388 123 LINE",
"308 123 LINE",
"308 563 LINE",
"388 563 LINE",
"388 686 LINE",
"72 686 LINE"
);
}
);
};
layerId = "D9505699-D8FA-43B1-90A1-014B81D3291F";
paths = (
{
closed = 1;
nodes = (
"72 563 LINE",
"153 563 LINE",
"153 123 LINE",
"72 123 LINE",
"72 0 LINE",
"388 0 LINE",
"388 123 LINE",
"308 123 LINE",
"308 563 LINE",
"388 563 LINE",
"388 686 LINE",
"72 686 LINE"
);
}
);
width = 461;
}
);
unicode = 0049;
},
{
glyphname = J;
lastChange = "2014-09-05 18:50:46 +0000";
layers = (
{
anchors = (
{
name = top;
position = "{304, 686}";
}
);
background = {
anchors = (
{
name = top;
position = "{264, 686}";
}
);
paths = (
{
closed = 1;
nodes = (
"10 183 LINE SMOOTH",
"10 57 OFFCURVE",
"94 -10 OFFCURVE",
"219 -10 CURVE SMOOTH",
"239 -10 LINE SMOOTH",
"363 -10 OFFCURVE",
"455 56 OFFCURVE",
"455 183 CURVE SMOOTH",
"455 686 LINE",
"304 686 LINE",
"304 187 LINE SMOOTH",
"304 142 OFFCURVE",
"272 113 OFFCURVE",
"228 113 CURVE SMOOTH",
"190 113 OFFCURVE",
"155 147 OFFCURVE",
"155 187 CURVE SMOOTH",
"155 228 LINE",
"10 228 LINE"
);
}
);
};
layerId = "D9505699-D8FA-43B1-90A1-014B81D3291F";
paths = (
{
closed = 1;
nodes = (
"10 183 LINE SMOOTH",
"10 57 OFFCURVE",
"94 -10 OFFCURVE",
"219 -10 CURVE SMOOTH",
"239 -10 LINE SMOOTH",
"363 -10 OFFCURVE",
"455 56 OFFCURVE",
"455 183 CURVE SMOOTH",
"455 686 LINE",
"304 686 LINE",
"304 187 LINE SMOOTH",
"304 142 OFFCURVE",
"272 113 OFFCURVE",
"228 113 CURVE SMOOTH",
"190 113 OFFCURVE",
"155 147 OFFCURVE",
"155 187 CURVE SMOOTH",
"155 228 LINE",
"10 228 LINE"
);
}
);
width = 527;
}
);
unicode = 004A;
},
{
glyphname = K;
lastChange = "2014-09-05 18:35:58 +0000";
layers = (
{
anchors = (
{
name = bottom;
position = "{330, 0}";
},
{
name = top;
position = "{330, 686}";
}
);
background = {
anchors = (
{
name = bottom;
position = "{330, 0}";
},
{
name = top;
position = "{330, 686}";
}
);
paths = (
{
closed = 1;
nodes = (
"72 0 LINE",
"223 0 LINE",
"223 179 LINE",
"312 278 LINE",
"475 0 LINE",
"650 0 LINE",
"570 132 OFFCURVE",
"492 264 OFFCURVE",
"412 397 CURVE",
"489 493 OFFCURVE",
"566 589 OFFCURVE",
"643 686 CURVE",
"470 686 LINE",
"388 581 OFFCURVE",
"305 476 OFFCURVE",
"223 372 CURVE",
"223 686 LINE",
"72 686 LINE"
);
}
);
};
layerId = "D9505699-D8FA-43B1-90A1-014B81D3291F";
paths = (
{
closed = 1;
nodes = (
"72 0 LINE",
"223 0 LINE",
"223 179 LINE",
"312 278 LINE",
"475 0 LINE",
"650 0 LINE",
"570 132 OFFCURVE",
"492 264 OFFCURVE",
"412 397 CURVE",
"489 493 OFFCURVE",
"566 589 OFFCURVE",
"643 686 CURVE",
"470 686 LINE",
"388 581 OFFCURVE",
"305 476 OFFCURVE",
"223 372 CURVE",
"223 686 LINE",
"72 686 LINE"
);
}
);
width = 660;
}
);
unicode = 004B;
},
{
glyphname = L;
lastChange = "2014-09-09 17:42:02 +0000";
layers = (
{
anchors = (
{
name = bottom;
position = "{267, 0}";
},
{
name = top;
position = "{177, 686}";
},
{
name = topright;
position = "{433, 686}";
}
);
background = {
anchors = (
{
name = bottom;
position = "{267, 0}";
},
{
name = top;
position = "{267, 686}";
},
{
name = topright;
position = "{513, 686}";
}
);
paths = (
{
closed = 1;
nodes = (
"526 0 LINE",
"509 128 LINE",
"227 128 LINE",
"227 686 LINE",
"72 686 LINE",
"72 0 LINE"
);
}
);
};
layerId = "D9505699-D8FA-43B1-90A1-014B81D3291F";
paths = (
{
closed = 1;
nodes = (
"526 0 LINE",
"509 128 LINE",
"227 128 LINE",
"227 686 LINE",
"72 686 LINE",
"72 0 LINE"
);
}
);
width = 533;
}
);
unicode = 004C;
},
{
glyphname = M;
lastChange = "2014-09-05 18:35:58 +0000";
layers = (
{
background = {
paths = (
{
closed = 1;
nodes = (
"894 0 LINE",
"894 686 LINE",
"645 686 LINE",
"485 233 LINE",
"481 233 LINE",
"321 686 LINE",
"72 686 LINE",
"72 0 LINE",
"212 0 LINE",
"212 505 LINE",
"217 505 LINE",
"395 0 LINE",
"557 0 LINE",
"735 505 LINE",
"740 505 LINE",
"740 0 LINE"
);
}
);
};
layerId = "D9505699-D8FA-43B1-90A1-014B81D3291F";
paths = (
{
closed = 1;
nodes = (
"894 0 LINE",
"894 686 LINE",
"645 686 LINE",
"485 233 LINE",
"481 233 LINE",
"321 686 LINE",
"72 686 LINE",
"72 0 LINE",
"212 0 LINE",
"212 505 LINE",
"217 505 LINE",
"395 0 LINE",
"557 0 LINE",
"735 505 LINE",
"740 505 LINE",
"740 0 LINE"
);
}
);
width = 967;
}
);
unicode = 004D;
},
{
glyphname = N;
lastChange = "2014-09-05 18:35:58 +0000";
layers = (
{
anchors = (
{
name = bottom;
position = "{346, 0}";
},
{
name = top;
position = "{346, 686}";
}
);
background = {
anchors = (
{
name = bottom;
position = "{346, 0}";
},
{
name = top;
position = "{346, 686}";
}
);
paths = (
{
closed = 1;
nodes = (
"618 0 LINE",
"618 686 LINE",
"477 686 LINE",
"477 283 LINE",
"474 280 LINE",
"455 309 OFFCURVE",
"438 340 OFFCURVE",
"419 368 CURVE SMOOTH",
"203 686 LINE",
"72 686 LINE",
"72 0 LINE",
"213 0 LINE",
"213 402 LINE",
"217 405 LINE",
"217 405 OFFCURVE",
"254 342 OFFCURVE",
"272 316 CURVE SMOOTH",
"487 0 LINE"
);
}
);
};
layerId = "D9505699-D8FA-43B1-90A1-014B81D3291F";
paths = (
{
closed = 1;
nodes = (
"618 0 LINE",
"618 686 LINE",
"477 686 LINE",
"477 283 LINE",
"474 280 LINE",
"455 309 OFFCURVE",
"438 340 OFFCURVE",
"419 368 CURVE SMOOTH",
"203 686 LINE",
"72 686 LINE",
"72 0 LINE",
"213 0 LINE",
"213 402 LINE",
"217 405 LINE",
"217 405 OFFCURVE",
"254 342 OFFCURVE",
"272 316 CURVE SMOOTH",
"487 0 LINE"
);
}
);
width = 691;
}
);
unicode = 004E;
},
{
glyphname = O;
lastChange = "2014-09-05 18:35:58 +0000";
layers = (
{
anchors = (
{
name = top;
position = "{354, 686}";
}
);
background = {
anchors = (
{
name = top;
position = "{354, 686}";
}
);
paths = (
{
closed = 1;
nodes = (
"660 392 LINE SMOOTH",
"660 587 OFFCURVE",
"521 696 OFFCURVE",
"354 696 CURVE SMOOTH",
"187 696 OFFCURVE",
"48 587 OFFCURVE",
"48 392 CURVE SMOOTH",
"48 294 LINE SMOOTH",
"48 99 OFFCURVE",
"187 -10 OFFCURVE",
"354 -10 CURVE SMOOTH",
"521 -10 OFFCURVE",
"660 99 OFFCURVE",
"660 294 CURVE SMOOTH"
);
},
{
closed = 1;
nodes = (
"498 272 LINE SMOOTH",
"498 167 OFFCURVE",
"436 113 OFFCURVE",
"354 113 CURVE SMOOTH",
"272 113 OFFCURVE",
"210 167 OFFCURVE",
"210 272 CURVE SMOOTH",
"210 414 LINE SMOOTH",
"210 519 OFFCURVE",
"272 573 OFFCURVE",
"354 573 CURVE SMOOTH",
"436 573 OFFCURVE",
"498 519 OFFCURVE",
"498 414 CURVE SMOOTH"
);
}
);
};
layerId = "D9505699-D8FA-43B1-90A1-014B81D3291F";
paths = (
{
closed = 1;
nodes = (
"660 392 LINE SMOOTH",
"660 587 OFFCURVE",
"521 696 OFFCURVE",
"354 696 CURVE SMOOTH",
"187 696 OFFCURVE",
"48 587 OFFCURVE",
"48 392 CURVE SMOOTH",
"48 294 LINE SMOOTH",
"48 99 OFFCURVE",
"187 -10 OFFCURVE",
"354 -10 CURVE SMOOTH",
"521 -10 OFFCURVE",
"660 99 OFFCURVE",
"660 294 CURVE SMOOTH"
);
},
{
closed = 1;
nodes = (
"498 272 LINE SMOOTH",
"498 167 OFFCURVE",
"436 113 OFFCURVE",
"354 113 CURVE SMOOTH",
"272 113 OFFCURVE",
"210 167 OFFCURVE",
"210 272 CURVE SMOOTH",
"210 414 LINE SMOOTH",
"210 519 OFFCURVE",
"272 573 OFFCURVE",
"354 573 CURVE SMOOTH",
"436 573 OFFCURVE",
"498 519 OFFCURVE",
"498 414 CURVE SMOOTH"
);
}
);
width = 708;
}
);
unicode = 004F;
},
{
glyphname = P;
lastChange = "2014-09-05 18:35:58 +0000";
layers = (
{
background = {
paths = (
{
closed = 1;
nodes = (
"367 563 LINE SMOOTH",
"420 563 OFFCURVE",
"455 522 OFFCURVE",
"455 477 CURVE SMOOTH",
"455 471 LINE SMOOTH",
"455 427 OFFCURVE",
"419 386 OFFCURVE",
"367 386 CURVE SMOOTH",
"226 386 LINE",
"226 563 LINE"
);
},
{
closed = 1;
nodes = (
"403 265 LINE SMOOTH",
"520 265 OFFCURVE",
"610 359 OFFCURVE",
"610 475 CURVE SMOOTH",
"610 481 LINE SMOOTH",
"610 599 OFFCURVE",
"517 686 OFFCURVE",
"403 686 CURVE SMOOTH",
"72 686 LINE",
"72 0 LINE",
"226 0 LINE",
"226 265 LINE"
);
}
);
};
layerId = "D9505699-D8FA-43B1-90A1-014B81D3291F";
paths = (
{
closed = 1;
nodes = (
"367 563 LINE SMOOTH",
"420 563 OFFCURVE",
"455 522 OFFCURVE",
"455 477 CURVE SMOOTH",
"455 471 LINE SMOOTH",
"455 427 OFFCURVE",
"419 386 OFFCURVE",
"367 386 CURVE SMOOTH",
"226 386 LINE",
"226 563 LINE"
);
},
{
closed = 1;
nodes = (
"403 265 LINE SMOOTH",
"520 265 OFFCURVE",
"610 359 OFFCURVE",
"610 475 CURVE SMOOTH",
"610 481 LINE SMOOTH",
"610 599 OFFCURVE",
"517 686 OFFCURVE",
"403 686 CURVE SMOOTH",
"72 686 LINE",
"72 0 LINE",
"226 0 LINE",
"226 265 LINE"
);
}
);
width = 629;
}
);
unicode = 0050;
},
{
glyphname = Q;
lastChange = "2014-09-05 18:35:58 +0000";
layers = (
{
background = {
paths = (
{
closed = 1;
nodes = (
"660 392 LINE SMOOTH",
"660 587 OFFCURVE",
"521 696 OFFCURVE",
"354 696 CURVE SMOOTH",
"187 696 OFFCURVE",
"48 587 OFFCURVE",
"48 392 CURVE SMOOTH",
"48 294 LINE SMOOTH",
"48 124 OFFCURVE",
"153 20 OFFCURVE",
"290 -4 CURVE",
"304 -71 OFFCURVE",
"361 -153 OFFCURVE",
"498 -153 CURVE SMOOTH",
"590 -153 OFFCURVE",
"655 -116 OFFCURVE",
"655 -116 CURVE",
"655 -28 LINE",
"655 -29 OFFCURVE",
"580 -54 OFFCURVE",
"533 -54 CURVE SMOOTH",
"478 -54 OFFCURVE",
"453 -25 OFFCURVE",
"443 1 CURVE",
"568 34 OFFCURVE",
"660 135 OFFCURVE",
"660 294 CURVE SMOOTH"
);
},
{
closed = 1;
nodes = (
"498 272 LINE SMOOTH",
"498 167 OFFCURVE",
"436 113 OFFCURVE",
"354 113 CURVE SMOOTH",
"272 113 OFFCURVE",
"210 167 OFFCURVE",
"210 272 CURVE SMOOTH",
"210 414 LINE SMOOTH",
"210 519 OFFCURVE",
"272 573 OFFCURVE",
"354 573 CURVE SMOOTH",
"436 573 OFFCURVE",
"498 519 OFFCURVE",
"498 414 CURVE SMOOTH"
);
}
);
};
layerId = "D9505699-D8FA-43B1-90A1-014B81D3291F";
paths = (
{
closed = 1;
nodes = (
"660 392 LINE SMOOTH",
"660 587 OFFCURVE",
"521 696 OFFCURVE",
"354 696 CURVE SMOOTH",
"187 696 OFFCURVE",
"48 587 OFFCURVE",
"48 392 CURVE SMOOTH",
"48 294 LINE SMOOTH",
"48 124 OFFCURVE",
"153 20 OFFCURVE",
"290 -4 CURVE",
"304 -71 OFFCURVE",
"361 -153 OFFCURVE",
"498 -153 CURVE SMOOTH",
"590 -153 OFFCURVE",
"655 -116 OFFCURVE",
"655 -116 CURVE",
"655 -28 LINE",
"655 -29 OFFCURVE",
"580 -54 OFFCURVE",
"533 -54 CURVE SMOOTH",
"478 -54 OFFCURVE",
"453 -25 OFFCURVE",
"443 1 CURVE",
"568 34 OFFCURVE",
"660 135 OFFCURVE",
"660 294 CURVE SMOOTH"
);
},
{
closed = 1;
nodes = (
"498 272 LINE SMOOTH",
"498 167 OFFCURVE",
"436 113 OFFCURVE",
"354 113 CURVE SMOOTH",
"272 113 OFFCURVE",
"210 167 OFFCURVE",
"210 272 CURVE SMOOTH",
"210 414 LINE SMOOTH",
"210 519 OFFCURVE",
"272 573 OFFCURVE",
"354 573 CURVE SMOOTH",
"436 573 OFFCURVE",
"498 519 OFFCURVE",
"498 414 CURVE SMOOTH"
);
}
);
width = 708;
}
);
unicode = 0051;
},
{
glyphname = R;
lastChange = "2014-09-05 18:35:58 +0000";
layers = (
{
anchors = (
{
name = bottom;
position = "{333, 0}";
},
{
name = top;
position = "{333, 686}";
}
);
background = {
anchors = (
{
name = bottom;
position = "{333, 0}";
},
{
name = top;
position = "{333, 686}";
}
);
paths = (
{
closed = 1;
nodes = (
"648 40 LINE",
"603 54 OFFCURVE",
"597 122 OFFCURVE",
"597 166 CURVE SMOOTH",
"597 279 OFFCURVE",
"536 333 OFFCURVE",
"487 349 CURVE",
"487 354 LINE",
"557 367 OFFCURVE",
"610 443 OFFCURVE",
"610 516 CURVE SMOOTH",
"610 646 OFFCURVE",
"492 686 OFFCURVE",
"379 686 CURVE SMOOTH",
"72 686 LINE",
"72 0 LINE",
"224 0 LINE",
"224 284 LINE",
"340 284 LINE SMOOTH",
"429 284 OFFCURVE",
"447 202 OFFCURVE",
"447 102 CURVE SMOOTH",
"447 17 OFFCURVE",
"503 -7 OFFCURVE",
"562 -7 CURVE SMOOTH",
"591 -7 OFFCURVE",
"625 -3 OFFCURVE",
"648 6 CURVE"
);
},
{
closed = 1;
nodes = (
"224 405 LINE",
"224 563 LINE",
"374 563 LINE SMOOTH",
"421 563 OFFCURVE",
"454 530 OFFCURVE",
"454 487 CURVE SMOOTH",
"454 480 LINE SMOOTH",
"454 438 OFFCURVE",
"418 405 OFFCURVE",
"374 405 CURVE SMOOTH"
);
}
);
};
layerId = "D9505699-D8FA-43B1-90A1-014B81D3291F";
paths = (
{
closed = 1;
nodes = (
"648 40 LINE",
"603 54 OFFCURVE",
"597 122 OFFCURVE",
"597 166 CURVE SMOOTH",
"597 279 OFFCURVE",
"536 333 OFFCURVE",
"487 349 CURVE",
"487 354 LINE",
"557 367 OFFCURVE",
"610 443 OFFCURVE",
"610 516 CURVE SMOOTH",
"610 646 OFFCURVE",
"492 686 OFFCURVE",
"379 686 CURVE SMOOTH",
"72 686 LINE",
"72 0 LINE",
"224 0 LINE",
"224 284 LINE",
"340 284 LINE SMOOTH",
"429 284 OFFCURVE",
"447 202 OFFCURVE",
"447 102 CURVE SMOOTH",
"447 17 OFFCURVE",
"503 -7 OFFCURVE",
"562 -7 CURVE SMOOTH",
"591 -7 OFFCURVE",
"625 -3 OFFCURVE",
"648 6 CURVE"
);
},
{
closed = 1;
nodes = (
"224 405 LINE",
"224 563 LINE",
"374 563 LINE SMOOTH",
"421 563 OFFCURVE",
"454 530 OFFCURVE",
"454 487 CURVE SMOOTH",
"454 480 LINE SMOOTH",
"454 438 OFFCURVE",
"418 405 OFFCURVE",
"374 405 CURVE SMOOTH"
);
}
);
width = 665;
}
);
unicode = 0052;
},
{
glyphname = S;
lastChange = "2014-09-05 18:35:58 +0000";
layers = (
{
anchors = (
{
name = bottom;
position = "{318, 0}";
},
{
name = top;
position = "{318, 686}";
}
);
background = {
anchors = (
{
name = bottom;
position = "{318, 0}";
},
{
name = top;
position = "{318, 686}";
}
);
paths = (
{
closed = 1;
nodes = (
"580 483 LINE",
"580 495 LINE SMOOTH",
"580 635 OFFCURVE",
"462 696 OFFCURVE",
"319 696 CURVE SMOOTH",
"174 696 OFFCURVE",
"51 630 OFFCURVE",
"51 493 CURVE SMOOTH",
"51 231 OFFCURVE",
"438 323 OFFCURVE",
"438 191 CURVE SMOOTH",
"438 152 OFFCURVE",
"408 113 OFFCURVE",
"307 113 CURVE SMOOTH",
"225 113 OFFCURVE",
"181 151 OFFCURVE",
"181 208 CURVE SMOOTH",
"181 213 OFFCURVE",
"182 222 OFFCURVE",
"182 224 CURVE",
"36 224 LINE",
"36 219 OFFCURVE",
"35 210 OFFCURVE",
"35 202 CURVE SMOOTH",
"35 51 OFFCURVE",
"165 -10 OFFCURVE",
"312 -10 CURVE SMOOTH",
"478 -10 OFFCURVE",
"595 53 OFFCURVE",
"595 216 CURVE SMOOTH",
"595 466 OFFCURVE",
"206 379 OFFCURVE",
"206 509 CURVE SMOOTH",
"206 547 OFFCURVE",
"248 573 OFFCURVE",
"322 573 CURVE SMOOTH",
"393 573 OFFCURVE",
"435 542 OFFCURVE",
"435 492 CURVE SMOOTH",
"435 483 LINE"
);
}
);
};
layerId = "D9505699-D8FA-43B1-90A1-014B81D3291F";
paths = (
{
closed = 1;
nodes = (
"580 483 LINE",
"580 495 LINE SMOOTH",
"580 635 OFFCURVE",
"462 696 OFFCURVE",
"319 696 CURVE SMOOTH",
"174 696 OFFCURVE",
"51 630 OFFCURVE",
"51 493 CURVE SMOOTH",
"51 231 OFFCURVE",
"438 323 OFFCURVE",
"438 191 CURVE SMOOTH",
"438 152 OFFCURVE",
"408 113 OFFCURVE",
"307 113 CURVE SMOOTH",
"225 113 OFFCURVE",
"181 151 OFFCURVE",
"181 208 CURVE SMOOTH",
"181 213 OFFCURVE",
"182 222 OFFCURVE",
"182 224 CURVE",
"36 224 LINE",
"36 219 OFFCURVE",
"35 210 OFFCURVE",
"35 202 CURVE SMOOTH",
"35 51 OFFCURVE",
"165 -10 OFFCURVE",
"312 -10 CURVE SMOOTH",
"478 -10 OFFCURVE",
"595 53 OFFCURVE",
"595 216 CURVE SMOOTH",
"595 466 OFFCURVE",
"206 379 OFFCURVE",
"206 509 CURVE SMOOTH",
"206 547 OFFCURVE",
"248 573 OFFCURVE",
"322 573 CURVE SMOOTH",
"393 573 OFFCURVE",
"435 542 OFFCURVE",
"435 492 CURVE SMOOTH",
"435 483 LINE"
);
}
);
width = 635;
}
);
unicode = 0053;
},
{
glyphname = T;
lastChange = "2014-09-05 18:35:58 +0000";
layers = (
{
anchors = (
{
name = bottom;
position = "{279, 0}";
},
{
name = center;
position = "{279, 343}";
},
{
name = top;
position = "{279, 686}";
}
);
background = {
anchors = (
{
name = bottom;
position = "{279, 0}";
},
{
name = center;
position = "{279, 343}";
},
{
name = top;
position = "{279, 686}";
}
);
paths = (
{
closed = 1;
nodes = (
"549 562 LINE",
"549 686 LINE",
"7 686 LINE",
"7 562 LINE",
"202 562 LINE",
"202 0 LINE",
"355 0 LINE",
"355 562 LINE"
);
}
);
};
layerId = "D9505699-D8FA-43B1-90A1-014B81D3291F";
paths = (
{
closed = 1;
nodes = (
"549 562 LINE",
"549 686 LINE",
"7 686 LINE",
"7 562 LINE",
"202 562 LINE",
"202 0 LINE",
"355 0 LINE",
"355 562 LINE"
);
}
);
width = 557;
}
);
unicode = 0054;
},
{
glyphname = U;
lastChange = "2014-09-05 18:51:09 +0000";
layers = (
{
anchors = (
{
name = ogonek;
position = "{446, 10}";
},
{
name = top;
position = "{337, 686}";
}
);
background = {
anchors = (
{
name = ogonek;
position = "{606, 10}";
},
{
name = top;
position = "{337, 686}";
}
);
paths = (
{
closed = 1;
nodes = (
"609 686 LINE",
"455 686 LINE",
"455 221 LINE SMOOTH",
"455 157 OFFCURVE",
"408 112 OFFCURVE",
"337 112 CURVE SMOOTH",
"267 112 OFFCURVE",
"218 158 OFFCURVE",
"218 221 CURVE SMOOTH",
"218 686 LINE",
"64 686 LINE",
"64 218 LINE SMOOTH",
"64 80 OFFCURVE",
"166 -10 OFFCURVE",
"322 -10 CURVE SMOOTH",
"350 -10 LINE SMOOTH",
"506 -10 OFFCURVE",
"609 80 OFFCURVE",
"609 218 CURVE SMOOTH"
);
}
);
};
layerId = "D9505699-D8FA-43B1-90A1-014B81D3291F";
paths = (
{
closed = 1;
nodes = (
"609 686 LINE",
"455 686 LINE",
"455 221 LINE SMOOTH",
"455 157 OFFCURVE",
"408 112 OFFCURVE",
"337 112 CURVE SMOOTH",
"267 112 OFFCURVE",
"218 158 OFFCURVE",
"218 221 CURVE SMOOTH",
"218 686 LINE",
"64 686 LINE",
"64 218 LINE SMOOTH",
"64 80 OFFCURVE",
"166 -10 OFFCURVE",
"322 -10 CURVE SMOOTH",
"350 -10 LINE SMOOTH",
"506 -10 OFFCURVE",
"609 80 OFFCURVE",
"609 218 CURVE SMOOTH"
);
}
);
width = 673;
}
);
unicode = 0055;
},
{
glyphname = V;
lastChange = "2014-09-05 18:35:58 +0000";
layers = (
{
background = {
paths = (
{
closed = 1;
nodes = (
"325 196 LINE",
"169 686 LINE",
"7 686 LINE",
"232 0 LINE",
"409 0 LINE",
"635 686 LINE",
"487 686 LINE",
"330 196 LINE"
);
}
);
};
layerId = "D9505699-D8FA-43B1-90A1-014B81D3291F";
paths = (
{
closed = 1;
nodes = (
"325 196 LINE",
"169 686 LINE",
"7 686 LINE",
"232 0 LINE",
"409 0 LINE",
"635 686 LINE",
"487 686 LINE",
"330 196 LINE"
);
}
);
width = 643;
}
);
unicode = 0056;
},
{
glyphname = W;
lastChange = "2014-09-05 18:35:58 +0000";
layers = (
{
anchors = (
{
name = top;
position = "{486, 686}";
}
);
background = {
anchors = (
{
name = top;
position = "{486, 686}";
}
);
paths = (
{
closed = 1;
nodes = (
"490 412 LINE",
"602 0 LINE",
"771 0 LINE",
"964 686 LINE",
"818 686 LINE",
"778 536 OFFCURVE",
"737 386 OFFCURVE",
"697 237 CURVE",
"692 237 LINE",
"652 386 OFFCURVE",
"611 536 OFFCURVE",
"571 686 CURVE",
"416 686 LINE",
"375 536 OFFCURVE",
"335 386 OFFCURVE",
"294 237 CURVE",
"289 237 LINE",
"249 386 OFFCURVE",
"208 536 OFFCURVE",
"168 686 CURVE",
"7 686 LINE",
"199 0 LINE",
"370 0 LINE",
"484 412 LINE"
);
}
);
};
layerId = "D9505699-D8FA-43B1-90A1-014B81D3291F";
paths = (
{
closed = 1;
nodes = (
"490 412 LINE",
"602 0 LINE",
"771 0 LINE",
"964 686 LINE",
"818 686 LINE",
"778 536 OFFCURVE",
"737 386 OFFCURVE",
"697 237 CURVE",
"692 237 LINE",
"652 386 OFFCURVE",
"611 536 OFFCURVE",
"571 686 CURVE",
"416 686 LINE",
"375 536 OFFCURVE",
"335 386 OFFCURVE",
"294 237 CURVE",
"289 237 LINE",
"249 386 OFFCURVE",
"208 536 OFFCURVE",
"168 686 CURVE",
"7 686 LINE",
"199 0 LINE",
"370 0 LINE",
"484 412 LINE"
);
}
);
width = 972;
}
);
unicode = 0057;
},
{
glyphname = X;
lastChange = "2014-09-05 18:35:58 +0000";
layers = (
{
background = {
paths = (
{
closed = 1;
nodes = (
"167 0 LINE",
"186 35 OFFCURVE",
"251 137 OFFCURVE",
"321 245 CURVE",
"325 245 LINE",
"477 0 LINE",
"658 0 LINE",
"658 0 OFFCURVE",
"504 242 OFFCURVE",
"426 362 CURVE",
"517 499 OFFCURVE",
"637 686 OFFCURVE",
"637 686 CURVE SMOOTH",
"470 686 LINE",
"454 657 OFFCURVE",
"400 571 OFFCURVE",
"337 476 CURVE",
"333 476 LINE",
"203 686 LINE",
"22 686 LINE",
"232 360 LINE",
"155 240 OFFCURVE",
"0 0 OFFCURVE",
"0 0 CURVE"
);
}
);
};
layerId = "D9505699-D8FA-43B1-90A1-014B81D3291F";
paths = (
{
closed = 1;
nodes = (
"167 0 LINE",
"186 35 OFFCURVE",
"251 137 OFFCURVE",
"321 245 CURVE",
"325 245 LINE",
"477 0 LINE",
"658 0 LINE",
"658 0 OFFCURVE",
"504 242 OFFCURVE",
"426 362 CURVE",
"517 499 OFFCURVE",
"637 686 OFFCURVE",
"637 686 CURVE SMOOTH",
"470 686 LINE",
"454 657 OFFCURVE",
"400 571 OFFCURVE",
"337 476 CURVE",
"333 476 LINE",
"203 686 LINE",
"22 686 LINE",
"232 360 LINE",
"155 240 OFFCURVE",
"0 0 OFFCURVE",
"0 0 CURVE"
);
}
);
width = 658;
}
);
unicode = 0058;
},
{
glyphname = Y;
lastChange = "2014-09-05 18:35:58 +0000";
layers = (
{
anchors = (
{
name = top;
position = "{319, 686}";
}
);
background = {
anchors = (
{
name = top;
position = "{319, 686}";
}
);
paths = (
{
closed = 1;
nodes = (
"630 686 LINE",
"472 686 LINE",
"329 414 LINE",
"324 414 LINE",
"181 686 LINE",
"7 686 LINE",
"242 263 LINE",
"242 0 LINE",
"396 0 LINE",
"396 263 LINE"
);
}
);
};
layerId = "D9505699-D8FA-43B1-90A1-014B81D3291F";
paths = (
{
closed = 1;
nodes = (
"630 686 LINE",
"472 686 LINE",
"329 414 LINE",
"324 414 LINE",
"181 686 LINE",
"7 686 LINE",
"242 263 LINE",
"242 0 LINE",
"396 0 LINE",
"396 263 LINE"
);
}
);
width = 637;
}
);
unicode = 0059;
},
{
glyphname = Z;
lastChange = "2014-09-05 18:35:58 +0000";
layers = (
{
anchors = (
{
name = top;
position = "{316, 686}";
}
);
background = {
anchors = (
{
name = top;
position = "{316, 686}";
}
);
paths = (
{
closed = 1;
nodes = (
"589 0 LINE",
"589 123 LINE",
"266 123 LINE",
"581 636 LINE",
"581 686 LINE",
"66 686 LINE",
"66 563 LINE",
"358 563 LINE",
"42 49 LINE",
"42 0 LINE"
);
}
);
};
layerId = "D9505699-D8FA-43B1-90A1-014B81D3291F";
paths = (
{
closed = 1;
nodes = (
"589 0 LINE",
"589 123 LINE",
"266 123 LINE",
"581 636 LINE",
"581 686 LINE",
"66 686 LINE",
"66 563 LINE",
"358 563 LINE",
"42 49 LINE",
"42 0 LINE"
);
}
);
width = 631;
}
);
unicode = 005A;
},
{
glyphname = bracketleft;
lastChange = "2014-09-05 18:35:58 +0000";
layers = (
{
background = {
paths = (
{
closed = 1;
nodes = (
"265 -161 LINE",
"265 -92 LINE",
"177 -92 LINE",
"177 617 LINE",
"265 617 LINE",
"265 686 LINE",
"62 686 LINE",
"62 -161 LINE"
);
}
);
};
layerId = "D9505699-D8FA-43B1-90A1-014B81D3291F";
paths = (
{
closed = 1;
nodes = (
"265 -161 LINE",
"265 -92 LINE",
"177 -92 LINE",
"177 617 LINE",
"265 617 LINE",
"265 686 LINE",
"62 686 LINE",
"62 -161 LINE"
);
}
);
width = 338;
}
);
unicode = 005B;
},
{
glyphname = backslash;
lastChange = "2014-09-05 18:35:58 +0000";
layers = (
{
background = {
paths = (
{
closed = 1;
nodes = (
"478 -171 LINE",
"585 -171 LINE",
"95 686 LINE",
"-11 686 LINE"
);
}
);
};
layerId = "D9505699-D8FA-43B1-90A1-014B81D3291F";
paths = (
{
closed = 1;
nodes = (
"478 -171 LINE",
"585 -171 LINE",
"95 686 LINE",
"-11 686 LINE"
);
}
);
width = 560;
}
);
unicode = 005C;
},
{
glyphname = bracketright;
lastChange = "2014-09-05 18:35:58 +0000";
layers = (
{
background = {
paths = (
{
closed = 1;
nodes = (
"274 -161 LINE",
"274 686 LINE",
"71 686 LINE",
"71 617 LINE",
"159 617 LINE",
"159 -92 LINE",
"71 -92 LINE",
"71 -161 LINE"
);
}
);
};
layerId = "D9505699-D8FA-43B1-90A1-014B81D3291F";
paths = (
{
closed = 1;
nodes = (
"274 -161 LINE",
"274 686 LINE",
"71 686 LINE",
"71 617 LINE",
"159 617 LINE",
"159 -92 LINE",
"71 -92 LINE",
"71 -161 LINE"
);
}
);
width = 338;
}
);
unicode = 005D;
},
{
glyphname = asciicircum;
lastChange = "2014-09-05 18:35:58 +0000";
layers = (
{
background = {
paths = (
{
closed = 1;
nodes = (
"238 511 LINE",
"41 0 LINE",
"153 0 LINE",
"202 128 OFFCURVE",
"250 256 OFFCURVE",
"299 385 CURVE",
"347 256 OFFCURVE",
"396 128 OFFCURVE",
"445 0 CURVE",
"556 0 LINE",
"359 511 LINE"
);
}
);
};
layerId = "D9505699-D8FA-43B1-90A1-014B81D3291F";
paths = (
{
closed = 1;
nodes = (
"238 511 LINE",
"41 0 LINE",
"153 0 LINE",
"202 128 OFFCURVE",
"250 256 OFFCURVE",
"299 385 CURVE",
"347 256 OFFCURVE",
"396 128 OFFCURVE",
"445 0 CURVE",
"556 0 LINE",
"359 511 LINE"
);
}
);
width = 598;
}
);
unicode = 005E;
},
{
glyphname = underscore;
lastChange = "2014-09-05 18:35:58 +0000";
layers = (
{
background = {
paths = (
{
closed = 1;
nodes = (
"500 -126 LINE",
"500 -65 LINE",
"0 -65 LINE",
"0 -126 LINE"
);
}
);
};
layerId = "D9505699-D8FA-43B1-90A1-014B81D3291F";
paths = (
{
closed = 1;
nodes = (
"500 -126 LINE",
"500 -65 LINE",
"0 -65 LINE",
"0 -126 LINE"
);
}
);
width = 500;
}
);
unicode = 005F;
},
{
glyphname = grave;
lastChange = "2014-09-05 18:48:58 +0000";
layers = (
{
anchors = (
{
name = _top;
position = "{192, 511}";
}
);
background = {
anchors = (
{
name = _top;
position = "{162, 511}";
}
);
paths = (
{
closed = 1;
nodes = (
"273 575 LINE",
"180 720 LINE",
"52 720 LINE",
"51 717 LINE",
"171 575 LINE"
);
}
);
};
layerId = "D9505699-D8FA-43B1-90A1-014B81D3291F";
paths = (
{
closed = 1;
nodes = (
"273 575 LINE",
"180 720 LINE",
"52 720 LINE",
"51 717 LINE",
"171 575 LINE"
);
}
);
width = 333;
}
);
unicode = 0060;
},
{
glyphname = a;
lastChange = "2014-09-05 18:35:58 +0000";
layers = (
{
anchors = (
{
name = ogonek;
position = "{538, 10}";
},
{
name = top;
position = "{299, 511}";
}
);
background = {
anchors = (
{
name = ogonek;
position = "{538, 10}";
},
{
name = top;
position = "{299, 511}";
}
);
paths = (
{
closed = 1;
nodes = (
"379 202 LINE SMOOTH",
"379 134 OFFCURVE",
"316 90 OFFCURVE",
"266 90 CURVE SMOOTH",
"217 90 OFFCURVE",
"191 105 OFFCURVE",
"191 150 CURVE SMOOTH",
"191 208 OFFCURVE",
"256 229 OFFCURVE",
"379 229 CURVE"
);
},
{
closed = 1;
nodes = (
"379 311 LINE",
"174 311 OFFCURVE",
"40 286 OFFCURVE",
"40 139 CURVE SMOOTH",
"40 11 OFFCURVE",
"132 -10 OFFCURVE",
"214 -10 CURVE SMOOTH",
"296 -10 OFFCURVE",
"351 33 OFFCURVE",
"386 76 CURVE",
"392 24 OFFCURVE",
"428 -10 OFFCURVE",
"504 -10 CURVE SMOOTH",
"554 -10 OFFCURVE",
"585 7 OFFCURVE",
"592 11 CURVE",
"592 101 LINE",
"586 98 OFFCURVE",
"566 90 OFFCURVE",
"551 90 CURVE SMOOTH",
"537 90 OFFCURVE",
"522 100 OFFCURVE",
"522 126 CURVE SMOOTH",
"522 362 LINE SMOOTH",
"522 457 OFFCURVE",
"450 521 OFFCURVE",
"302 521 CURVE SMOOTH",
"281 521 LINE SMOOTH",
"147 521 OFFCURVE",
"56 458 OFFCURVE",
"56 372 CURVE SMOOTH",
"56 365 OFFCURVE",
"57 360 OFFCURVE",
"58 354 CURVE",
"199 354 LINE",
"199 362 LINE SMOOTH",
"199 385 OFFCURVE",
"229 421 OFFCURVE",
"288 421 CURVE SMOOTH",
"356 421 OFFCURVE",
"379 387 OFFCURVE",
"379 345 CURVE SMOOTH"
);
}
);
};
layerId = "D9505699-D8FA-43B1-90A1-014B81D3291F";
paths = (
{
closed = 1;
nodes = (
"379 202 LINE SMOOTH",
"379 134 OFFCURVE",
"316 90 OFFCURVE",
"266 90 CURVE SMOOTH",
"217 90 OFFCURVE",
"191 105 OFFCURVE",
"191 150 CURVE SMOOTH",
"191 208 OFFCURVE",
"256 229 OFFCURVE",
"379 229 CURVE"
);
},
{
closed = 1;
nodes = (
"379 311 LINE",
"174 311 OFFCURVE",
"40 286 OFFCURVE",
"40 139 CURVE SMOOTH",
"40 11 OFFCURVE",
"132 -10 OFFCURVE",
"214 -10 CURVE SMOOTH",
"296 -10 OFFCURVE",
"351 33 OFFCURVE",
"386 76 CURVE",
"392 24 OFFCURVE",
"428 -10 OFFCURVE",
"504 -10 CURVE SMOOTH",
"554 -10 OFFCURVE",
"585 7 OFFCURVE",
"592 11 CURVE",
"592 101 LINE",
"586 98 OFFCURVE",
"566 90 OFFCURVE",
"551 90 CURVE SMOOTH",
"537 90 OFFCURVE",
"522 100 OFFCURVE",
"522 126 CURVE SMOOTH",
"522 362 LINE SMOOTH",
"522 457 OFFCURVE",
"450 521 OFFCURVE",
"302 521 CURVE SMOOTH",
"281 521 LINE SMOOTH",
"147 521 OFFCURVE",
"56 458 OFFCURVE",
"56 372 CURVE SMOOTH",
"56 365 OFFCURVE",
"57 360 OFFCURVE",
"58 354 CURVE",
"199 354 LINE",
"199 362 LINE SMOOTH",
"199 385 OFFCURVE",
"229 421 OFFCURVE",
"288 421 CURVE SMOOTH",
"356 421 OFFCURVE",
"379 387 OFFCURVE",
"379 345 CURVE SMOOTH"
);
}
);
width = 598;
}
);
unicode = 0061;
},
{
glyphname = b;
lastChange = "2014-09-05 18:35:58 +0000";
layers = (
{
background = {
paths = (
{
closed = 1;
nodes = (
"212 720 LINE",
"66 720 LINE",
"66 0 LINE",
"119 0 LINE",
"136 25 OFFCURVE",
"153 52 OFFCURVE",
"170 78 CURVE",
"208 21 OFFCURVE",
"266 -10 OFFCURVE",
"340 -10 CURVE SMOOTH",
"457 -10 OFFCURVE",
"552 73 OFFCURVE",
"552 253 CURVE SMOOTH",
"552 264 LINE SMOOTH",
"552 435 OFFCURVE",
"464 521 OFFCURVE",
"355 521 CURVE SMOOTH",
"285 521 OFFCURVE",
"237 485 OFFCURVE",
"212 452 CURVE"
);
},
{
closed = 1;
nodes = (
"404 211 LINE SMOOTH",
"404 130 OFFCURVE",
"362 90 OFFCURVE",
"308 90 CURVE SMOOTH",
"254 90 OFFCURVE",
"212 130 OFFCURVE",
"212 211 CURVE SMOOTH",
"212 294 LINE SMOOTH",
"212 375 OFFCURVE",
"254 415 OFFCURVE",
"308 415 CURVE SMOOTH",
"362 415 OFFCURVE",
"404 375 OFFCURVE",
"404 294 CURVE SMOOTH"
);
}
);
};
layerId = "D9505699-D8FA-43B1-90A1-014B81D3291F";
paths = (
{
closed = 1;
nodes = (
"212 720 LINE",
"66 720 LINE",
"66 0 LINE",
"119 0 LINE",
"136 25 OFFCURVE",
"153 52 OFFCURVE",
"170 78 CURVE",
"208 21 OFFCURVE",
"266 -10 OFFCURVE",
"340 -10 CURVE SMOOTH",
"457 -10 OFFCURVE",
"552 73 OFFCURVE",
"552 253 CURVE SMOOTH",
"552 264 LINE SMOOTH",
"552 435 OFFCURVE",
"464 521 OFFCURVE",
"355 521 CURVE SMOOTH",
"285 521 OFFCURVE",
"237 485 OFFCURVE",
"212 452 CURVE"
);
},
{
closed = 1;
nodes = (
"404 211 LINE SMOOTH",
"404 130 OFFCURVE",
"362 90 OFFCURVE",
"308 90 CURVE SMOOTH",
"254 90 OFFCURVE",
"212 130 OFFCURVE",
"212 211 CURVE SMOOTH",
"212 294 LINE SMOOTH",
"212 375 OFFCURVE",
"254 415 OFFCURVE",
"308 415 CURVE SMOOTH",
"362 415 OFFCURVE",
"404 375 OFFCURVE",
"404 294 CURVE SMOOTH"
);
}
);
width = 595;
}
);
unicode = 0062;
},
{
glyphname = c;
lastChange = "2014-09-05 18:35:58 +0000";
layers = (
{
anchors = (
{
name = bottom;
position = "{284, 0}";
},
{
name = top;
position = "{284, 511}";
}
);
background = {
anchors = (
{
name = bottom;
position = "{284, 0}";
},
{
name = top;
position = "{284, 511}";
}
);
paths = (
{
closed = 1;
nodes = (
"191 296 LINE SMOOTH",
"191 365 OFFCURVE",
"226 421 OFFCURVE",
"288 421 CURVE SMOOTH",
"350 421 OFFCURVE",
"379 373 OFFCURVE",
"379 307 CURVE",
"524 307 LINE",
"524 444 OFFCURVE",
"419 521 OFFCURVE",
"303 521 CURVE SMOOTH",
"287 521 LINE SMOOTH",
"146 521 OFFCURVE",
"43 429 OFFCURVE",
"43 270 CURVE SMOOTH",
"43 241 LINE SMOOTH",
"43 82 OFFCURVE",
"139 -10 OFFCURVE",
"287 -10 CURVE SMOOTH",
"303 -10 LINE SMOOTH",
"418 -10 OFFCURVE",
"524 55 OFFCURVE",
"524 203 CURVE",
"386 203 LINE",
"386 127 OFFCURVE",
"347 90 OFFCURVE",
"287 90 CURVE SMOOTH",
"226 90 OFFCURVE",
"191 142 OFFCURVE",
"191 207 CURVE SMOOTH"
);
}
);
};
layerId = "D9505699-D8FA-43B1-90A1-014B81D3291F";
paths = (
{
closed = 1;
nodes = (
"191 296 LINE SMOOTH",
"191 365 OFFCURVE",
"226 421 OFFCURVE",
"288 421 CURVE SMOOTH",
"350 421 OFFCURVE",
"379 373 OFFCURVE",
"379 307 CURVE",
"524 307 LINE",
"524 444 OFFCURVE",
"419 521 OFFCURVE",
"303 521 CURVE SMOOTH",
"287 521 LINE SMOOTH",
"146 521 OFFCURVE",
"43 429 OFFCURVE",
"43 270 CURVE SMOOTH",
"43 241 LINE SMOOTH",
"43 82 OFFCURVE",
"139 -10 OFFCURVE",
"287 -10 CURVE SMOOTH",
"303 -10 LINE SMOOTH",
"418 -10 OFFCURVE",
"524 55 OFFCURVE",
"524 203 CURVE",
"386 203 LINE",
"386 127 OFFCURVE",
"347 90 OFFCURVE",
"287 90 CURVE SMOOTH",
"226 90 OFFCURVE",
"191 142 OFFCURVE",
"191 207 CURVE SMOOTH"
);
}
);
width = 567;
}
);
unicode = 0063;
},
{
glyphname = d;
lastChange = "2014-09-08 21:30:21 +0000";
layers = (
{
anchors = (
{
name = center;
position = "{298, 256}";
},
{
name = topright;
position = "{665, 686}";
}
);
background = {
anchors = (
{
name = center;
position = "{298, 256}";
},
{
name = topright;
position = "{575, 511}";
}
);
paths = (
{
closed = 1;
nodes = (
"529 0 LINE",
"529 720 LINE",
"383 720 LINE",
"383 452 LINE",
"358 485 OFFCURVE",
"310 521 OFFCURVE",
"240 521 CURVE SMOOTH",
"131 521 OFFCURVE",
"43 435 OFFCURVE",
"43 264 CURVE SMOOTH",
"43 253 LINE SMOOTH",
"43 73 OFFCURVE",
"138 -10 OFFCURVE",
"255 -10 CURVE SMOOTH",
"322 -10 OFFCURVE",
"367 22 OFFCURVE",
"399 64 CURVE",
"404 42 OFFCURVE",
"409 21 OFFCURVE",
"414 0 CURVE"
);
},
{
closed = 1;
nodes = (
"191 294 LINE SMOOTH",
"191 375 OFFCURVE",
"233 415 OFFCURVE",
"287 415 CURVE SMOOTH",
"341 415 OFFCURVE",
"383 375 OFFCURVE",
"383 294 CURVE SMOOTH",
"383 211 LINE SMOOTH",
"383 130 OFFCURVE",
"341 90 OFFCURVE",
"287 90 CURVE SMOOTH",
"233 90 OFFCURVE",
"191 130 OFFCURVE",
"191 211 CURVE SMOOTH"
);
}
);
};
layerId = "D9505699-D8FA-43B1-90A1-014B81D3291F";
paths = (
{
closed = 1;
nodes = (
"529 0 LINE",
"529 720 LINE",
"383 720 LINE",
"383 452 LINE",
"358 485 OFFCURVE",
"310 521 OFFCURVE",
"240 521 CURVE SMOOTH",
"131 521 OFFCURVE",
"43 435 OFFCURVE",
"43 264 CURVE SMOOTH",
"43 253 LINE SMOOTH",
"43 73 OFFCURVE",
"138 -10 OFFCURVE",
"255 -10 CURVE SMOOTH",
"322 -10 OFFCURVE",
"367 22 OFFCURVE",
"399 64 CURVE",
"404 42 OFFCURVE",
"409 21 OFFCURVE",
"414 0 CURVE"
);
},
{
closed = 1;
nodes = (
"191 294 LINE SMOOTH",
"191 375 OFFCURVE",
"233 415 OFFCURVE",
"287 415 CURVE SMOOTH",
"341 415 OFFCURVE",
"383 375 OFFCURVE",
"383 294 CURVE SMOOTH",
"383 211 LINE SMOOTH",
"383 130 OFFCURVE",
"341 90 OFFCURVE",
"287 90 CURVE SMOOTH",
"233 90 OFFCURVE",
"191 130 OFFCURVE",
"191 211 CURVE SMOOTH"
);
}
);
width = 595;
}
);
unicode = 0064;
},
{
glyphname = e;
lastChange = "2014-09-05 18:51:24 +0000";
layers = (
{
anchors = (
{
name = bottom;
position = "{292, 0}";
},
{
name = ogonek;
position = "{396, 10}";
},
{
name = top;
position = "{292, 511}";
}
);
background = {
anchors = (
{
name = bottom;
position = "{292, 0}";
},
{
name = ogonek;
position = "{526, 10}";
},
{
name = top;
position = "{292, 511}";
}
);
paths = (
{
closed = 1;
nodes = (
"400 191 LINE",
"400 123 OFFCURVE",
"361 90 OFFCURVE",
"301 90 CURVE SMOOTH",
"231 90 OFFCURVE",
"191 142 OFFCURVE",
"191 207 CURVE SMOOTH",
"191 231 LINE",
"541 231 LINE",
"541 307 LINE SMOOTH",
"541 444 OFFCURVE",
"431 521 OFFCURVE",
"309 521 CURVE SMOOTH",
"293 521 LINE SMOOTH",
"153 521 OFFCURVE",
"43 429 OFFCURVE",
"43 270 CURVE SMOOTH",
"43 241 LINE SMOOTH",
"43 82 OFFCURVE",
"151 -10 OFFCURVE",
"293 -10 CURVE SMOOTH",
"309 -10 LINE SMOOTH",
"427 -10 OFFCURVE",
"540 50 OFFCURVE",
"540 191 CURVE"
);
},
{
closed = 1;
nodes = (
"367 421 OFFCURVE",
"393 374 OFFCURVE",
"393 311 CURVE",
"191 311 LINE",
"196 373 OFFCURVE",
"234 421 OFFCURVE",
"294 421 CURVE SMOOTH"
);
}
);
};
layerId = "D9505699-D8FA-43B1-90A1-014B81D3291F";
paths = (
{
closed = 1;
nodes = (
"400 191 LINE",
"400 123 OFFCURVE",
"361 90 OFFCURVE",
"301 90 CURVE SMOOTH",
"231 90 OFFCURVE",
"191 142 OFFCURVE",
"191 207 CURVE SMOOTH",
"191 231 LINE",
"541 231 LINE",
"541 307 LINE SMOOTH",
"541 444 OFFCURVE",
"431 521 OFFCURVE",
"309 521 CURVE SMOOTH",
"293 521 LINE SMOOTH",
"153 521 OFFCURVE",
"43 429 OFFCURVE",
"43 270 CURVE SMOOTH",
"43 241 LINE SMOOTH",
"43 82 OFFCURVE",
"151 -10 OFFCURVE",
"293 -10 CURVE SMOOTH",
"309 -10 LINE SMOOTH",
"427 -10 OFFCURVE",
"540 50 OFFCURVE",
"540 191 CURVE"
);
},
{
closed = 1;
nodes = (
"367 421 OFFCURVE",
"393 374 OFFCURVE",
"393 311 CURVE",
"191 311 LINE",
"196 373 OFFCURVE",
"234 421 OFFCURVE",
"294 421 CURVE SMOOTH"
);
}
);
width = 584;
}
);
unicode = 0065;
},
{
glyphname = f;
lastChange = "2014-09-05 18:35:58 +0000";
layers = (
{
background = {
paths = (
{
closed = 1;
nodes = (
"350 707 LINE",
"322 720 OFFCURVE",
"270 728 OFFCURVE",
"239 728 CURVE SMOOTH",
"142 728 OFFCURVE",
"85 684 OFFCURVE",
"85 578 CURVE SMOOTH",
"85 511 LINE",
"25 511 LINE",
"25 411 LINE",
"85 411 LINE",
"85 0 LINE",
"231 0 LINE",
"231 411 LINE",
"350 411 LINE",
"350 511 LINE",
"231 511 LINE",
"231 569 LINE SMOOTH",
"231 623 OFFCURVE",
"264 629 OFFCURVE",
"288 629 CURVE SMOOTH",
"303 629 OFFCURVE",
"334 623 OFFCURVE",
"350 618 CURVE"
);
}
);
};
layerId = "D9505699-D8FA-43B1-90A1-014B81D3291F";
paths = (
{
closed = 1;
nodes = (
"350 707 LINE",
"322 720 OFFCURVE",
"270 728 OFFCURVE",
"239 728 CURVE SMOOTH",
"142 728 OFFCURVE",
"85 684 OFFCURVE",
"85 578 CURVE SMOOTH",
"85 511 LINE",
"25 511 LINE",
"25 411 LINE",
"85 411 LINE",
"85 0 LINE",
"231 0 LINE",
"231 411 LINE",
"350 411 LINE",
"350 511 LINE",
"231 511 LINE",
"231 569 LINE SMOOTH",
"231 623 OFFCURVE",
"264 629 OFFCURVE",
"288 629 CURVE SMOOTH",
"303 629 OFFCURVE",
"334 623 OFFCURVE",
"350 618 CURVE"
);
}
);
width = 363;
}
);
unicode = 0066;
},
{
glyphname = g;
lastChange = "2014-09-05 18:35:58 +0000";
layers = (
{
anchors = (
{
name = top;
position = "{286, 511}";
}
);
background = {
anchors = (
{
name = top;
position = "{286, 511}";
}
);
paths = (
{
closed = 1;
nodes = (
"239 116 LINE SMOOTH",
"195 116 OFFCURVE",
"176 133 OFFCURVE",
"176 158 CURVE SMOOTH",
"176 177 OFFCURVE",
"196 200 OFFCURVE",
"239 200 CURVE SMOOTH",
"308 200 LINE SMOOTH",
"430 200 OFFCURVE",
"508 272 OFFCURVE",
"508 360 CURVE SMOOTH",
"508 403 OFFCURVE",
"488 440 OFFCURVE",
"455 468 CURVE",
"456 471 LINE",
"522 487 OFFCURVE",
"562 529 OFFCURVE",
"562 603 CURVE",
"448 603 LINE",
"446 585 OFFCURVE",
"435 546 OFFCURVE",
"373 509 CURVE",
"348 517 OFFCURVE",
"319 521 OFFCURVE",
"289 521 CURVE SMOOTH",
"273 521 LINE SMOOTH",
"124 521 OFFCURVE",
"55 449 OFFCURVE",
"55 360 CURVE SMOOTH",
"55 310 OFFCURVE",
"82 265 OFFCURVE",
"127 237 CURVE",
"77 222 OFFCURVE",
"41 183 OFFCURVE",
"41 133 CURVE SMOOTH",
"41 98 OFFCURVE",
"58 68 OFFCURVE",
"88 48 CURVE",
"46 29 OFFCURVE",
"12 -13 OFFCURVE",
"12 -62 CURVE SMOOTH",
"12 -144 OFFCURVE",
"78 -188 OFFCURVE",
"156 -188 CURVE SMOOTH",
"367 -188 LINE SMOOTH",
"475 -188 OFFCURVE",
"562 -121 OFFCURVE",
"562 -27 CURVE SMOOTH",
"562 55 OFFCURVE",
"513 116 OFFCURVE",
"417 116 CURVE SMOOTH"
);
},
{
closed = 1;
nodes = (
"195 409 OFFCURVE",
"234 434 OFFCURVE",
"283 434 CURVE SMOOTH",
"332 434 OFFCURVE",
"372 409 OFFCURVE",
"372 360 CURVE SMOOTH",
"372 311 OFFCURVE",
"332 286 OFFCURVE",
"283 286 CURVE SMOOTH",
"234 286 OFFCURVE",
"195 311 OFFCURVE",
"195 360 CURVE SMOOTH"
);
},
{
closed = 1;
nodes = (
"195 -98 LINE SMOOTH",
"165 -98 OFFCURVE",
"141 -75 OFFCURVE",
"141 -48 CURVE SMOOTH",
"141 -21 OFFCURVE",
"165 1 OFFCURVE",
"195 1 CURVE SMOOTH",
"369 1 LINE SMOOTH",
"405 1 OFFCURVE",
"427 -20 OFFCURVE",
"427 -46 CURVE SMOOTH",
"427 -74 OFFCURVE",
"398 -98 OFFCURVE",
"363 -98 CURVE SMOOTH"
);
}
);
};
layerId = "D9505699-D8FA-43B1-90A1-014B81D3291F";
paths = (
{
closed = 1;
nodes = (
"239 116 LINE SMOOTH",
"195 116 OFFCURVE",
"176 133 OFFCURVE",
"176 158 CURVE SMOOTH",
"176 177 OFFCURVE",
"196 200 OFFCURVE",
"239 200 CURVE SMOOTH",
"308 200 LINE SMOOTH",
"430 200 OFFCURVE",
"508 272 OFFCURVE",
"508 360 CURVE SMOOTH",
"508 403 OFFCURVE",
"488 440 OFFCURVE",
"455 468 CURVE",
"456 471 LINE",
"522 487 OFFCURVE",
"562 529 OFFCURVE",
"562 603 CURVE",
"448 603 LINE",
"446 585 OFFCURVE",
"435 546 OFFCURVE",
"373 509 CURVE",
"348 517 OFFCURVE",
"319 521 OFFCURVE",
"289 521 CURVE SMOOTH",
"273 521 LINE SMOOTH",
"124 521 OFFCURVE",
"55 449 OFFCURVE",
"55 360 CURVE SMOOTH",
"55 310 OFFCURVE",
"82 265 OFFCURVE",
"127 237 CURVE",
"77 222 OFFCURVE",
"41 183 OFFCURVE",
"41 133 CURVE SMOOTH",
"41 98 OFFCURVE",
"58 68 OFFCURVE",
"88 48 CURVE",
"46 29 OFFCURVE",
"12 -13 OFFCURVE",
"12 -62 CURVE SMOOTH",
"12 -144 OFFCURVE",
"78 -188 OFFCURVE",
"156 -188 CURVE SMOOTH",
"367 -188 LINE SMOOTH",
"475 -188 OFFCURVE",
"562 -121 OFFCURVE",
"562 -27 CURVE SMOOTH",
"562 55 OFFCURVE",
"513 116 OFFCURVE",
"417 116 CURVE SMOOTH"
);
},
{
closed = 1;
nodes = (
"195 409 OFFCURVE",
"234 434 OFFCURVE",
"283 434 CURVE SMOOTH",
"332 434 OFFCURVE",
"372 409 OFFCURVE",
"372 360 CURVE SMOOTH",
"372 311 OFFCURVE",
"332 286 OFFCURVE",
"283 286 CURVE SMOOTH",
"234 286 OFFCURVE",
"195 311 OFFCURVE",
"195 360 CURVE SMOOTH"
);
},
{
closed = 1;
nodes = (
"195 -98 LINE SMOOTH",
"165 -98 OFFCURVE",
"141 -75 OFFCURVE",
"141 -48 CURVE SMOOTH",
"141 -21 OFFCURVE",
"165 1 OFFCURVE",
"195 1 CURVE SMOOTH",
"369 1 LINE SMOOTH",
"405 1 OFFCURVE",
"427 -20 OFFCURVE",
"427 -46 CURVE SMOOTH",
"427 -74 OFFCURVE",
"398 -98 OFFCURVE",
"363 -98 CURVE SMOOTH"
);
}
);
width = 572;
}
);
unicode = 0067;
},
{
glyphname = h;
lastChange = "2014-09-05 18:51:47 +0000";
layers = (
{
anchors = (
{
name = center;
position = "{299, 256}";
},
{
name = top;
position = "{139, 686}";
}
);
background = {
anchors = (
{
name = center;
position = "{299, 256}";
},
{
name = top;
position = "{299, 511}";
}
);
paths = (
{
closed = 1;
nodes = (
"66 720 LINE",
"66 0 LINE",
"212 0 LINE",
"212 314 LINE SMOOTH",
"212 371 OFFCURVE",
"256 415 OFFCURVE",
"307 415 CURVE SMOOTH",
"354 415 OFFCURVE",
"387 377 OFFCURVE",
"387 325 CURVE SMOOTH",
"387 0 LINE",
"533 0 LINE",
"533 357 LINE SMOOTH",
"533 468 OFFCURVE",
"452 521 OFFCURVE",
"354 521 CURVE SMOOTH",
"290 521 OFFCURVE",
"244 494 OFFCURVE",
"212 461 CURVE",
"212 720 LINE"
);
}
);
};
layerId = "D9505699-D8FA-43B1-90A1-014B81D3291F";
paths = (
{
closed = 1;
nodes = (
"66 720 LINE",
"66 0 LINE",
"212 0 LINE",
"212 314 LINE SMOOTH",
"212 371 OFFCURVE",
"256 415 OFFCURVE",
"307 415 CURVE SMOOTH",
"354 415 OFFCURVE",
"387 377 OFFCURVE",
"387 325 CURVE SMOOTH",
"387 0 LINE",
"533 0 LINE",
"533 357 LINE SMOOTH",
"533 468 OFFCURVE",
"452 521 OFFCURVE",
"354 521 CURVE SMOOTH",
"290 521 OFFCURVE",
"244 494 OFFCURVE",
"212 461 CURVE",
"212 720 LINE"
);
}
);
width = 598;
}
);
unicode = 0068;
},
{
glyphname = i;
lastChange = "2014-09-05 18:35:58 +0000";
layers = (
{
background = {
paths = (
{
closed = 1;
nodes = (
"212 0 LINE",
"212 511 LINE",
"66 511 LINE",
"66 0 LINE"
);
},
{
closed = 1;
nodes = (
"65 605 LINE",
"213 605 LINE",
"213 720 LINE",
"65 720 LINE"
);
}
);
};
layerId = "D9505699-D8FA-43B1-90A1-014B81D3291F";
paths = (
{
closed = 1;
nodes = (
"212 0 LINE",
"212 511 LINE",
"66 511 LINE",
"66 0 LINE"
);
},
{
closed = 1;
nodes = (
"65 605 LINE",
"213 605 LINE",
"213 720 LINE",
"65 720 LINE"
);
}
);
width = 278;
}
);
unicode = 0069;
},
{
glyphname = j;
lastChange = "2014-09-05 18:35:58 +0000";
layers = (
{
background = {
paths = (
{
closed = 1;
nodes = (
"67 -18 LINE SMOOTH",
"67 -77 OFFCURVE",
"39 -86 OFFCURVE",
"11 -86 CURVE SMOOTH",
"-4 -86 OFFCURVE",
"-35 -80 OFFCURVE",
"-50 -73 CURVE",
"-50 -166 LINE",
"-23 -179 OFFCURVE",
"28 -186 OFFCURVE",
"59 -186 CURVE SMOOTH",
"160 -186 OFFCURVE",
"213 -133 OFFCURVE",
"213 -20 CURVE SMOOTH",
"213 510 LINE",
"67 510 LINE"
);
},
{
closed = 1;
nodes = (
"66 605 LINE",
"214 605 LINE",
"214 720 LINE",
"66 720 LINE"
);
}
);
};
layerId = "D9505699-D8FA-43B1-90A1-014B81D3291F";
paths = (
{
closed = 1;
nodes = (
"67 -18 LINE SMOOTH",
"67 -77 OFFCURVE",
"39 -86 OFFCURVE",
"11 -86 CURVE SMOOTH",
"-4 -86 OFFCURVE",
"-35 -80 OFFCURVE",
"-50 -73 CURVE",
"-50 -166 LINE",
"-23 -179 OFFCURVE",
"28 -186 OFFCURVE",
"59 -186 CURVE SMOOTH",
"160 -186 OFFCURVE",
"213 -133 OFFCURVE",
"213 -20 CURVE SMOOTH",
"213 510 LINE",
"67 510 LINE"
);
},
{
closed = 1;
nodes = (
"66 605 LINE",
"214 605 LINE",
"214 720 LINE",
"66 720 LINE"
);
}
);
width = 280;
}
);
unicode = 006A;
},
{
glyphname = k;
lastChange = "2014-09-05 18:35:58 +0000";
layers = (
{
anchors = (
{
name = bottom;
position = "{281, 0}";
}
);
background = {
anchors = (
{
name = bottom;
position = "{281, 0}";
}
);
paths = (
{
closed = 1;
nodes = (
"564 0 LINE",
"368 271 LINE",
"556 511 LINE",
"391 511 LINE",
"212 273 LINE",
"212 720 LINE",
"66 720 LINE",
"66 0 LINE",
"212 0 LINE",
"212 112 LINE",
"269 167 LINE",
"390 0 LINE"
);
}
);
};
layerId = "D9505699-D8FA-43B1-90A1-014B81D3291F";
paths = (
{
closed = 1;
nodes = (
"564 0 LINE",
"368 271 LINE",
"556 511 LINE",
"391 511 LINE",
"212 273 LINE",
"212 720 LINE",
"66 720 LINE",
"66 0 LINE",
"212 0 LINE",
"212 112 LINE",
"269 167 LINE",
"390 0 LINE"
);
}
);
width = 562;
}
);
unicode = 006B;
},
{
glyphname = l;
lastChange = "2014-09-08 21:33:34 +0000";
layers = (
{
anchors = (
{
name = bottom;
position = "{140, 0}";
},
{
name = top;
position = "{140, 686}";
},
{
name = topright;
position = "{339, 686}";
}
);
background = {
anchors = (
{
name = bottom;
position = "{140, 0}";
},
{
name = top;
position = "{140, 511}";
},
{
name = topright;
position = "{259, 511}";
}
);
paths = (
{
closed = 1;
nodes = (
"212 0 LINE",
"212 720 LINE",
"66 720 LINE",
"66 0 LINE"
);
}
);
};
layerId = "D9505699-D8FA-43B1-90A1-014B81D3291F";
paths = (
{
closed = 1;
nodes = (
"212 0 LINE",
"212 720 LINE",
"66 720 LINE",
"66 0 LINE"
);
}
);
width = 279;
}
);
unicode = 006C;
},
{
glyphname = m;
lastChange = "2014-09-05 18:35:58 +0000";
layers = (
{
background = {
paths = (
{
closed = 1;
nodes = (
"282 521 OFFCURVE",
"229 494 OFFCURVE",
"192 436 CURVE",
"187 461 OFFCURVE",
"182 486 OFFCURVE",
"176 511 CURVE",
"66 511 LINE",
"66 0 LINE",
"212 0 LINE",
"212 317 LINE SMOOTH",
"212 374 OFFCURVE",
"248 415 OFFCURVE",
"294 415 CURVE SMOOTH",
"336 415 OFFCURVE",
"363 384 OFFCURVE",
"363 328 CURVE SMOOTH",
"363 0 LINE",
"509 0 LINE",
"509 317 LINE SMOOTH",
"509 374 OFFCURVE",
"546 415 OFFCURVE",
"592 415 CURVE SMOOTH",
"634 415 OFFCURVE",
"660 384 OFFCURVE",
"660 328 CURVE SMOOTH",
"660 0 LINE",
"806 0 LINE",
"806 357 LINE SMOOTH",
"806 464 OFFCURVE",
"731 521 OFFCURVE",
"639 521 CURVE SMOOTH",
"579 521 OFFCURVE",
"527 497 OFFCURVE",
"490 439 CURVE",
"462 493 OFFCURVE",
"406 521 OFFCURVE",
"342 521 CURVE SMOOTH"
);
}
);
};
layerId = "D9505699-D8FA-43B1-90A1-014B81D3291F";
paths = (
{
closed = 1;
nodes = (
"282 521 OFFCURVE",
"229 494 OFFCURVE",
"192 436 CURVE",
"187 461 OFFCURVE",
"182 486 OFFCURVE",
"176 511 CURVE",
"66 511 LINE",
"66 0 LINE",
"212 0 LINE",
"212 317 LINE SMOOTH",
"212 374 OFFCURVE",
"248 415 OFFCURVE",
"294 415 CURVE SMOOTH",
"336 415 OFFCURVE",
"363 384 OFFCURVE",
"363 328 CURVE SMOOTH",
"363 0 LINE",
"509 0 LINE",
"509 317 LINE SMOOTH",
"509 374 OFFCURVE",
"546 415 OFFCURVE",
"592 415 CURVE SMOOTH",
"634 415 OFFCURVE",
"660 384 OFFCURVE",
"660 328 CURVE SMOOTH",
"660 0 LINE",
"806 0 LINE",
"806 357 LINE SMOOTH",
"806 464 OFFCURVE",
"731 521 OFFCURVE",
"639 521 CURVE SMOOTH",
"579 521 OFFCURVE",
"527 497 OFFCURVE",
"490 439 CURVE",
"462 493 OFFCURVE",
"406 521 OFFCURVE",
"342 521 CURVE SMOOTH"
);
}
);
width = 870;
}
);
unicode = 006D;
},
{
glyphname = n;
lastChange = "2014-09-05 18:35:58 +0000";
layers = (
{
anchors = (
{
name = bottom;
position = "{299, 0}";
},
{
name = top;
position = "{299, 511}";
}
);
background = {
anchors = (
{
name = bottom;
position = "{299, 0}";
},
{
name = top;
position = "{299, 511}";
}
);
paths = (
{
closed = 1;
nodes = (
"66 511 LINE",
"66 0 LINE",
"212 0 LINE",
"212 314 LINE SMOOTH",
"212 371 OFFCURVE",
"256 415 OFFCURVE",
"307 415 CURVE SMOOTH",
"354 415 OFFCURVE",
"387 377 OFFCURVE",
"387 325 CURVE SMOOTH",
"387 0 LINE",
"533 0 LINE",
"533 357 LINE SMOOTH",
"533 468 OFFCURVE",
"452 521 OFFCURVE",
"354 521 CURVE SMOOTH",
"275 521 OFFCURVE",
"223 479 OFFCURVE",
"191 436 CURVE",
"175 511 LINE"
);
}
);
};
layerId = "D9505699-D8FA-43B1-90A1-014B81D3291F";
paths = (
{
closed = 1;
nodes = (
"66 511 LINE",
"66 0 LINE",
"212 0 LINE",
"212 314 LINE SMOOTH",
"212 371 OFFCURVE",
"256 415 OFFCURVE",
"307 415 CURVE SMOOTH",
"354 415 OFFCURVE",
"387 377 OFFCURVE",
"387 325 CURVE SMOOTH",
"387 0 LINE",
"533 0 LINE",
"533 357 LINE SMOOTH",
"533 468 OFFCURVE",
"452 521 OFFCURVE",
"354 521 CURVE SMOOTH",
"275 521 OFFCURVE",
"223 479 OFFCURVE",
"191 436 CURVE",
"175 511 LINE"
);
}
);
width = 597;
}
);
unicode = 006E;
},
{
glyphname = o;
lastChange = "2014-09-05 18:35:58 +0000";
layers = (
{
anchors = (
{
name = top;
position = "{301, 511}";
}
);
background = {
anchors = (
{
name = top;
position = "{301, 511}";
}
);
paths = (
{
closed = 1;
nodes = (
"559 270 LINE SMOOTH",
"559 429 OFFCURVE",
"450 521 OFFCURVE",
"309 521 CURVE SMOOTH",
"293 521 LINE SMOOTH",
"152 521 OFFCURVE",
"43 429 OFFCURVE",
"43 270 CURVE SMOOTH",
"43 241 LINE SMOOTH",
"43 82 OFFCURVE",
"152 -10 OFFCURVE",
"293 -10 CURVE SMOOTH",
"309 -10 LINE SMOOTH",
"450 -10 OFFCURVE",
"559 82 OFFCURVE",
"559 241 CURVE SMOOTH"
);
},
{
closed = 1;
nodes = (
"411 215 LINE SMOOTH",
"411 131 OFFCURVE",
"363 90 OFFCURVE",
"301 90 CURVE SMOOTH",
"239 90 OFFCURVE",
"191 131 OFFCURVE",
"191 215 CURVE SMOOTH",
"191 296 LINE SMOOTH",
"191 380 OFFCURVE",
"239 421 OFFCURVE",
"301 421 CURVE SMOOTH",
"363 421 OFFCURVE",
"411 380 OFFCURVE",
"411 296 CURVE SMOOTH"
);
}
);
};
layerId = "D9505699-D8FA-43B1-90A1-014B81D3291F";
paths = (
{
closed = 1;
nodes = (
"559 270 LINE SMOOTH",
"559 429 OFFCURVE",
"450 521 OFFCURVE",
"309 521 CURVE SMOOTH",
"293 521 LINE SMOOTH",
"152 521 OFFCURVE",
"43 429 OFFCURVE",
"43 270 CURVE SMOOTH",
"43 241 LINE SMOOTH",
"43 82 OFFCURVE",
"152 -10 OFFCURVE",
"293 -10 CURVE SMOOTH",
"309 -10 LINE SMOOTH",
"450 -10 OFFCURVE",
"559 82 OFFCURVE",
"559 241 CURVE SMOOTH"
);
},
{
closed = 1;
nodes = (
"411 215 LINE SMOOTH",
"411 131 OFFCURVE",
"363 90 OFFCURVE",
"301 90 CURVE SMOOTH",
"239 90 OFFCURVE",
"191 131 OFFCURVE",
"191 215 CURVE SMOOTH",
"191 296 LINE SMOOTH",
"191 380 OFFCURVE",
"239 421 OFFCURVE",
"301 421 CURVE SMOOTH",
"363 421 OFFCURVE",
"411 380 OFFCURVE",
"411 296 CURVE SMOOTH"
);
}
);
width = 602;
}
);
unicode = 006F;
},
{
glyphname = p;
lastChange = "2014-09-05 18:35:58 +0000";
layers = (
{
background = {
paths = (
{
closed = 1;
nodes = (
"66 511 LINE",
"66 -181 LINE",
"212 -181 LINE",
"212 59 LINE",
"237 26 OFFCURVE",
"285 -10 OFFCURVE",
"355 -10 CURVE SMOOTH",
"464 -10 OFFCURVE",
"552 76 OFFCURVE",
"552 247 CURVE SMOOTH",
"552 258 LINE SMOOTH",
"552 438 OFFCURVE",
"457 521 OFFCURVE",
"340 521 CURVE SMOOTH",
"273 521 OFFCURVE",
"228 489 OFFCURVE",
"196 447 CURVE",
"191 469 OFFCURVE",
"186 490 OFFCURVE",
"181 511 CURVE"
);
},
{
closed = 1;
nodes = (
"404 217 LINE SMOOTH",
"404 136 OFFCURVE",
"362 96 OFFCURVE",
"308 96 CURVE SMOOTH",
"254 96 OFFCURVE",
"212 136 OFFCURVE",
"212 217 CURVE SMOOTH",
"212 300 LINE SMOOTH",
"212 381 OFFCURVE",
"254 421 OFFCURVE",
"308 421 CURVE SMOOTH",
"362 421 OFFCURVE",
"404 381 OFFCURVE",
"404 300 CURVE SMOOTH"
);
}
);
};
layerId = "D9505699-D8FA-43B1-90A1-014B81D3291F";
paths = (
{
closed = 1;
nodes = (
"66 511 LINE",
"66 -181 LINE",
"212 -181 LINE",
"212 59 LINE",
"237 26 OFFCURVE",
"285 -10 OFFCURVE",
"355 -10 CURVE SMOOTH",
"464 -10 OFFCURVE",
"552 76 OFFCURVE",
"552 247 CURVE SMOOTH",
"552 258 LINE SMOOTH",
"552 438 OFFCURVE",
"457 521 OFFCURVE",
"340 521 CURVE SMOOTH",
"273 521 OFFCURVE",
"228 489 OFFCURVE",
"196 447 CURVE",
"191 469 OFFCURVE",
"186 490 OFFCURVE",
"181 511 CURVE"
);
},
{
closed = 1;
nodes = (
"404 217 LINE SMOOTH",
"404 136 OFFCURVE",
"362 96 OFFCURVE",
"308 96 CURVE SMOOTH",
"254 96 OFFCURVE",
"212 136 OFFCURVE",
"212 217 CURVE SMOOTH",
"212 300 LINE SMOOTH",
"212 381 OFFCURVE",
"254 421 OFFCURVE",
"308 421 CURVE SMOOTH",
"362 421 OFFCURVE",
"404 381 OFFCURVE",
"404 300 CURVE SMOOTH"
);
}
);
width = 595;
}
);
unicode = 0070;
},
{
glyphname = q;
lastChange = "2014-09-05 18:35:58 +0000";
layers = (
{
background = {
paths = (
{
closed = 1;
nodes = (
"382 -180 LINE",
"528 -180 LINE",
"528 511 LINE",
"475 511 LINE",
"458 486 OFFCURVE",
"441 459 OFFCURVE",
"424 433 CURVE",
"386 490 OFFCURVE",
"328 521 OFFCURVE",
"254 521 CURVE SMOOTH",
"137 521 OFFCURVE",
"42 438 OFFCURVE",
"42 258 CURVE SMOOTH",
"42 247 LINE SMOOTH",
"42 76 OFFCURVE",
"130 -10 OFFCURVE",
"239 -10 CURVE SMOOTH",
"309 -10 OFFCURVE",
"357 26 OFFCURVE",
"382 59 CURVE"
);
},
{
closed = 1;
nodes = (
"190 300 LINE SMOOTH",
"190 381 OFFCURVE",
"232 421 OFFCURVE",
"286 421 CURVE SMOOTH",
"340 421 OFFCURVE",
"382 381 OFFCURVE",
"382 300 CURVE SMOOTH",
"382 217 LINE SMOOTH",
"382 136 OFFCURVE",
"340 96 OFFCURVE",
"286 96 CURVE SMOOTH",
"232 96 OFFCURVE",
"190 136 OFFCURVE",
"190 217 CURVE SMOOTH"
);
}
);
};
layerId = "D9505699-D8FA-43B1-90A1-014B81D3291F";
paths = (
{
closed = 1;
nodes = (
"382 -180 LINE",
"528 -180 LINE",
"528 511 LINE",
"475 511 LINE",
"458 486 OFFCURVE",
"441 459 OFFCURVE",
"424 433 CURVE",
"386 490 OFFCURVE",
"328 521 OFFCURVE",
"254 521 CURVE SMOOTH",
"137 521 OFFCURVE",
"42 438 OFFCURVE",
"42 258 CURVE SMOOTH",
"42 247 LINE SMOOTH",
"42 76 OFFCURVE",
"130 -10 OFFCURVE",
"239 -10 CURVE SMOOTH",
"309 -10 OFFCURVE",
"357 26 OFFCURVE",
"382 59 CURVE"
);
},
{
closed = 1;
nodes = (
"190 300 LINE SMOOTH",
"190 381 OFFCURVE",
"232 421 OFFCURVE",
"286 421 CURVE SMOOTH",
"340 421 OFFCURVE",
"382 381 OFFCURVE",
"382 300 CURVE SMOOTH",
"382 217 LINE SMOOTH",
"382 136 OFFCURVE",
"340 96 OFFCURVE",
"286 96 CURVE SMOOTH",
"232 96 OFFCURVE",
"190 136 OFFCURVE",
"190 217 CURVE SMOOTH"
);
}
);
width = 595;
}
);
unicode = 0071;
},
{
glyphname = r;
lastChange = "2014-09-05 18:52:02 +0000";
layers = (
{
anchors = (
{
name = bottom;
position = "{138, 0}";
},
{
name = top;
position = "{165, 511}";
}
);
background = {
anchors = (
{
name = bottom;
position = "{245, 0}";
},
{
name = top;
position = "{245, 511}";
}
);
paths = (
{
closed = 1;
nodes = (
"475 313 LINE",
"475 313 OFFCURVE",
"479 348 OFFCURVE",
"479 364 CURVE SMOOTH",
"479 455 OFFCURVE",
"430 521 OFFCURVE",
"335 521 CURVE SMOOTH",
"239 521 OFFCURVE",
"196 447 OFFCURVE",
"192 436 CURVE",
"174 511 LINE",
"66 511 LINE",
"66 0 LINE",
"210 0 LINE",
"210 316 LINE SMOOTH",
"210 367 OFFCURVE",
"232 412 OFFCURVE",
"282 412 CURVE SMOOTH",
"336 412 OFFCURVE",
"353 371 OFFCURVE",
"353 336 CURVE SMOOTH",
"353 313 LINE"
);
}
);
};
layerId = "D9505699-D8FA-43B1-90A1-014B81D3291F";
paths = (
{
closed = 1;
nodes = (
"475 313 LINE",
"475 313 OFFCURVE",
"479 348 OFFCURVE",
"479 364 CURVE SMOOTH",
"479 455 OFFCURVE",
"430 521 OFFCURVE",
"335 521 CURVE SMOOTH",
"239 521 OFFCURVE",
"196 447 OFFCURVE",
"192 436 CURVE",
"174 511 LINE",
"66 511 LINE",
"66 0 LINE",
"210 0 LINE",
"210 316 LINE SMOOTH",
"210 367 OFFCURVE",
"232 412 OFFCURVE",
"282 412 CURVE SMOOTH",
"336 412 OFFCURVE",
"353 371 OFFCURVE",
"353 336 CURVE SMOOTH",
"353 313 LINE"
);
}
);
width = 489;
}
);
unicode = 0072;
},
{
glyphname = s;
lastChange = "2014-09-05 18:35:58 +0000";
layers = (
{
anchors = (
{
name = bottom;
position = "{270, 0}";
},
{
name = top;
position = "{270, 511}";
}
);
background = {
anchors = (
{
name = bottom;
position = "{270, 0}";
},
{
name = top;
position = "{270, 511}";
}
);
paths = (
{
closed = 1;
nodes = (
"30 163 LINE",
"30 159 OFFCURVE",
"29 153 OFFCURVE",
"29 143 CURVE SMOOTH",
"29 51 OFFCURVE",
"119 -10 OFFCURVE",
"244 -10 CURVE SMOOTH",
"277 -10 LINE SMOOTH",
"395 -10 OFFCURVE",
"504 32 OFFCURVE",
"504 162 CURVE SMOOTH",
"504 374 OFFCURVE",
"178 283 OFFCURVE",
"178 376 CURVE SMOOTH",
"178 404 OFFCURVE",
"216 421 OFFCURVE",
"271 421 CURVE SMOOTH",
"328 421 OFFCURVE",
"363 403 OFFCURVE",
"363 361 CURVE",
"491 361 LINE",
"491 362 OFFCURVE",
"493 372 OFFCURVE",
"493 383 CURVE SMOOTH",
"493 467 OFFCURVE",
"391 521 OFFCURVE",
"287 521 CURVE SMOOTH",
"267 521 LINE SMOOTH",
"151 521 OFFCURVE",
"45 467 OFFCURVE",
"45 359 CURVE SMOOTH",
"45 150 OFFCURVE",
"369 241 OFFCURVE",
"369 140 CURVE SMOOTH",
"369 101 OFFCURVE",
"310 90 OFFCURVE",
"266 90 CURVE SMOOTH",
"213 90 OFFCURVE",
"158 105 OFFCURVE",
"158 156 CURVE SMOOTH",
"158 163 LINE"
);
}
);
};
layerId = "D9505699-D8FA-43B1-90A1-014B81D3291F";
paths = (
{
closed = 1;
nodes = (
"30 163 LINE",
"30 159 OFFCURVE",
"29 153 OFFCURVE",
"29 143 CURVE SMOOTH",
"29 51 OFFCURVE",
"119 -10 OFFCURVE",
"244 -10 CURVE SMOOTH",
"277 -10 LINE SMOOTH",
"395 -10 OFFCURVE",
"504 32 OFFCURVE",
"504 162 CURVE SMOOTH",
"504 374 OFFCURVE",
"178 283 OFFCURVE",
"178 376 CURVE SMOOTH",
"178 404 OFFCURVE",
"216 421 OFFCURVE",
"271 421 CURVE SMOOTH",
"328 421 OFFCURVE",
"363 403 OFFCURVE",
"363 361 CURVE",
"491 361 LINE",
"491 362 OFFCURVE",
"493 372 OFFCURVE",
"493 383 CURVE SMOOTH",
"493 467 OFFCURVE",
"391 521 OFFCURVE",
"287 521 CURVE SMOOTH",
"267 521 LINE SMOOTH",
"151 521 OFFCURVE",
"45 467 OFFCURVE",
"45 359 CURVE SMOOTH",
"45 150 OFFCURVE",
"369 241 OFFCURVE",
"369 140 CURVE SMOOTH",
"369 101 OFFCURVE",
"310 90 OFFCURVE",
"266 90 CURVE SMOOTH",
"213 90 OFFCURVE",
"158 105 OFFCURVE",
"158 156 CURVE SMOOTH",
"158 163 LINE"
);
}
);
width = 539;
}
);
unicode = 0073;
},
{
glyphname = t;
lastChange = "2014-09-09 03:33:48 +0000";
layers = (
{
anchors = (
{
name = bottom;
position = "{186, 0}";
},
{
name = center;
position = "{151, 256}";
},
{
name = topright;
position = "{431, 686}";
}
);
background = {
anchors = (
{
name = bottom;
position = "{186, 0}";
},
{
name = center;
position = "{186, 256}";
},
{
name = topright;
position = "{351, 511}";
}
);
paths = (
{
closed = 1;
nodes = (
"343 103 LINE",
"327 96 OFFCURVE",
"296 90 OFFCURVE",
"281 90 CURVE SMOOTH",
"253 90 OFFCURVE",
"224 99 OFFCURVE",
"224 158 CURVE SMOOTH",
"224 411 LINE",
"343 411 LINE",
"343 511 LINE",
"224 511 LINE",
"224 674 LINE",
"134 674 LINE",
"83 511 LINE",
"22 511 LINE",
"22 411 LINE",
"78 411 LINE",
"78 133 LINE SMOOTH",
"78 27 OFFCURVE",
"135 -10 OFFCURVE",
"233 -10 CURVE SMOOTH",
"265 -10 OFFCURVE",
"316 -2 OFFCURVE",
"343 9 CURVE"
);
}
);
};
layerId = "D9505699-D8FA-43B1-90A1-014B81D3291F";
paths = (
{
closed = 1;
nodes = (
"343 103 LINE",
"327 96 OFFCURVE",
"296 90 OFFCURVE",
"281 90 CURVE SMOOTH",
"253 90 OFFCURVE",
"224 99 OFFCURVE",
"224 158 CURVE SMOOTH",
"224 411 LINE",
"343 411 LINE",
"343 511 LINE",
"224 511 LINE",
"224 674 LINE",
"134 674 LINE",
"83 511 LINE",
"22 511 LINE",
"22 411 LINE",
"78 411 LINE",
"78 133 LINE SMOOTH",
"78 27 OFFCURVE",
"135 -10 OFFCURVE",
"233 -10 CURVE SMOOTH",
"265 -10 OFFCURVE",
"316 -2 OFFCURVE",
"343 9 CURVE"
);
}
);
width = 371;
}
);
unicode = 0074;
},
{
glyphname = u;
lastChange = "2014-09-05 18:35:58 +0000";
layers = (
{
anchors = (
{
name = ogonek;
position = "{551, 10}";
},
{
name = top;
position = "{306, 511}";
}
);
background = {
anchors = (
{
name = ogonek;
position = "{551, 10}";
},
{
name = top;
position = "{306, 511}";
}
);
paths = (
{
closed = 1;
nodes = (
"531 511 LINE",
"385 511 LINE",
"385 197 LINE SMOOTH",
"385 140 OFFCURVE",
"341 96 OFFCURVE",
"290 96 CURVE SMOOTH",
"243 96 OFFCURVE",
"210 134 OFFCURVE",
"210 186 CURVE SMOOTH",
"210 511 LINE",
"64 511 LINE",
"64 154 LINE SMOOTH",
"64 43 OFFCURVE",
"145 -10 OFFCURVE",
"243 -10 CURVE SMOOTH",
"315 -10 OFFCURVE",
"364 25 OFFCURVE",
"397 63 CURVE",
"407 18 OFFCURVE",
"443 -10 OFFCURVE",
"513 -10 CURVE SMOOTH",
"563 -10 OFFCURVE",
"594 7 OFFCURVE",
"601 11 CURVE",
"601 101 LINE",
"595 98 OFFCURVE",
"575 90 OFFCURVE",
"560 90 CURVE SMOOTH",
"547 90 OFFCURVE",
"531 98 OFFCURVE",
"531 120 CURVE SMOOTH"
);
}
);
};
layerId = "D9505699-D8FA-43B1-90A1-014B81D3291F";
paths = (
{
closed = 1;
nodes = (
"531 511 LINE",
"385 511 LINE",
"385 197 LINE SMOOTH",
"385 140 OFFCURVE",
"341 96 OFFCURVE",
"290 96 CURVE SMOOTH",
"243 96 OFFCURVE",
"210 134 OFFCURVE",
"210 186 CURVE SMOOTH",
"210 511 LINE",
"64 511 LINE",
"64 154 LINE SMOOTH",
"64 43 OFFCURVE",
"145 -10 OFFCURVE",
"243 -10 CURVE SMOOTH",
"315 -10 OFFCURVE",
"364 25 OFFCURVE",
"397 63 CURVE",
"407 18 OFFCURVE",
"443 -10 OFFCURVE",
"513 -10 CURVE SMOOTH",
"563 -10 OFFCURVE",
"594 7 OFFCURVE",
"601 11 CURVE",
"601 101 LINE",
"595 98 OFFCURVE",
"575 90 OFFCURVE",
"560 90 CURVE SMOOTH",
"547 90 OFFCURVE",
"531 98 OFFCURVE",
"531 120 CURVE SMOOTH"
);
}
);
width = 612;
}
);
unicode = 0075;
},
{
glyphname = v;
lastChange = "2014-09-05 18:35:58 +0000";
layers = (
{
background = {
paths = (
{
closed = 1;
nodes = (
"530 511 LINE",
"388 511 LINE",
"277 169 LINE",
"272 169 LINE",
"161 511 LINE",
"6 511 LINE",
"185 0 LINE",
"350 0 LINE"
);
}
);
};
layerId = "D9505699-D8FA-43B1-90A1-014B81D3291F";
paths = (
{
closed = 1;
nodes = (
"530 511 LINE",
"388 511 LINE",
"277 169 LINE",
"272 169 LINE",
"161 511 LINE",
"6 511 LINE",
"185 0 LINE",
"350 0 LINE"
);
}
);
width = 536;
}
);
unicode = 0076;
},
{
glyphname = w;
lastChange = "2014-09-05 18:35:58 +0000";
layers = (
{
anchors = (
{
name = top;
position = "{410, 511}";
}
);
background = {
anchors = (
{
name = top;
position = "{410, 511}";
}
);
paths = (
{
closed = 1;
nodes = (
"413 285 LINE",
"497 0 LINE",
"658 0 LINE",
"814 511 LINE",
"672 511 LINE",
"643 405 OFFCURVE",
"613 300 OFFCURVE",
"583 195 CURVE",
"577 195 LINE",
"547 300 OFFCURVE",
"518 405 OFFCURVE",
"488 511 CURVE",
"342 511 LINE",
"312 405 OFFCURVE",
"281 300 OFFCURVE",
"251 195 CURVE",
"245 195 LINE",
"216 300 OFFCURVE",
"187 405 OFFCURVE",
"157 511 CURVE",
"6 511 LINE",
"162 0 LINE",
"325 0 LINE",
"353 95 OFFCURVE",
"380 190 OFFCURVE",
"407 285 CURVE"
);
}
);
};
layerId = "D9505699-D8FA-43B1-90A1-014B81D3291F";
paths = (
{
closed = 1;
nodes = (
"413 285 LINE",
"497 0 LINE",
"658 0 LINE",
"814 511 LINE",
"672 511 LINE",
"643 405 OFFCURVE",
"613 300 OFFCURVE",
"583 195 CURVE",
"577 195 LINE",
"547 300 OFFCURVE",
"518 405 OFFCURVE",
"488 511 CURVE",
"342 511 LINE",
"312 405 OFFCURVE",
"281 300 OFFCURVE",
"251 195 CURVE",
"245 195 LINE",
"216 300 OFFCURVE",
"187 405 OFFCURVE",
"157 511 CURVE",
"6 511 LINE",
"162 0 LINE",
"325 0 LINE",
"353 95 OFFCURVE",
"380 190 OFFCURVE",
"407 285 CURVE"
);
}
);
width = 820;
}
);
unicode = 0077;
},
{
glyphname = x;
lastChange = "2014-09-05 18:35:58 +0000";
layers = (
{
background = {
paths = (
{
closed = 1;
nodes = (
"164 0 LINE",
"200 55 OFFCURVE",
"234 110 OFFCURVE",
"269 165 CURVE",
"273 165 LINE",
"377 0 LINE",
"546 0 LINE",
"369 265 LINE",
"536 511 LINE",
"378 511 LINE",
"347 462 OFFCURVE",
"317 413 OFFCURVE",
"285 365 CURVE",
"281 365 LINE",
"250 413 OFFCURVE",
"221 462 OFFCURVE",
"190 511 CURVE",
"20 511 LINE",
"185 264 LINE",
"6 0 LINE"
);
}
);
};
layerId = "D9505699-D8FA-43B1-90A1-014B81D3291F";
paths = (
{
closed = 1;
nodes = (
"164 0 LINE",
"200 55 OFFCURVE",
"234 110 OFFCURVE",
"269 165 CURVE",
"273 165 LINE",
"377 0 LINE",
"546 0 LINE",
"369 265 LINE",
"536 511 LINE",
"378 511 LINE",
"347 462 OFFCURVE",
"317 413 OFFCURVE",
"285 365 CURVE",
"281 365 LINE",
"250 413 OFFCURVE",
"221 462 OFFCURVE",
"190 511 CURVE",
"20 511 LINE",
"185 264 LINE",
"6 0 LINE"
);
}
);
width = 553;
}
);
unicode = 0078;
},
{
glyphname = y;
lastChange = "2014-09-05 18:35:58 +0000";
layers = (
{
anchors = (
{
name = top;
position = "{268, 511}";
}
);
background = {
anchors = (
{
name = top;
position = "{268, 511}";
}
);
paths = (
{
closed = 1;
nodes = (
"530 511 LINE",
"386 511 LINE",
"280 190 LINE",
"274 190 LINE",
"161 511 LINE",
"6 511 LINE",
"199 10 LINE",
"181 -53 OFFCURVE",
"151 -83 OFFCURVE",
"108 -83 CURVE SMOOTH",
"84 -83 OFFCURVE",
"55 -75 OFFCURVE",
"41 -69 CURVE",
"41 -172 LINE",
"63 -182 OFFCURVE",
"92 -187 OFFCURVE",
"127 -187 CURVE SMOOTH",
"236 -187 OFFCURVE",
"303 -92 OFFCURVE",
"348 28 CURVE SMOOTH"
);
}
);
};
layerId = "D9505699-D8FA-43B1-90A1-014B81D3291F";
paths = (
{
closed = 1;
nodes = (
"530 511 LINE",
"386 511 LINE",
"280 190 LINE",
"274 190 LINE",
"161 511 LINE",
"6 511 LINE",
"199 10 LINE",
"181 -53 OFFCURVE",
"151 -83 OFFCURVE",
"108 -83 CURVE SMOOTH",
"84 -83 OFFCURVE",
"55 -75 OFFCURVE",
"41 -69 CURVE",
"41 -172 LINE",
"63 -182 OFFCURVE",
"92 -187 OFFCURVE",
"127 -187 CURVE SMOOTH",
"236 -187 OFFCURVE",
"303 -92 OFFCURVE",
"348 28 CURVE SMOOTH"
);
}
);
width = 536;
}
);
unicode = 0079;
},
{
glyphname = z;
lastChange = "2014-09-05 18:35:58 +0000";
layers = (
{
anchors = (
{
name = top;
position = "{243, 511}";
}
);
background = {
anchors = (
{
name = top;
position = "{243, 511}";
}
);
paths = (
{
closed = 1;
nodes = (
"455 0 LINE",
"455 100 LINE",
"228 100 LINE",
"447 462 LINE",
"447 511 LINE",
"49 511 LINE",
"49 411 LINE",
"254 411 LINE",
"36 50 LINE",
"36 0 LINE"
);
}
);
};
layerId = "D9505699-D8FA-43B1-90A1-014B81D3291F";
paths = (
{
closed = 1;
nodes = (
"455 0 LINE",
"455 100 LINE",
"228 100 LINE",
"447 462 LINE",
"447 511 LINE",
"49 511 LINE",
"49 411 LINE",
"254 411 LINE",
"36 50 LINE",
"36 0 LINE"
);
}
);
width = 486;
}
);
unicode = 007A;
},
{
glyphname = braceleft;
lastChange = "2014-09-05 18:35:58 +0000";
layers = (
{
background = {
paths = (
{
closed = 1;
nodes = (
"40 224 LINE",
"75 224 OFFCURVE",
"117 206 OFFCURVE",
"117 168 CURVE SMOOTH",
"117 -33 LINE SMOOTH",
"117 -152 OFFCURVE",
"226 -159 OFFCURVE",
"307 -159 CURVE",
"307 -100 LINE",
"260 -100 OFFCURVE",
"231 -91 OFFCURVE",
"228 -18 CURVE SMOOTH",
"221 156 LINE SMOOTH",
"218 221 OFFCURVE",
"192 259 OFFCURVE",
"126 259 CURVE",
"126 268 LINE",
"192 268 OFFCURVE",
"218 306 OFFCURVE",
"221 371 CURVE SMOOTH",
"228 545 LINE SMOOTH",
"231 618 OFFCURVE",
"260 627 OFFCURVE",
"307 627 CURVE",
"307 686 LINE",
"226 686 OFFCURVE",
"117 678 OFFCURVE",
"117 560 CURVE SMOOTH",
"117 360 LINE SMOOTH",
"117 319 OFFCURVE",
"75 303 OFFCURVE",
"40 303 CURVE"
);
}
);
};
layerId = "D9505699-D8FA-43B1-90A1-014B81D3291F";
paths = (
{
closed = 1;
nodes = (
"40 224 LINE",
"75 224 OFFCURVE",
"117 206 OFFCURVE",
"117 168 CURVE SMOOTH",
"117 -33 LINE SMOOTH",
"117 -152 OFFCURVE",
"226 -159 OFFCURVE",
"307 -159 CURVE",
"307 -100 LINE",
"260 -100 OFFCURVE",
"231 -91 OFFCURVE",
"228 -18 CURVE SMOOTH",
"221 156 LINE SMOOTH",
"218 221 OFFCURVE",
"192 259 OFFCURVE",
"126 259 CURVE",
"126 268 LINE",
"192 268 OFFCURVE",
"218 306 OFFCURVE",
"221 371 CURVE SMOOTH",
"228 545 LINE SMOOTH",
"231 618 OFFCURVE",
"260 627 OFFCURVE",
"307 627 CURVE",
"307 686 LINE",
"226 686 OFFCURVE",
"117 678 OFFCURVE",
"117 560 CURVE SMOOTH",
"117 360 LINE SMOOTH",
"117 319 OFFCURVE",
"75 303 OFFCURVE",
"40 303 CURVE"
);
}
);
width = 347;
}
);
unicode = 007B;
},
{
glyphname = bar;
lastChange = "2014-09-05 18:35:58 +0000";
layers = (
{
background = {
paths = (
{
closed = 1;
nodes = (
"175 -199 LINE",
"175 720 LINE",
"75 720 LINE",
"75 -199 LINE"
);
}
);
};
layerId = "D9505699-D8FA-43B1-90A1-014B81D3291F";
paths = (
{
closed = 1;
nodes = (
"175 -199 LINE",
"175 720 LINE",
"75 720 LINE",
"75 -199 LINE"
);
}
);
width = 250;
}
);
unicode = 007C;
},
{
glyphname = braceright;
lastChange = "2014-09-05 18:35:58 +0000";
layers = (
{
background = {
paths = (
{
closed = 1;
nodes = (
"306 303 LINE",
"271 303 OFFCURVE",
"229 319 OFFCURVE",
"229 360 CURVE SMOOTH",
"229 560 LINE SMOOTH",
"229 678 OFFCURVE",
"120 686 OFFCURVE",
"39 686 CURVE",
"39 627 LINE",
"86 627 OFFCURVE",
"115 618 OFFCURVE",
"118 545 CURVE SMOOTH",
"125 371 LINE SMOOTH",
"128 306 OFFCURVE",
"154 268 OFFCURVE",
"220 268 CURVE",
"220 259 LINE",
"154 259 OFFCURVE",
"128 221 OFFCURVE",
"125 156 CURVE SMOOTH",
"118 -18 LINE SMOOTH",
"115 -91 OFFCURVE",
"86 -100 OFFCURVE",
"39 -100 CURVE",
"39 -159 LINE",
"120 -159 OFFCURVE",
"229 -152 OFFCURVE",
"229 -33 CURVE SMOOTH",
"229 168 LINE SMOOTH",
"229 206 OFFCURVE",
"271 224 OFFCURVE",
"306 224 CURVE"
);
}
);
};
layerId = "D9505699-D8FA-43B1-90A1-014B81D3291F";
paths = (
{
closed = 1;
nodes = (
"306 303 LINE",
"271 303 OFFCURVE",
"229 319 OFFCURVE",
"229 360 CURVE SMOOTH",
"229 560 LINE SMOOTH",
"229 678 OFFCURVE",
"120 686 OFFCURVE",
"39 686 CURVE",
"39 627 LINE",
"86 627 OFFCURVE",
"115 618 OFFCURVE",
"118 545 CURVE SMOOTH",
"125 371 LINE SMOOTH",
"128 306 OFFCURVE",
"154 268 OFFCURVE",
"220 268 CURVE",
"220 259 LINE",
"154 259 OFFCURVE",
"128 221 OFFCURVE",
"125 156 CURVE SMOOTH",
"118 -18 LINE SMOOTH",
"115 -91 OFFCURVE",
"86 -100 OFFCURVE",
"39 -100 CURVE",
"39 -159 LINE",
"120 -159 OFFCURVE",
"229 -152 OFFCURVE",
"229 -33 CURVE SMOOTH",
"229 168 LINE SMOOTH",
"229 206 OFFCURVE",
"271 224 OFFCURVE",
"306 224 CURVE"
);
}
);
width = 347;
}
);
unicode = 007D;
},
{
glyphname = asciitilde;
lastChange = "2014-09-05 18:35:58 +0000";
layers = (
{
background = {
paths = (
{
closed = 1;
nodes = (
"639 396 LINE",
"639 396 OFFCURVE",
"571 318 OFFCURVE",
"476 318 CURVE SMOOTH",
"388 318 OFFCURVE",
"323 384 OFFCURVE",
"238 384 CURVE SMOOTH",
"143 384 OFFCURVE",
"75 306 OFFCURVE",
"75 306 CURVE",
"75 200 LINE",
"75 200 OFFCURVE",
"143 278 OFFCURVE",
"238 278 CURVE SMOOTH",
"326 278 OFFCURVE",
"391 212 OFFCURVE",
"476 212 CURVE SMOOTH",
"571 212 OFFCURVE",
"639 290 OFFCURVE",
"639 290 CURVE"
);
}
);
};
layerId = "D9505699-D8FA-43B1-90A1-014B81D3291F";
paths = (
{
closed = 1;
nodes = (
"639 396 LINE",
"639 396 OFFCURVE",
"571 318 OFFCURVE",
"476 318 CURVE SMOOTH",
"388 318 OFFCURVE",
"323 384 OFFCURVE",
"238 384 CURVE SMOOTH",
"143 384 OFFCURVE",
"75 306 OFFCURVE",
"75 306 CURVE",
"75 200 LINE",
"75 200 OFFCURVE",
"143 278 OFFCURVE",
"238 278 CURVE SMOOTH",
"326 278 OFFCURVE",
"391 212 OFFCURVE",
"476 212 CURVE SMOOTH",
"571 212 OFFCURVE",
"639 290 OFFCURVE",
"639 290 CURVE"
);
}
);
width = 714;
}
);
unicode = 007E;
},
{
glyphname = exclamdown;
lastChange = "2014-09-05 18:35:58 +0000";
layers = (
{
background = {
paths = (
{
closed = 1;
nodes = (
"218 511 LINE",
"72 511 LINE",
"72 364 LINE",
"218 364 LINE"
);
},
{
closed = 1;
nodes = (
"195 309 LINE",
"98 309 LINE",
"57 -175 LINE",
"234 -175 LINE"
);
}
);
};
layerId = "D9505699-D8FA-43B1-90A1-014B81D3291F";
paths = (
{
closed = 1;
nodes = (
"218 511 LINE",
"72 511 LINE",
"72 364 LINE",
"218 364 LINE"
);
},
{
closed = 1;
nodes = (
"195 309 LINE",
"98 309 LINE",
"57 -175 LINE",
"234 -175 LINE"
);
}
);
width = 290;
}
);
unicode = 00A1;
},
{
glyphname = cent;
lastChange = "2014-09-05 18:35:58 +0000";
layers = (
{
background = {
paths = (
{
closed = 1;
nodes = (
"193 382 LINE SMOOTH",
"193 451 OFFCURVE",
"228 507 OFFCURVE",
"290 507 CURVE SMOOTH",
"352 507 OFFCURVE",
"381 459 OFFCURVE",
"381 393 CURVE",
"526 393 LINE",
"526 520 OFFCURVE",
"435 595 OFFCURVE",
"330 605 CURVE",
"343 693 LINE",
"242 693 LINE",
"254 605 LINE",
"131 591 OFFCURVE",
"45 501 OFFCURVE",
"45 356 CURVE SMOOTH",
"45 327 LINE SMOOTH",
"45 181 OFFCURVE",
"126 91 OFFCURVE",
"254 77 CURVE",
"242 -8 LINE",
"343 -8 LINE",
"331 77 LINE",
"435 86 OFFCURVE",
"526 152 OFFCURVE",
"526 289 CURVE",
"388 289 LINE",
"388 213 OFFCURVE",
"349 176 OFFCURVE",
"289 176 CURVE SMOOTH",
"228 176 OFFCURVE",
"193 228 OFFCURVE",
"193 293 CURVE SMOOTH"
);
}
);
};
layerId = "D9505699-D8FA-43B1-90A1-014B81D3291F";
paths = (
{
closed = 1;
nodes = (
"193 382 LINE SMOOTH",
"193 451 OFFCURVE",
"228 507 OFFCURVE",
"290 507 CURVE SMOOTH",
"352 507 OFFCURVE",
"381 459 OFFCURVE",
"381 393 CURVE",
"526 393 LINE",
"526 520 OFFCURVE",
"435 595 OFFCURVE",
"330 605 CURVE",
"343 693 LINE",
"242 693 LINE",
"254 605 LINE",
"131 591 OFFCURVE",
"45 501 OFFCURVE",
"45 356 CURVE SMOOTH",
"45 327 LINE SMOOTH",
"45 181 OFFCURVE",
"126 91 OFFCURVE",
"254 77 CURVE",
"242 -8 LINE",
"343 -8 LINE",
"331 77 LINE",
"435 86 OFFCURVE",
"526 152 OFFCURVE",
"526 289 CURVE",
"388 289 LINE",
"388 213 OFFCURVE",
"349 176 OFFCURVE",
"289 176 CURVE SMOOTH",
"228 176 OFFCURVE",
"193 228 OFFCURVE",
"193 293 CURVE SMOOTH"
);
}
);
width = 571;
}
);
unicode = 00A2;
},
{
glyphname = sterling;
lastChange = "2014-09-05 18:35:58 +0000";
layers = (
{
background = {
paths = (
{
closed = 1;
nodes = (
"6 279 LINE",
"116 279 LINE",
"116 118 LINE",
"39 118 LINE",
"39 0 LINE",
"538 0 LINE",
"538 118 LINE",
"245 118 LINE",
"264 279 LINE",
"406 279 LINE",
"406 397 LINE",
"264 397 LINE",
"264 499 LINE SMOOTH",
"264 546 OFFCURVE",
"299 579 OFFCURVE",
"348 579 CURVE SMOOTH",
"393 579 OFFCURVE",
"429 541 OFFCURVE",
"429 499 CURVE SMOOTH",
"429 478 LINE",
"578 478 LINE",
"578 496 LINE SMOOTH",
"578 621 OFFCURVE",
"477 698 OFFCURVE",
"348 698 CURVE SMOOTH",
"209 698 OFFCURVE",
"116 613 OFFCURVE",
"116 476 CURVE SMOOTH",
"116 397 LINE",
"6 397 LINE"
);
}
);
};
layerId = "D9505699-D8FA-43B1-90A1-014B81D3291F";
paths = (
{
closed = 1;
nodes = (
"6 279 LINE",
"116 279 LINE",
"116 118 LINE",
"39 118 LINE",
"39 0 LINE",
"538 0 LINE",
"538 118 LINE",
"245 118 LINE",
"264 279 LINE",
"406 279 LINE",
"406 397 LINE",
"264 397 LINE",
"264 499 LINE SMOOTH",
"264 546 OFFCURVE",
"299 579 OFFCURVE",
"348 579 CURVE SMOOTH",
"393 579 OFFCURVE",
"429 541 OFFCURVE",
"429 499 CURVE SMOOTH",
"429 478 LINE",
"578 478 LINE",
"578 496 LINE SMOOTH",
"578 621 OFFCURVE",
"477 698 OFFCURVE",
"348 698 CURVE SMOOTH",
"209 698 OFFCURVE",
"116 613 OFFCURVE",
"116 476 CURVE SMOOTH",
"116 397 LINE",
"6 397 LINE"
);
}
);
width = 654;
}
);
unicode = 00A3;
},
{
glyphname = currency;
lastChange = "2014-09-05 18:35:58 +0000";
layers = (
{
background = {
paths = (
{
closed = 1;
nodes = (
"82 281 OFFCURVE",
"100 230 OFFCURVE",
"131 192 CURVE",
"75 137 LINE",
"130 82 LINE",
"148 101 OFFCURVE",
"166 119 OFFCURVE",
"185 137 CURVE",
"222 107 OFFCURVE",
"274 90 OFFCURVE",
"330 90 CURVE SMOOTH",
"387 90 OFFCURVE",
"440 108 OFFCURVE",
"476 139 CURVE",
"494 120 OFFCURVE",
"514 101 OFFCURVE",
"532 83 CURVE",
"586 137 LINE",
"568 155 OFFCURVE",
"549 173 OFFCURVE",
"531 192 CURVE",
"561 230 OFFCURVE",
"578 283 OFFCURVE",
"578 338 CURVE SMOOTH",
"578 393 OFFCURVE",
"561 447 OFFCURVE",
"533 482 CURVE",
"588 537 LINE",
"568 556 OFFCURVE",
"549 575 OFFCURVE",
"530 595 CURVE",
"474 539 LINE",
"440 567 OFFCURVE",
"387 586 OFFCURVE",
"330 586 CURVE SMOOTH",
"276 586 OFFCURVE",
"221 567 OFFCURVE",
"185 539 CURVE",
"131 593 LINE",
"76 538 LINE",
"130 483 LINE",
"99 447 OFFCURVE",
"82 393 OFFCURVE",
"82 338 CURVE SMOOTH"
);
},
{
closed = 1;
nodes = (
"177 425 OFFCURVE",
"244 496 OFFCURVE",
"330 496 CURVE SMOOTH",
"418 496 OFFCURVE",
"484 424 OFFCURVE",
"484 338 CURVE SMOOTH",
"484 251 OFFCURVE",
"418 179 OFFCURVE",
"330 179 CURVE SMOOTH",
"244 179 OFFCURVE",
"177 250 OFFCURVE",
"177 338 CURVE SMOOTH"
);
}
);
};
layerId = "D9505699-D8FA-43B1-90A1-014B81D3291F";
paths = (
{
closed = 1;
nodes = (
"82 281 OFFCURVE",
"100 230 OFFCURVE",
"131 192 CURVE",
"75 137 LINE",
"130 82 LINE",
"148 101 OFFCURVE",
"166 119 OFFCURVE",
"185 137 CURVE",
"222 107 OFFCURVE",
"274 90 OFFCURVE",
"330 90 CURVE SMOOTH",
"387 90 OFFCURVE",
"440 108 OFFCURVE",
"476 139 CURVE",
"494 120 OFFCURVE",
"514 101 OFFCURVE",
"532 83 CURVE",
"586 137 LINE",
"568 155 OFFCURVE",
"549 173 OFFCURVE",
"531 192 CURVE",
"561 230 OFFCURVE",
"578 283 OFFCURVE",
"578 338 CURVE SMOOTH",
"578 393 OFFCURVE",
"561 447 OFFCURVE",
"533 482 CURVE",
"588 537 LINE",
"568 556 OFFCURVE",
"549 575 OFFCURVE",
"530 595 CURVE",
"474 539 LINE",
"440 567 OFFCURVE",
"387 586 OFFCURVE",
"330 586 CURVE SMOOTH",
"276 586 OFFCURVE",
"221 567 OFFCURVE",
"185 539 CURVE",
"131 593 LINE",
"76 538 LINE",
"130 483 LINE",
"99 447 OFFCURVE",
"82 393 OFFCURVE",
"82 338 CURVE SMOOTH"
);
},
{
closed = 1;
nodes = (
"177 425 OFFCURVE",
"244 496 OFFCURVE",
"330 496 CURVE SMOOTH",
"418 496 OFFCURVE",
"484 424 OFFCURVE",
"484 338 CURVE SMOOTH",
"484 251 OFFCURVE",
"418 179 OFFCURVE",
"330 179 CURVE SMOOTH",
"244 179 OFFCURVE",
"177 250 OFFCURVE",
"177 338 CURVE SMOOTH"
);
}
);
width = 663;
}
);
unicode = 00A4;
},
{
glyphname = yen;
lastChange = "2014-09-05 18:35:58 +0000";
layers = (
{
background = {
paths = (
{
closed = 1;
nodes = (
"49 370 LINE",
"185 370 LINE",
"197 350 OFFCURVE",
"208 330 OFFCURVE",
"219 310 CURVE",
"49 310 LINE",
"49 231 LINE",
"245 231 LINE",
"245 0 LINE",
"398 0 LINE",
"398 231 LINE",
"598 231 LINE",
"598 310 LINE",
"424 310 LINE",
"457 370 LINE",
"598 370 LINE",
"598 448 LINE",
"500 448 LINE",
"632 686 LINE",
"474 686 LINE",
"427 595 OFFCURVE",
"379 504 OFFCURVE",
"331 414 CURVE",
"327 414 LINE",
"279 504 OFFCURVE",
"231 595 OFFCURVE",
"184 686 CURVE",
"10 686 LINE",
"142 448 LINE",
"49 448 LINE"
);
}
);
};
layerId = "D9505699-D8FA-43B1-90A1-014B81D3291F";
paths = (
{
closed = 1;
nodes = (
"49 370 LINE",
"185 370 LINE",
"197 350 OFFCURVE",
"208 330 OFFCURVE",
"219 310 CURVE",
"49 310 LINE",
"49 231 LINE",
"245 231 LINE",
"245 0 LINE",
"398 0 LINE",
"398 231 LINE",
"598 231 LINE",
"598 310 LINE",
"424 310 LINE",
"457 370 LINE",
"598 370 LINE",
"598 448 LINE",
"500 448 LINE",
"632 686 LINE",
"474 686 LINE",
"427 595 OFFCURVE",
"379 504 OFFCURVE",
"331 414 CURVE",
"327 414 LINE",
"279 504 OFFCURVE",
"231 595 OFFCURVE",
"184 686 CURVE",
"10 686 LINE",
"142 448 LINE",
"49 448 LINE"
);
}
);
width = 642;
}
);
unicode = 00A5;
},
{
glyphname = brokenbar;
lastChange = "2014-09-05 18:35:58 +0000";
layers = (
{
background = {
paths = (
{
closed = 1;
nodes = (
"78 0 LINE",
"198 0 LINE",
"198 270 LINE",
"78 270 LINE"
);
},
{
closed = 1;
nodes = (
"78 415 LINE",
"198 415 LINE",
"198 686 LINE",
"78 686 LINE"
);
}
);
};
layerId = "D9505699-D8FA-43B1-90A1-014B81D3291F";
paths = (
{
closed = 1;
nodes = (
"78 0 LINE",
"198 0 LINE",
"198 270 LINE",
"78 270 LINE"
);
},
{
closed = 1;
nodes = (
"78 415 LINE",
"198 415 LINE",
"198 686 LINE",
"78 686 LINE"
);
}
);
width = 277;
}
);
unicode = 00A6;
},
{
glyphname = section;
lastChange = "2014-09-05 18:35:58 +0000";
layers = (
{
background = {
paths = (
{
closed = 1;
nodes = (
"52 482 OFFCURVE",
"79 434 OFFCURVE",
"121 407 CURVE",
"77 379 OFFCURVE",
"39 327 OFFCURVE",
"39 258 CURVE SMOOTH",
"39 66 OFFCURVE",
"364 76 OFFCURVE",
"364 -37 CURVE SMOOTH",
"364 -67 OFFCURVE",
"330 -89 OFFCURVE",
"273 -89 CURVE SMOOTH",
"216 -89 OFFCURVE",
"185 -62 OFFCURVE",
"185 -27 CURVE",
"56 -27 LINE",
"56 -39 LINE SMOOTH",
"56 -137 OFFCURVE",
"156 -185 OFFCURVE",
"273 -185 CURVE SMOOTH",
"392 -185 OFFCURVE",
"498 -135 OFFCURVE",
"498 -26 CURVE SMOOTH",
"498 28 OFFCURVE",
"471 76 OFFCURVE",
"428 103 CURVE",
"472 131 OFFCURVE",
"511 183 OFFCURVE",
"511 252 CURVE SMOOTH",
"511 444 OFFCURVE",
"186 434 OFFCURVE",
"186 548 CURVE SMOOTH",
"186 577 OFFCURVE",
"220 599 OFFCURVE",
"277 599 CURVE SMOOTH",
"334 599 OFFCURVE",
"365 575 OFFCURVE",
"365 536 CURVE",
"494 536 LINE",
"494 550 LINE SMOOTH",
"494 646 OFFCURVE",
"393 696 OFFCURVE",
"276 696 CURVE SMOOTH",
"158 696 OFFCURVE",
"52 646 OFFCURVE",
"52 536 CURVE SMOOTH"
);
},
{
closed = 1;
nodes = (
"391 185 OFFCURVE",
"368 160 OFFCURVE",
"347 149 CURVE",
"275 183 OFFCURVE",
"162 215 OFFCURVE",
"162 291 CURVE SMOOTH",
"162 323 OFFCURVE",
"184 348 OFFCURVE",
"206 359 CURVE",
"277 325 OFFCURVE",
"391 293 OFFCURVE",
"391 217 CURVE SMOOTH"
);
}
);
};
layerId = "D9505699-D8FA-43B1-90A1-014B81D3291F";
paths = (
{
closed = 1;
nodes = (
"52 482 OFFCURVE",
"79 434 OFFCURVE",
"121 407 CURVE",
"77 379 OFFCURVE",
"39 327 OFFCURVE",
"39 258 CURVE SMOOTH",
"39 66 OFFCURVE",
"364 76 OFFCURVE",
"364 -37 CURVE SMOOTH",
"364 -67 OFFCURVE",
"330 -89 OFFCURVE",
"273 -89 CURVE SMOOTH",
"216 -89 OFFCURVE",
"185 -62 OFFCURVE",
"185 -27 CURVE",
"56 -27 LINE",
"56 -39 LINE SMOOTH",
"56 -137 OFFCURVE",
"156 -185 OFFCURVE",
"273 -185 CURVE SMOOTH",
"392 -185 OFFCURVE",
"498 -135 OFFCURVE",
"498 -26 CURVE SMOOTH",
"498 28 OFFCURVE",
"471 76 OFFCURVE",
"428 103 CURVE",
"472 131 OFFCURVE",
"511 183 OFFCURVE",
"511 252 CURVE SMOOTH",
"511 444 OFFCURVE",
"186 434 OFFCURVE",
"186 548 CURVE SMOOTH",
"186 577 OFFCURVE",
"220 599 OFFCURVE",
"277 599 CURVE SMOOTH",
"334 599 OFFCURVE",
"365 575 OFFCURVE",
"365 536 CURVE",
"494 536 LINE",
"494 550 LINE SMOOTH",
"494 646 OFFCURVE",
"393 696 OFFCURVE",
"276 696 CURVE SMOOTH",
"158 696 OFFCURVE",
"52 646 OFFCURVE",
"52 536 CURVE SMOOTH"
);
},
{
closed = 1;
nodes = (
"391 185 OFFCURVE",
"368 160 OFFCURVE",
"347 149 CURVE",
"275 183 OFFCURVE",
"162 215 OFFCURVE",
"162 291 CURVE SMOOTH",
"162 323 OFFCURVE",
"184 348 OFFCURVE",
"206 359 CURVE",
"277 325 OFFCURVE",
"391 293 OFFCURVE",
"391 217 CURVE SMOOTH"
);
}
);
width = 550;
}
);
unicode = 00A7;
},
{
glyphname = dieresis;
lastChange = "2014-09-05 18:35:58 +0000";
layers = (
{
anchors = (
{
name = _top;
position = "{222, 511}";
}
);
background = {
anchors = (
{
name = _top;
position = "{222, 511}";
}
);
paths = (
{
closed = 1;
nodes = (
"59 618 LINE",
"180 618 LINE",
"180 740 LINE",
"59 740 LINE"
);
},
{
closed = 1;
nodes = (
"263 618 LINE",
"384 618 LINE",
"384 740 LINE",
"263 740 LINE"
);
}
);
};
layerId = "D9505699-D8FA-43B1-90A1-014B81D3291F";
paths = (
{
closed = 1;
nodes = (
"59 618 LINE",
"180 618 LINE",
"180 740 LINE",
"59 740 LINE"
);
},
{
closed = 1;
nodes = (
"263 618 LINE",
"384 618 LINE",
"384 740 LINE",
"263 740 LINE"
);
}
);
width = 440;
}
);
unicode = 00A8;
},
{
glyphname = copyright;
lastChange = "2014-09-05 18:35:58 +0000";
layers = (
{
background = {
paths = (
{
closed = 1;
nodes = (
"724 539 OFFCURVE",
"565 696 OFFCURVE",
"370 696 CURVE SMOOTH",
"174 696 OFFCURVE",
"16 539 OFFCURVE",
"16 344 CURVE SMOOTH",
"16 147 OFFCURVE",
"174 -10 OFFCURVE",
"370 -10 CURVE SMOOTH",
"565 -10 OFFCURVE",
"724 147 OFFCURVE",
"724 344 CURVE SMOOTH"
);
},
{
closed = 1;
nodes = (
"665 165 OFFCURVE",
"542 42 OFFCURVE",
"370 42 CURVE SMOOTH",
"195 42 OFFCURVE",
"74 165 OFFCURVE",
"74 344 CURVE SMOOTH",
"74 519 OFFCURVE",
"195 643 OFFCURVE",
"370 643 CURVE SMOOTH",
"542 643 OFFCURVE",
"665 519 OFFCURVE",
"665 344 CURVE SMOOTH"
);
},
{
closed = 1;
nodes = (
"287 386 LINE SMOOTH",
"287 449 OFFCURVE",
"325 482 OFFCURVE",
"374 482 CURVE SMOOTH",
"426 482 OFFCURVE",
"455 449 OFFCURVE",
"455 386 CURVE",
"543 386 LINE",
"543 500 OFFCURVE",
"470 556 OFFCURVE",
"376 556 CURVE SMOOTH",
"368 556 LINE SMOOTH",
"269 556 OFFCURVE",
"189 490 OFFCURVE",
"189 373 CURVE SMOOTH",
"189 314 LINE SMOOTH",
"189 193 OFFCURVE",
"267 130 OFFCURVE",
"370 130 CURVE SMOOTH",
"379 130 LINE SMOOTH",
"471 130 OFFCURVE",
"543 189 OFFCURVE",
"543 299 CURVE",
"458 299 LINE",
"458 234 OFFCURVE",
"432 204 OFFCURVE",
"374 204 CURVE SMOOTH",
"326 204 OFFCURVE",
"287 237 OFFCURVE",
"287 300 CURVE SMOOTH"
);
}
);
};
layerId = "D9505699-D8FA-43B1-90A1-014B81D3291F";
paths = (
{
closed = 1;
nodes = (
"724 539 OFFCURVE",
"565 696 OFFCURVE",
"370 696 CURVE SMOOTH",
"174 696 OFFCURVE",
"16 539 OFFCURVE",
"16 344 CURVE SMOOTH",
"16 147 OFFCURVE",
"174 -10 OFFCURVE",
"370 -10 CURVE SMOOTH",
"565 -10 OFFCURVE",
"724 147 OFFCURVE",
"724 344 CURVE SMOOTH"
);
},
{
closed = 1;
nodes = (
"665 165 OFFCURVE",
"542 42 OFFCURVE",
"370 42 CURVE SMOOTH",
"195 42 OFFCURVE",
"74 165 OFFCURVE",
"74 344 CURVE SMOOTH",
"74 519 OFFCURVE",
"195 643 OFFCURVE",
"370 643 CURVE SMOOTH",
"542 643 OFFCURVE",
"665 519 OFFCURVE",
"665 344 CURVE SMOOTH"
);
},
{
closed = 1;
nodes = (
"287 386 LINE SMOOTH",
"287 449 OFFCURVE",
"325 482 OFFCURVE",
"374 482 CURVE SMOOTH",
"426 482 OFFCURVE",
"455 449 OFFCURVE",
"455 386 CURVE",
"543 386 LINE",
"543 500 OFFCURVE",
"470 556 OFFCURVE",
"376 556 CURVE SMOOTH",
"368 556 LINE SMOOTH",
"269 556 OFFCURVE",
"189 490 OFFCURVE",
"189 373 CURVE SMOOTH",
"189 314 LINE SMOOTH",
"189 193 OFFCURVE",
"267 130 OFFCURVE",
"370 130 CURVE SMOOTH",
"379 130 LINE SMOOTH",
"471 130 OFFCURVE",
"543 189 OFFCURVE",
"543 299 CURVE",
"458 299 LINE",
"458 234 OFFCURVE",
"432 204 OFFCURVE",
"374 204 CURVE SMOOTH",
"326 204 OFFCURVE",
"287 237 OFFCURVE",
"287 300 CURVE SMOOTH"
);
}
);
width = 740;
}
);
unicode = 00A9;
},
{
glyphname = ordfeminine;
lastChange = "2014-09-05 18:35:58 +0000";
layers = (
{
background = {
paths = (
{
closed = 1;
nodes = (
"231 502 LINE SMOOTH",
"231 461 OFFCURVE",
"192 434 OFFCURVE",
"162 434 CURVE SMOOTH",
"132 434 OFFCURVE",
"117 444 OFFCURVE",
"117 471 CURVE SMOOTH",
"117 506 OFFCURVE",
"156 519 OFFCURVE",
"231 519 CURVE"
);
},
{
closed = 1;
nodes = (
"231 569 LINE",
"106 569 OFFCURVE",
"25 553 OFFCURVE",
"25 464 CURVE SMOOTH",
"25 386 OFFCURVE",
"81 374 OFFCURVE",
"131 374 CURVE SMOOTH",
"180 374 OFFCURVE",
"214 400 OFFCURVE",
"235 426 CURVE",
"239 394 OFFCURVE",
"260 374 OFFCURVE",
"307 374 CURVE SMOOTH",
"337 374 OFFCURVE",
"356 384 OFFCURVE",
"360 386 CURVE",
"360 441 LINE",
"356 439 OFFCURVE",
"344 434 OFFCURVE",
"335 434 CURVE SMOOTH",
"327 434 OFFCURVE",
"318 441 OFFCURVE",
"318 456 CURVE SMOOTH",
"318 600 LINE SMOOTH",
"318 657 OFFCURVE",
"274 696 OFFCURVE",
"184 696 CURVE SMOOTH",
"171 696 LINE SMOOTH",
"90 696 OFFCURVE",
"35 658 OFFCURVE",
"35 606 CURVE SMOOTH",
"35 601 OFFCURVE",
"35 598 OFFCURVE",
"36 595 CURVE",
"121 595 LINE",
"121 600 LINE SMOOTH",
"121 613 OFFCURVE",
"140 635 OFFCURVE",
"176 635 CURVE SMOOTH",
"217 635 OFFCURVE",
"231 615 OFFCURVE",
"231 589 CURVE SMOOTH"
);
}
);
};
layerId = "D9505699-D8FA-43B1-90A1-014B81D3291F";
paths = (
{
closed = 1;
nodes = (
"231 502 LINE SMOOTH",
"231 461 OFFCURVE",
"192 434 OFFCURVE",
"162 434 CURVE SMOOTH",
"132 434 OFFCURVE",
"117 444 OFFCURVE",
"117 471 CURVE SMOOTH",
"117 506 OFFCURVE",
"156 519 OFFCURVE",
"231 519 CURVE"
);
},
{
closed = 1;
nodes = (
"231 569 LINE",
"106 569 OFFCURVE",
"25 553 OFFCURVE",
"25 464 CURVE SMOOTH",
"25 386 OFFCURVE",
"81 374 OFFCURVE",
"131 374 CURVE SMOOTH",
"180 374 OFFCURVE",
"214 400 OFFCURVE",
"235 426 CURVE",
"239 394 OFFCURVE",
"260 374 OFFCURVE",
"307 374 CURVE SMOOTH",
"337 374 OFFCURVE",
"356 384 OFFCURVE",
"360 386 CURVE",
"360 441 LINE",
"356 439 OFFCURVE",
"344 434 OFFCURVE",
"335 434 CURVE SMOOTH",
"327 434 OFFCURVE",
"318 441 OFFCURVE",
"318 456 CURVE SMOOTH",
"318 600 LINE SMOOTH",
"318 657 OFFCURVE",
"274 696 OFFCURVE",
"184 696 CURVE SMOOTH",
"171 696 LINE SMOOTH",
"90 696 OFFCURVE",
"35 658 OFFCURVE",
"35 606 CURVE SMOOTH",
"35 601 OFFCURVE",
"35 598 OFFCURVE",
"36 595 CURVE",
"121 595 LINE",
"121 600 LINE SMOOTH",
"121 613 OFFCURVE",
"140 635 OFFCURVE",
"176 635 CURVE SMOOTH",
"217 635 OFFCURVE",
"231 615 OFFCURVE",
"231 589 CURVE SMOOTH"
);
}
);
width = 389;
}
);
unicode = 00AA;
},
{
glyphname = guillemetleft;
lastChange = "2014-09-05 18:35:58 +0000";
layers = (
{
background = {
paths = (
{
closed = 1;
nodes = (
"412 163 LINE",
"323 337 LINE",
"412 511 LINE",
"350 511 LINE",
"228 337 LINE",
"350 163 LINE"
);
},
{
closed = 1;
nodes = (
"230 163 LINE",
"141 337 LINE",
"230 511 LINE",
"168 511 LINE",
"47 337 LINE",
"168 163 LINE"
);
}
);
};
layerId = "D9505699-D8FA-43B1-90A1-014B81D3291F";
paths = (
{
closed = 1;
nodes = (
"412 163 LINE",
"323 337 LINE",
"412 511 LINE",
"350 511 LINE",
"228 337 LINE",
"350 163 LINE"
);
},
{
closed = 1;
nodes = (
"230 163 LINE",
"141 337 LINE",
"230 511 LINE",
"168 511 LINE",
"47 337 LINE",
"168 163 LINE"
);
}
);
width = 459;
}
);
unicode = 00AB;
},
{
glyphname = logicalnot;
lastChange = "2014-09-05 18:35:58 +0000";
layers = (
{
background = {
paths = (
{
closed = 1;
nodes = (
"564 468 LINE",
"35 468 LINE",
"35 347 LINE",
"447 347 LINE",
"447 166 LINE",
"564 166 LINE"
);
}
);
};
layerId = "D9505699-D8FA-43B1-90A1-014B81D3291F";
paths = (
{
closed = 1;
nodes = (
"564 468 LINE",
"35 468 LINE",
"35 347 LINE",
"447 347 LINE",
"447 166 LINE",
"564 166 LINE"
);
}
);
width = 600;
}
);
unicode = 00AC;
},
{
glyphname = softhyphen;
lastChange = "2014-09-05 18:35:58 +0000";
layers = (
{
background = {
paths = (
{
closed = 1;
nodes = (
"0 208 LINE",
"253 208 LINE",
"253 336 LINE",
"0 336 LINE"
);
}
);
};
layerId = "D9505699-D8FA-43B1-90A1-014B81D3291F";
paths = (
{
closed = 1;
nodes = (
"0 208 LINE",
"253 208 LINE",
"253 336 LINE",
"0 336 LINE"
);
}
);
width = 260;
}
);
unicode = 00AD;
},
{
glyphname = registered;
lastChange = "2014-09-05 18:35:58 +0000";
layers = (
{
background = {
paths = (
{
closed = 1;
nodes = (
"724 539 OFFCURVE",
"565 696 OFFCURVE",
"370 696 CURVE SMOOTH",
"174 696 OFFCURVE",
"16 539 OFFCURVE",
"16 344 CURVE SMOOTH",
"16 147 OFFCURVE",
"174 -10 OFFCURVE",
"370 -10 CURVE SMOOTH",
"565 -10 OFFCURVE",
"724 147 OFFCURVE",
"724 344 CURVE SMOOTH"
);
},
{
closed = 1;
nodes = (
"666 165 OFFCURVE",
"542 42 OFFCURVE",
"370 42 CURVE SMOOTH",
"195 42 OFFCURVE",
"74 165 OFFCURVE",
"74 344 CURVE SMOOTH",
"74 520 OFFCURVE",
"195 644 OFFCURVE",
"370 644 CURVE SMOOTH",
"542 644 OFFCURVE",
"666 520 OFFCURVE",
"666 344 CURVE SMOOTH"
);
},
{
closed = 1;
nodes = (
"562 161 LINE",
"535 169 OFFCURVE",
"531 210 OFFCURVE",
"531 237 CURVE SMOOTH",
"531 305 OFFCURVE",
"494 337 OFFCURVE",
"465 346 CURVE",
"465 351 LINE",
"507 359 OFFCURVE",
"539 404 OFFCURVE",
"539 448 CURVE SMOOTH",
"539 527 OFFCURVE",
"468 551 OFFCURVE",
"399 551 CURVE SMOOTH",
"214 551 LINE",
"214 137 LINE",
"306 137 LINE",
"306 308 LINE",
"376 308 LINE SMOOTH",
"430 308 OFFCURVE",
"441 258 OFFCURVE",
"441 198 CURVE SMOOTH",
"441 147 OFFCURVE",
"474 132 OFFCURVE",
"510 132 CURVE SMOOTH",
"527 132 OFFCURVE",
"548 135 OFFCURVE",
"562 140 CURVE"
);
},
{
closed = 1;
nodes = (
"306 381 LINE",
"306 476 LINE",
"396 476 LINE SMOOTH",
"425 476 OFFCURVE",
"445 457 OFFCURVE",
"445 431 CURVE SMOOTH",
"445 426 LINE SMOOTH",
"445 401 OFFCURVE",
"423 381 OFFCURVE",
"396 381 CURVE SMOOTH"
);
}
);
};
layerId = "D9505699-D8FA-43B1-90A1-014B81D3291F";
paths = (
{
closed = 1;
nodes = (
"724 539 OFFCURVE",
"565 696 OFFCURVE",
"370 696 CURVE SMOOTH",
"174 696 OFFCURVE",
"16 539 OFFCURVE",
"16 344 CURVE SMOOTH",
"16 147 OFFCURVE",
"174 -10 OFFCURVE",
"370 -10 CURVE SMOOTH",
"565 -10 OFFCURVE",
"724 147 OFFCURVE",
"724 344 CURVE SMOOTH"
);
},
{
closed = 1;
nodes = (
"666 165 OFFCURVE",
"542 42 OFFCURVE",
"370 42 CURVE SMOOTH",
"195 42 OFFCURVE",
"74 165 OFFCURVE",
"74 344 CURVE SMOOTH",
"74 520 OFFCURVE",
"195 644 OFFCURVE",
"370 644 CURVE SMOOTH",
"542 644 OFFCURVE",
"666 520 OFFCURVE",
"666 344 CURVE SMOOTH"
);
},
{
closed = 1;
nodes = (
"562 161 LINE",
"535 169 OFFCURVE",
"531 210 OFFCURVE",
"531 237 CURVE SMOOTH",
"531 305 OFFCURVE",
"494 337 OFFCURVE",
"465 346 CURVE",
"465 351 LINE",
"507 359 OFFCURVE",
"539 404 OFFCURVE",
"539 448 CURVE SMOOTH",
"539 527 OFFCURVE",
"468 551 OFFCURVE",
"399 551 CURVE SMOOTH",
"214 551 LINE",
"214 137 LINE",
"306 137 LINE",
"306 308 LINE",
"376 308 LINE SMOOTH",
"430 308 OFFCURVE",
"441 258 OFFCURVE",
"441 198 CURVE SMOOTH",
"441 147 OFFCURVE",
"474 132 OFFCURVE",
"510 132 CURVE SMOOTH",
"527 132 OFFCURVE",
"548 135 OFFCURVE",
"562 140 CURVE"
);
},
{
closed = 1;
nodes = (
"306 381 LINE",
"306 476 LINE",
"396 476 LINE SMOOTH",
"425 476 OFFCURVE",
"445 457 OFFCURVE",
"445 431 CURVE SMOOTH",
"445 426 LINE SMOOTH",
"445 401 OFFCURVE",
"423 381 OFFCURVE",
"396 381 CURVE SMOOTH"
);
}
);
width = 740;
}
);
unicode = 00AE;
},
{
glyphname = macron;
lastChange = "2014-09-05 18:35:58 +0000";
layers = (
{
anchors = (
{
name = _top;
position = "{230, 511}";
}
);
background = {
anchors = (
{
name = _top;
position = "{230, 511}";
}
);
paths = (
{
closed = 1;
nodes = (
"389 662 LINE",
"389 736 LINE",
"71 736 LINE",
"71 662 LINE"
);
}
);
};
layerId = "D9505699-D8FA-43B1-90A1-014B81D3291F";
paths = (
{
closed = 1;
nodes = (
"389 662 LINE",
"389 736 LINE",
"71 736 LINE",
"71 662 LINE"
);
}
);
width = 460;
}
);
unicode = 00AF;
},
{
glyphname = degree;
lastChange = "2014-09-05 18:35:58 +0000";
layers = (
{
background = {
paths = (
{
closed = 1;
nodes = (
"350 628 OFFCURVE",
"282 696 OFFCURVE",
"200 696 CURVE SMOOTH",
"117 696 OFFCURVE",
"50 628 OFFCURVE",
"50 546 CURVE SMOOTH",
"50 463 OFFCURVE",
"117 396 OFFCURVE",
"200 396 CURVE SMOOTH",
"282 396 OFFCURVE",
"350 463 OFFCURVE",
"350 546 CURVE SMOOTH"
);
},
{
closed = 1;
nodes = (
"276 504 OFFCURVE",
"242 470 OFFCURVE",
"200 470 CURVE SMOOTH",
"158 470 OFFCURVE",
"124 504 OFFCURVE",
"124 546 CURVE SMOOTH",
"124 588 OFFCURVE",
"158 622 OFFCURVE",
"200 622 CURVE SMOOTH",
"242 622 OFFCURVE",
"276 588 OFFCURVE",
"276 546 CURVE SMOOTH"
);
}
);
};
layerId = "D9505699-D8FA-43B1-90A1-014B81D3291F";
paths = (
{
closed = 1;
nodes = (
"350 628 OFFCURVE",
"282 696 OFFCURVE",
"200 696 CURVE SMOOTH",
"117 696 OFFCURVE",
"50 628 OFFCURVE",
"50 546 CURVE SMOOTH",
"50 463 OFFCURVE",
"117 396 OFFCURVE",
"200 396 CURVE SMOOTH",
"282 396 OFFCURVE",
"350 463 OFFCURVE",
"350 546 CURVE SMOOTH"
);
},
{
closed = 1;
nodes = (
"276 504 OFFCURVE",
"242 470 OFFCURVE",
"200 470 CURVE SMOOTH",
"158 470 OFFCURVE",
"124 504 OFFCURVE",
"124 546 CURVE SMOOTH",
"124 588 OFFCURVE",
"158 622 OFFCURVE",
"200 622 CURVE SMOOTH",
"242 622 OFFCURVE",
"276 588 OFFCURVE",
"276 546 CURVE SMOOTH"
);
}
);
width = 400;
}
);
unicode = 00B0;
},
{
glyphname = plusminus;
lastChange = "2014-09-05 18:35:58 +0000";
layers = (
{
background = {
paths = (
{
closed = 1;
nodes = (
"553 0 LINE",
"553 105 LINE",
"46 105 LINE",
"46 0 LINE"
);
},
{
closed = 1;
nodes = (
"352 511 LINE",
"247 511 LINE",
"247 382 LINE",
"44 382 LINE",
"44 276 LINE",
"247 276 LINE",
"247 147 LINE",
"352 147 LINE",
"352 276 LINE",
"556 276 LINE",
"556 382 LINE",
"352 382 LINE"
);
}
);
};
layerId = "D9505699-D8FA-43B1-90A1-014B81D3291F";
paths = (
{
closed = 1;
nodes = (
"553 0 LINE",
"553 105 LINE",
"46 105 LINE",
"46 0 LINE"
);
},
{
closed = 1;
nodes = (
"352 511 LINE",
"247 511 LINE",
"247 382 LINE",
"44 382 LINE",
"44 276 LINE",
"247 276 LINE",
"247 147 LINE",
"352 147 LINE",
"352 276 LINE",
"556 276 LINE",
"556 382 LINE",
"352 382 LINE"
);
}
);
width = 600;
}
);
unicode = 00B1;
},
{
glyphname = twosuperior;
lastChange = "2014-09-05 18:35:58 +0000";
layers = (
{
background = {
paths = (
{
closed = 1;
nodes = (
"42 419 LINE",
"315 419 LINE",
"315 489 LINE",
"144 489 LINE",
"150 497 OFFCURVE",
"169 511 OFFCURVE",
"175 515 CURVE",
"269 586 OFFCURVE",
"314 618 OFFCURVE",
"314 687 CURVE SMOOTH",
"314 745 OFFCURVE",
"272 802 OFFCURVE",
"186 802 CURVE SMOOTH",
"178 802 LINE SMOOTH",
"71 802 OFFCURVE",
"42 719 OFFCURVE",
"42 676 CURVE SMOOTH",
"42 673 OFFCURVE",
"42 670 OFFCURVE",
"43 666 CURVE",
"117 666 LINE",
"117 680 LINE SMOOTH",
"117 694 OFFCURVE",
"127 735 OFFCURVE",
"175 735 CURVE SMOOTH",
"208 735 OFFCURVE",
"233 715 OFFCURVE",
"233 685 CURVE SMOOTH",
"233 662 OFFCURVE",
"224 639 OFFCURVE",
"197 618 CURVE SMOOTH",
"161 590 OFFCURVE",
"121 563 OFFCURVE",
"89 531 CURVE",
"65 511 OFFCURVE",
"42 483 OFFCURVE",
"42 435 CURVE SMOOTH"
);
}
);
};
layerId = "D9505699-D8FA-43B1-90A1-014B81D3291F";
paths = (
{
closed = 1;
nodes = (
"42 419 LINE",
"315 419 LINE",
"315 489 LINE",
"144 489 LINE",
"150 497 OFFCURVE",
"169 511 OFFCURVE",
"175 515 CURVE",
"269 586 OFFCURVE",
"314 618 OFFCURVE",
"314 687 CURVE SMOOTH",
"314 745 OFFCURVE",
"272 802 OFFCURVE",
"186 802 CURVE SMOOTH",
"178 802 LINE SMOOTH",
"71 802 OFFCURVE",
"42 719 OFFCURVE",
"42 676 CURVE SMOOTH",
"42 673 OFFCURVE",
"42 670 OFFCURVE",
"43 666 CURVE",
"117 666 LINE",
"117 680 LINE SMOOTH",
"117 694 OFFCURVE",
"127 735 OFFCURVE",
"175 735 CURVE SMOOTH",
"208 735 OFFCURVE",
"233 715 OFFCURVE",
"233 685 CURVE SMOOTH",
"233 662 OFFCURVE",
"224 639 OFFCURVE",
"197 618 CURVE SMOOTH",
"161 590 OFFCURVE",
"121 563 OFFCURVE",
"89 531 CURVE",
"65 511 OFFCURVE",
"42 483 OFFCURVE",
"42 435 CURVE SMOOTH"
);
}
);
width = 505;
}
);
unicode = 00B2;
},
{
glyphname = threesuperior;
lastChange = "2014-09-05 18:35:58 +0000";
layers = (
{
background = {
paths = (
{
closed = 1;
nodes = (
"36 523 LINE SMOOTH",
"36 459 OFFCURVE",
"85 412 OFFCURVE",
"173 412 CURVE SMOOTH",
"188 412 LINE SMOOTH",
"272 412 OFFCURVE",
"325 458 OFFCURVE",
"325 520 CURVE SMOOTH",
"325 568 OFFCURVE",
"299 598 OFFCURVE",
"259 611 CURVE",
"259 616 LINE",
"292 631 OFFCURVE",
"315 657 OFFCURVE",
"315 698 CURVE SMOOTH",
"315 757 OFFCURVE",
"262 800 OFFCURVE",
"188 800 CURVE SMOOTH",
"177 800 LINE SMOOTH",
"100 800 OFFCURVE",
"46 757 OFFCURVE",
"46 697 CURVE SMOOTH",
"46 686 LINE",
"120 686 LINE",
"120 718 OFFCURVE",
"146 735 OFFCURVE",
"176 735 CURVE SMOOTH",
"207 735 OFFCURVE",
"234 720 OFFCURVE",
"234 688 CURVE SMOOTH",
"234 655 OFFCURVE",
"209 639 OFFCURVE",
"178 639 CURVE SMOOTH",
"133 639 LINE",
"133 580 LINE",
"172 580 LINE SMOOTH",
"207 580 OFFCURVE",
"243 575 OFFCURVE",
"243 530 CURVE SMOOTH",
"243 495 OFFCURVE",
"219 477 OFFCURVE",
"176 477 CURVE SMOOTH",
"133 477 OFFCURVE",
"111 495 OFFCURVE",
"111 530 CURVE",
"36 530 LINE"
);
}
);
};
layerId = "D9505699-D8FA-43B1-90A1-014B81D3291F";
paths = (
{
closed = 1;
nodes = (
"36 523 LINE SMOOTH",
"36 459 OFFCURVE",
"85 412 OFFCURVE",
"173 412 CURVE SMOOTH",
"188 412 LINE SMOOTH",
"272 412 OFFCURVE",
"325 458 OFFCURVE",
"325 520 CURVE SMOOTH",
"325 568 OFFCURVE",
"299 598 OFFCURVE",
"259 611 CURVE",
"259 616 LINE",
"292 631 OFFCURVE",
"315 657 OFFCURVE",
"315 698 CURVE SMOOTH",
"315 757 OFFCURVE",
"262 800 OFFCURVE",
"188 800 CURVE SMOOTH",
"177 800 LINE SMOOTH",
"100 800 OFFCURVE",
"46 757 OFFCURVE",
"46 697 CURVE SMOOTH",
"46 686 LINE",
"120 686 LINE",
"120 718 OFFCURVE",
"146 735 OFFCURVE",
"176 735 CURVE SMOOTH",
"207 735 OFFCURVE",
"234 720 OFFCURVE",
"234 688 CURVE SMOOTH",
"234 655 OFFCURVE",
"209 639 OFFCURVE",
"178 639 CURVE SMOOTH",
"133 639 LINE",
"133 580 LINE",
"172 580 LINE SMOOTH",
"207 580 OFFCURVE",
"243 575 OFFCURVE",
"243 530 CURVE SMOOTH",
"243 495 OFFCURVE",
"219 477 OFFCURVE",
"176 477 CURVE SMOOTH",
"133 477 OFFCURVE",
"111 495 OFFCURVE",
"111 530 CURVE",
"36 530 LINE"
);
}
);
width = 506;
}
);
unicode = 00B3;
},
{
glyphname = acute;
lastChange = "2014-09-05 18:49:11 +0000";
layers = (
{
anchors = (
{
name = _top;
position = "{132, 511}";
}
);
background = {
anchors = (
{
name = _top;
position = "{162, 511}";
}
);
paths = (
{
closed = 1;
nodes = (
"152 575 LINE",
"273 717 LINE",
"272 720 LINE",
"143 720 LINE",
"51 575 LINE"
);
}
);
};
layerId = "D9505699-D8FA-43B1-90A1-014B81D3291F";
paths = (
{
closed = 1;
nodes = (
"152 575 LINE",
"273 717 LINE",
"272 720 LINE",
"143 720 LINE",
"51 575 LINE"
);
}
);
width = 333;
}
);
unicode = 00B4;
},
{
glyphname = paragraph;
lastChange = "2014-09-05 18:35:58 +0000";
layers = (
{
background = {
paths = (
{
closed = 1;
nodes = (
"225 -165 LINE",
"301 -165 LINE",
"301 616 LINE",
"375 616 LINE",
"375 -165 LINE",
"450 -165 LINE",
"450 616 LINE",
"516 616 LINE",
"516 686 LINE",
"243 686 LINE SMOOTH",
"122 686 OFFCURVE",
"26 588 OFFCURVE",
"26 468 CURVE SMOOTH",
"26 353 OFFCURVE",
"113 260 OFFCURVE",
"225 251 CURVE"
);
}
);
};
layerId = "D9505699-D8FA-43B1-90A1-014B81D3291F";
paths = (
{
closed = 1;
nodes = (
"225 -165 LINE",
"301 -165 LINE",
"301 616 LINE",
"375 616 LINE",
"375 -165 LINE",
"450 -165 LINE",
"450 616 LINE",
"516 616 LINE",
"516 686 LINE",
"243 686 LINE SMOOTH",
"122 686 OFFCURVE",
"26 588 OFFCURVE",
"26 468 CURVE SMOOTH",
"26 353 OFFCURVE",
"113 260 OFFCURVE",
"225 251 CURVE"
);
}
);
width = 526;
}
);
unicode = 00B6;
},
{
glyphname = periodcentered;
lastChange = "2014-09-05 18:35:58 +0000";
layers = (
{
background = {
paths = (
{
closed = 1;
nodes = (
"65 214 LINE",
"211 214 LINE",
"211 362 LINE",
"65 362 LINE"
);
}
);
};
layerId = "D9505699-D8FA-43B1-90A1-014B81D3291F";
paths = (
{
closed = 1;
nodes = (
"65 214 LINE",
"211 214 LINE",
"211 362 LINE",
"65 362 LINE"
);
}
);
width = 277;
}
);
unicode = 00B7;
},
{
glyphname = cedilla;
lastChange = "2014-09-05 18:35:58 +0000";
layers = (
{
anchors = (
{
name = _bottom;
position = "{172, 0}";
}
);
background = {
anchors = (
{
name = _bottom;
position = "{172, 0}";
}
);
paths = (
{
closed = 1;
nodes = (
"58 -168 LINE",
"85 -187 OFFCURVE",
"129 -197 OFFCURVE",
"166 -197 CURVE SMOOTH",
"210 -197 OFFCURVE",
"285 -182 OFFCURVE",
"285 -107 CURVE SMOOTH",
"285 -34 OFFCURVE",
"226 -17 OFFCURVE",
"169 -17 CURVE SMOOTH",
"146 -17 LINE",
"146 -68 LINE",
"166 -68 LINE SMOOTH",
"194 -68 OFFCURVE",
"211 -81 OFFCURVE",
"211 -104 CURVE SMOOTH",
"211 -131 OFFCURVE",
"189 -142 OFFCURVE",
"162 -142 CURVE SMOOTH",
"115 -142 OFFCURVE",
"85 -119 OFFCURVE",
"79 -116 CURVE"
);
}
);
};
layerId = "D9505699-D8FA-43B1-90A1-014B81D3291F";
paths = (
{
closed = 1;
nodes = (
"58 -168 LINE",
"85 -187 OFFCURVE",
"129 -197 OFFCURVE",
"166 -197 CURVE SMOOTH",
"210 -197 OFFCURVE",
"285 -182 OFFCURVE",
"285 -107 CURVE SMOOTH",
"285 -34 OFFCURVE",
"226 -17 OFFCURVE",
"169 -17 CURVE SMOOTH",
"146 -17 LINE",
"146 -68 LINE",
"166 -68 LINE SMOOTH",
"194 -68 OFFCURVE",
"211 -81 OFFCURVE",
"211 -104 CURVE SMOOTH",
"211 -131 OFFCURVE",
"189 -142 OFFCURVE",
"162 -142 CURVE SMOOTH",
"115 -142 OFFCURVE",
"85 -119 OFFCURVE",
"79 -116 CURVE"
);
}
);
width = 342;
}
);
unicode = 00B8;
},
{
glyphname = onesuperior;
lastChange = "2014-09-05 18:35:58 +0000";
layers = (
{
background = {
paths = (
{
closed = 1;
nodes = (
"289 422 LINE",
"289 487 LINE",
"210 487 LINE",
"210 796 LINE",
"181 796 LINE",
"137 772 OFFCURVE",
"82 751 OFFCURVE",
"40 748 CURVE",
"40 700 LINE",
"130 700 LINE",
"130 487 LINE",
"40 487 LINE",
"40 422 LINE"
);
}
);
};
layerId = "D9505699-D8FA-43B1-90A1-014B81D3291F";
paths = (
{
closed = 1;
nodes = (
"289 422 LINE",
"289 487 LINE",
"210 487 LINE",
"210 796 LINE",
"181 796 LINE",
"137 772 OFFCURVE",
"82 751 OFFCURVE",
"40 748 CURVE",
"40 700 LINE",
"130 700 LINE",
"130 487 LINE",
"40 487 LINE",
"40 422 LINE"
);
}
);
width = 319;
}
);
unicode = 00B9;
},
{
glyphname = ordmasculine;
lastChange = "2014-09-05 18:35:58 +0000";
layers = (
{
background = {
paths = (
{
closed = 1;
nodes = (
"342 544 LINE SMOOTH",
"342 640 OFFCURVE",
"276 696 OFFCURVE",
"191 696 CURVE SMOOTH",
"180 696 LINE SMOOTH",
"95 696 OFFCURVE",
"29 640 OFFCURVE",
"29 544 CURVE SMOOTH",
"29 526 LINE SMOOTH",
"29 429 OFFCURVE",
"95 374 OFFCURVE",
"180 374 CURVE SMOOTH",
"191 374 LINE SMOOTH",
"276 374 OFFCURVE",
"342 429 OFFCURVE",
"342 526 CURVE SMOOTH"
);
},
{
closed = 1;
nodes = (
"252 510 LINE SMOOTH",
"252 460 OFFCURVE",
"223 434 OFFCURVE",
"185 434 CURVE SMOOTH",
"148 434 OFFCURVE",
"119 460 OFFCURVE",
"119 510 CURVE SMOOTH",
"119 560 LINE SMOOTH",
"119 610 OFFCURVE",
"148 635 OFFCURVE",
"185 635 CURVE SMOOTH",
"223 635 OFFCURVE",
"252 610 OFFCURVE",
"252 560 CURVE SMOOTH"
);
}
);
};
layerId = "D9505699-D8FA-43B1-90A1-014B81D3291F";
paths = (
{
closed = 1;
nodes = (
"342 544 LINE SMOOTH",
"342 640 OFFCURVE",
"276 696 OFFCURVE",
"191 696 CURVE SMOOTH",
"180 696 LINE SMOOTH",
"95 696 OFFCURVE",
"29 640 OFFCURVE",
"29 544 CURVE SMOOTH",
"29 526 LINE SMOOTH",
"29 429 OFFCURVE",
"95 374 OFFCURVE",
"180 374 CURVE SMOOTH",
"191 374 LINE SMOOTH",
"276 374 OFFCURVE",
"342 429 OFFCURVE",
"342 526 CURVE SMOOTH"
);
},
{
closed = 1;
nodes = (
"252 510 LINE SMOOTH",
"252 460 OFFCURVE",
"223 434 OFFCURVE",
"185 434 CURVE SMOOTH",
"148 434 OFFCURVE",
"119 460 OFFCURVE",
"119 510 CURVE SMOOTH",
"119 560 LINE SMOOTH",
"119 610 OFFCURVE",
"148 635 OFFCURVE",
"185 635 CURVE SMOOTH",
"223 635 OFFCURVE",
"252 610 OFFCURVE",
"252 560 CURVE SMOOTH"
);
}
);
width = 367;
}
);
unicode = 00BA;
},
{
glyphname = guillemetright;
lastChange = "2014-09-05 18:35:58 +0000";
layers = (
{
background = {
paths = (
{
closed = 1;
nodes = (
"109 163 LINE",
"231 337 LINE",
"109 511 LINE",
"47 511 LINE",
"136 337 LINE",
"47 163 LINE"
);
},
{
closed = 1;
nodes = (
"291 163 LINE",
"412 337 LINE",
"291 511 LINE",
"229 511 LINE",
"318 337 LINE",
"229 163 LINE"
);
}
);
};
layerId = "D9505699-D8FA-43B1-90A1-014B81D3291F";
paths = (
{
closed = 1;
nodes = (
"109 163 LINE",
"231 337 LINE",
"109 511 LINE",
"47 511 LINE",
"136 337 LINE",
"47 163 LINE"
);
},
{
closed = 1;
nodes = (
"291 163 LINE",
"412 337 LINE",
"291 511 LINE",
"229 511 LINE",
"318 337 LINE",
"229 163 LINE"
);
}
);
width = 459;
}
);
unicode = 00BB;
},
{
glyphname = onequarter;
lastChange = "2014-09-05 18:35:58 +0000";
layers = (
{
background = {
paths = (
{
closed = 1;
nodes = (
"636 686 LINE",
"567 686 LINE",
"147 0 LINE",
"219 0 LINE"
);
},
{
closed = 1;
nodes = (
"586 153 LINE",
"482 153 LINE",
"514 190 OFFCURVE",
"581 303 OFFCURVE",
"599 382 CURVE",
"522 382 LINE",
"502 313 OFFCURVE",
"458 213 OFFCURVE",
"420 153 CURVE",
"420 88 LINE",
"586 88 LINE",
"586 0 LINE",
"664 0 LINE",
"664 88 LINE",
"715 88 LINE",
"715 153 LINE",
"664 153 LINE",
"664 336 LINE",
"629 336 LINE",
"622 307 OFFCURVE",
"605 264 OFFCURVE",
"586 235 CURVE"
);
},
{
closed = 1;
nodes = (
"290 306 LINE",
"290 372 LINE",
"200 372 LINE",
"200 685 LINE",
"171 685 LINE",
"126 661 OFFCURVE",
"70 640 OFFCURVE",
"27 637 CURVE",
"27 588 LINE",
"119 588 LINE",
"119 372 LINE",
"28 372 LINE",
"28 306 LINE"
);
}
);
};
layerId = "D9505699-D8FA-43B1-90A1-014B81D3291F";
paths = (
{
closed = 1;
nodes = (
"636 686 LINE",
"567 686 LINE",
"147 0 LINE",
"219 0 LINE"
);
},
{
closed = 1;
nodes = (
"586 153 LINE",
"482 153 LINE",
"514 190 OFFCURVE",
"581 303 OFFCURVE",
"599 382 CURVE",
"522 382 LINE",
"502 313 OFFCURVE",
"458 213 OFFCURVE",
"420 153 CURVE",
"420 88 LINE",
"586 88 LINE",
"586 0 LINE",
"664 0 LINE",
"664 88 LINE",
"715 88 LINE",
"715 153 LINE",
"664 153 LINE",
"664 336 LINE",
"629 336 LINE",
"622 307 OFFCURVE",
"605 264 OFFCURVE",
"586 235 CURVE"
);
},
{
closed = 1;
nodes = (
"290 306 LINE",
"290 372 LINE",
"200 372 LINE",
"200 685 LINE",
"171 685 LINE",
"126 661 OFFCURVE",
"70 640 OFFCURVE",
"27 637 CURVE",
"27 588 LINE",
"119 588 LINE",
"119 372 LINE",
"28 372 LINE",
"28 306 LINE"
);
}
);
width = 745;
}
);
unicode = 00BC;
},
{
glyphname = onehalf;
lastChange = "2014-09-05 18:35:58 +0000";
layers = (
{
background = {
paths = (
{
closed = 1;
nodes = (
"628 686 LINE",
"559 686 LINE",
"139 0 LINE",
"211 0 LINE"
);
},
{
closed = 1;
nodes = (
"449 0 LINE",
"722 0 LINE",
"722 70 LINE",
"551 70 LINE",
"557 78 OFFCURVE",
"576 92 OFFCURVE",
"582 96 CURVE",
"676 167 OFFCURVE",
"721 199 OFFCURVE",
"721 268 CURVE SMOOTH",
"721 326 OFFCURVE",
"679 383 OFFCURVE",
"593 383 CURVE SMOOTH",
"585 383 LINE SMOOTH",
"478 383 OFFCURVE",
"449 300 OFFCURVE",
"449 257 CURVE SMOOTH",
"449 254 OFFCURVE",
"449 251 OFFCURVE",
"450 247 CURVE",
"524 247 LINE",
"524 261 LINE SMOOTH",
"524 275 OFFCURVE",
"534 316 OFFCURVE",
"582 316 CURVE SMOOTH",
"615 316 OFFCURVE",
"640 296 OFFCURVE",
"640 266 CURVE SMOOTH",
"640 243 OFFCURVE",
"631 220 OFFCURVE",
"604 199 CURVE SMOOTH",
"568 171 OFFCURVE",
"528 144 OFFCURVE",
"496 112 CURVE",
"472 92 OFFCURVE",
"449 64 OFFCURVE",
"449 16 CURVE SMOOTH"
);
},
{
closed = 1;
nodes = (
"290 306 LINE",
"290 372 LINE",
"200 372 LINE",
"200 685 LINE",
"171 685 LINE",
"126 661 OFFCURVE",
"70 640 OFFCURVE",
"27 637 CURVE",
"27 588 LINE",
"119 588 LINE",
"119 372 LINE",
"28 372 LINE",
"28 306 LINE"
);
}
);
};
layerId = "D9505699-D8FA-43B1-90A1-014B81D3291F";
paths = (
{
closed = 1;
nodes = (
"628 686 LINE",
"559 686 LINE",
"139 0 LINE",
"211 0 LINE"
);
},
{
closed = 1;
nodes = (
"449 0 LINE",
"722 0 LINE",
"722 70 LINE",
"551 70 LINE",
"557 78 OFFCURVE",
"576 92 OFFCURVE",
"582 96 CURVE",
"676 167 OFFCURVE",
"721 199 OFFCURVE",
"721 268 CURVE SMOOTH",
"721 326 OFFCURVE",
"679 383 OFFCURVE",
"593 383 CURVE SMOOTH",
"585 383 LINE SMOOTH",
"478 383 OFFCURVE",
"449 300 OFFCURVE",
"449 257 CURVE SMOOTH",
"449 254 OFFCURVE",
"449 251 OFFCURVE",
"450 247 CURVE",
"524 247 LINE",
"524 261 LINE SMOOTH",
"524 275 OFFCURVE",
"534 316 OFFCURVE",
"582 316 CURVE SMOOTH",
"615 316 OFFCURVE",
"640 296 OFFCURVE",
"640 266 CURVE SMOOTH",
"640 243 OFFCURVE",
"631 220 OFFCURVE",
"604 199 CURVE SMOOTH",
"568 171 OFFCURVE",
"528 144 OFFCURVE",
"496 112 CURVE",
"472 92 OFFCURVE",
"449 64 OFFCURVE",
"449 16 CURVE SMOOTH"
);
},
{
closed = 1;
nodes = (
"290 306 LINE",
"290 372 LINE",
"200 372 LINE",
"200 685 LINE",
"171 685 LINE",
"126 661 OFFCURVE",
"70 640 OFFCURVE",
"27 637 CURVE",
"27 588 LINE",
"119 588 LINE",
"119 372 LINE",
"28 372 LINE",
"28 306 LINE"
);
}
);
width = 765;
}
);
unicode = 00BD;
},
{
glyphname = threequarters;
lastChange = "2014-09-05 18:35:58 +0000";
layers = (
{
background = {
paths = (
{
closed = 1;
nodes = (
"639 686 LINE",
"570 686 LINE",
"150 0 LINE",
"222 0 LINE"
);
},
{
closed = 1;
nodes = (
"37 412 LINE SMOOTH",
"37 348 OFFCURVE",
"86 301 OFFCURVE",
"174 301 CURVE SMOOTH",
"189 301 LINE SMOOTH",
"273 301 OFFCURVE",
"326 347 OFFCURVE",
"326 409 CURVE SMOOTH",
"326 457 OFFCURVE",
"300 487 OFFCURVE",
"260 500 CURVE",
"260 505 LINE",
"293 520 OFFCURVE",
"316 546 OFFCURVE",
"316 587 CURVE SMOOTH",
"316 646 OFFCURVE",
"263 689 OFFCURVE",
"189 689 CURVE SMOOTH",
"178 689 LINE SMOOTH",
"101 689 OFFCURVE",
"47 646 OFFCURVE",
"47 586 CURVE SMOOTH",
"47 575 LINE",
"121 575 LINE",
"121 607 OFFCURVE",
"147 624 OFFCURVE",
"177 624 CURVE SMOOTH",
"208 624 OFFCURVE",
"235 609 OFFCURVE",
"235 577 CURVE SMOOTH",
"235 544 OFFCURVE",
"210 528 OFFCURVE",
"179 528 CURVE SMOOTH",
"134 528 LINE",
"134 469 LINE",
"173 469 LINE SMOOTH",
"208 469 OFFCURVE",
"244 464 OFFCURVE",
"244 419 CURVE SMOOTH",
"244 384 OFFCURVE",
"220 366 OFFCURVE",
"177 366 CURVE SMOOTH",
"134 366 OFFCURVE",
"112 384 OFFCURVE",
"112 419 CURVE",
"37 419 LINE"
);
},
{
closed = 1;
nodes = (
"586 153 LINE",
"482 153 LINE",
"514 190 OFFCURVE",
"581 303 OFFCURVE",
"599 382 CURVE",
"522 382 LINE",
"502 313 OFFCURVE",
"458 213 OFFCURVE",
"420 153 CURVE",
"420 88 LINE",
"586 88 LINE",
"586 0 LINE",
"664 0 LINE",
"664 88 LINE",
"715 88 LINE",
"715 153 LINE",
"664 153 LINE",
"664 336 LINE",
"629 336 LINE",
"622 307 OFFCURVE",
"605 264 OFFCURVE",
"586 235 CURVE"
);
}
);
};
layerId = "D9505699-D8FA-43B1-90A1-014B81D3291F";
paths = (
{
closed = 1;
nodes = (
"639 686 LINE",
"570 686 LINE",
"150 0 LINE",
"222 0 LINE"
);
},
{
closed = 1;
nodes = (
"37 412 LINE SMOOTH",
"37 348 OFFCURVE",
"86 301 OFFCURVE",
"174 301 CURVE SMOOTH",
"189 301 LINE SMOOTH",
"273 301 OFFCURVE",
"326 347 OFFCURVE",
"326 409 CURVE SMOOTH",
"326 457 OFFCURVE",
"300 487 OFFCURVE",
"260 500 CURVE",
"260 505 LINE",
"293 520 OFFCURVE",
"316 546 OFFCURVE",
"316 587 CURVE SMOOTH",
"316 646 OFFCURVE",
"263 689 OFFCURVE",
"189 689 CURVE SMOOTH",
"178 689 LINE SMOOTH",
"101 689 OFFCURVE",
"47 646 OFFCURVE",
"47 586 CURVE SMOOTH",
"47 575 LINE",
"121 575 LINE",
"121 607 OFFCURVE",
"147 624 OFFCURVE",
"177 624 CURVE SMOOTH",
"208 624 OFFCURVE",
"235 609 OFFCURVE",
"235 577 CURVE SMOOTH",
"235 544 OFFCURVE",
"210 528 OFFCURVE",
"179 528 CURVE SMOOTH",
"134 528 LINE",
"134 469 LINE",
"173 469 LINE SMOOTH",
"208 469 OFFCURVE",
"244 464 OFFCURVE",
"244 419 CURVE SMOOTH",
"244 384 OFFCURVE",
"220 366 OFFCURVE",
"177 366 CURVE SMOOTH",
"134 366 OFFCURVE",
"112 384 OFFCURVE",
"112 419 CURVE",
"37 419 LINE"
);
},
{
closed = 1;
nodes = (
"586 153 LINE",
"482 153 LINE",
"514 190 OFFCURVE",
"581 303 OFFCURVE",
"599 382 CURVE",
"522 382 LINE",
"502 313 OFFCURVE",
"458 213 OFFCURVE",
"420 153 CURVE",
"420 88 LINE",
"586 88 LINE",
"586 0 LINE",
"664 0 LINE",
"664 88 LINE",
"715 88 LINE",
"715 153 LINE",
"664 153 LINE",
"664 336 LINE",
"629 336 LINE",
"622 307 OFFCURVE",
"605 264 OFFCURVE",
"586 235 CURVE"
);
}
);
width = 755;
}
);
unicode = 00BE;
},
{
glyphname = questiondown;
lastChange = "2014-09-05 18:35:58 +0000";
layers = (
{
background = {
paths = (
{
closed = 1;
nodes = (
"355 511 LINE",
"208 511 LINE",
"208 364 LINE",
"355 364 LINE"
);
},
{
closed = 1;
nodes = (
"213 278 LINE SMOOTH",
"213 204 OFFCURVE",
"50 186 OFFCURVE",
"50 20 CURVE SMOOTH",
"50 -88 OFFCURVE",
"129 -185 OFFCURVE",
"275 -185 CURVE SMOOTH",
"297 -185 LINE SMOOTH",
"441 -185 OFFCURVE",
"533 -81 OFFCURVE",
"533 22 CURVE SMOOTH",
"533 39 OFFCURVE",
"531 50 OFFCURVE",
"530 59 CURVE",
"389 59 LINE SMOOTH",
"389 59 OFFCURVE",
"390 38 OFFCURVE",
"390 27 CURVE SMOOTH",
"390 -10 OFFCURVE",
"375 -71 OFFCURVE",
"296 -71 CURVE SMOOTH",
"233 -71 OFFCURVE",
"206 -32 OFFCURVE",
"206 18 CURVE SMOOTH",
"206 124 OFFCURVE",
"349 153 OFFCURVE",
"349 252 CURVE SMOOTH",
"349 310 LINE",
"213 310 LINE"
);
}
);
};
layerId = "D9505699-D8FA-43B1-90A1-014B81D3291F";
paths = (
{
closed = 1;
nodes = (
"355 511 LINE",
"208 511 LINE",
"208 364 LINE",
"355 364 LINE"
);
},
{
closed = 1;
nodes = (
"213 278 LINE SMOOTH",
"213 204 OFFCURVE",
"50 186 OFFCURVE",
"50 20 CURVE SMOOTH",
"50 -88 OFFCURVE",
"129 -185 OFFCURVE",
"275 -185 CURVE SMOOTH",
"297 -185 LINE SMOOTH",
"441 -185 OFFCURVE",
"533 -81 OFFCURVE",
"533 22 CURVE SMOOTH",
"533 39 OFFCURVE",
"531 50 OFFCURVE",
"530 59 CURVE",
"389 59 LINE SMOOTH",
"389 59 OFFCURVE",
"390 38 OFFCURVE",
"390 27 CURVE SMOOTH",
"390 -10 OFFCURVE",
"375 -71 OFFCURVE",
"296 -71 CURVE SMOOTH",
"233 -71 OFFCURVE",
"206 -32 OFFCURVE",
"206 18 CURVE SMOOTH",
"206 124 OFFCURVE",
"349 153 OFFCURVE",
"349 252 CURVE SMOOTH",
"349 310 LINE",
"213 310 LINE"
);
}
);
width = 572;
}
);
unicode = 00BF;
},
{
glyphname = Agrave;
lastChange = "2014-09-05 18:35:58 +0000";
layers = (
{
background = {
paths = (
{
closed = 1;
nodes = (
"522 0 LINE",
"684 0 LINE",
"435 686 LINE",
"251 686 LINE",
"2 0 LINE",
"151 0 LINE",
"199 135 LINE",
"472 135 LINE"
);
},
{
closed = 1;
nodes = (
"339 521 LINE",
"370 432 OFFCURVE",
"401 342 OFFCURVE",
"431 252 CURVE",
"241 252 LINE",
"272 342 OFFCURVE",
"303 432 OFFCURVE",
"334 521 CURVE"
);
},
{
closed = 1;
nodes = (
"409 750 LINE",
"316 895 LINE",
"188 895 LINE",
"187 892 LINE",
"307 750 LINE"
);
}
);
};
layerId = "D9505699-D8FA-43B1-90A1-014B81D3291F";
paths = (
{
closed = 1;
nodes = (
"522 0 LINE",
"684 0 LINE",
"435 686 LINE",
"251 686 LINE",
"2 0 LINE",
"151 0 LINE",
"199 135 LINE",
"472 135 LINE"
);
},
{
closed = 1;
nodes = (
"339 521 LINE",
"370 432 OFFCURVE",
"401 342 OFFCURVE",
"431 252 CURVE",
"241 252 LINE",
"272 342 OFFCURVE",
"303 432 OFFCURVE",
"334 521 CURVE"
);
},
{
closed = 1;
nodes = (
"409 750 LINE",
"316 895 LINE",
"188 895 LINE",
"187 892 LINE",
"307 750 LINE"
);
}
);
width = 686;
}
);
unicode = 00C0;
},
{
glyphname = Aacute;
lastChange = "2014-09-05 18:35:58 +0000";
layers = (
{
background = {
paths = (
{
closed = 1;
nodes = (
"522 0 LINE",
"684 0 LINE",
"435 686 LINE",
"251 686 LINE",
"2 0 LINE",
"151 0 LINE",
"199 135 LINE",
"472 135 LINE"
);
},
{
closed = 1;
nodes = (
"339 521 LINE",
"370 432 OFFCURVE",
"401 342 OFFCURVE",
"431 252 CURVE",
"241 252 LINE",
"272 342 OFFCURVE",
"303 432 OFFCURVE",
"334 521 CURVE"
);
},
{
closed = 1;
nodes = (
"370 750 LINE",
"491 892 LINE",
"490 895 LINE",
"361 895 LINE",
"269 750 LINE"
);
}
);
};
layerId = "D9505699-D8FA-43B1-90A1-014B81D3291F";
paths = (
{
closed = 1;
nodes = (
"522 0 LINE",
"684 0 LINE",
"435 686 LINE",
"251 686 LINE",
"2 0 LINE",
"151 0 LINE",
"199 135 LINE",
"472 135 LINE"
);
},
{
closed = 1;
nodes = (
"339 521 LINE",
"370 432 OFFCURVE",
"401 342 OFFCURVE",
"431 252 CURVE",
"241 252 LINE",
"272 342 OFFCURVE",
"303 432 OFFCURVE",
"334 521 CURVE"
);
},
{
closed = 1;
nodes = (
"370 750 LINE",
"491 892 LINE",
"490 895 LINE",
"361 895 LINE",
"269 750 LINE"
);
}
);
width = 686;
}
);
unicode = 00C1;
},
{
glyphname = Acircumflex;
lastChange = "2014-09-05 18:35:58 +0000";
layers = (
{
background = {
paths = (
{
closed = 1;
nodes = (
"522 0 LINE",
"684 0 LINE",
"435 686 LINE",
"251 686 LINE",
"2 0 LINE",
"151 0 LINE",
"199 135 LINE",
"472 135 LINE"
);
},
{
closed = 1;
nodes = (
"339 521 LINE",
"370 432 OFFCURVE",
"401 342 OFFCURVE",
"431 252 CURVE",
"241 252 LINE",
"272 342 OFFCURVE",
"303 432 OFFCURVE",
"334 521 CURVE"
);
},
{
closed = 1;
nodes = (
"154 750 LINE",
"258 750 LINE",
"343 833 LINE",
"427 750 LINE",
"532 750 LINE",
"486 798 OFFCURVE",
"440 847 OFFCURVE",
"395 895 CURVE",
"292 895 LINE"
);
}
);
};
layerId = "D9505699-D8FA-43B1-90A1-014B81D3291F";
paths = (
{
closed = 1;
nodes = (
"522 0 LINE",
"684 0 LINE",
"435 686 LINE",
"251 686 LINE",
"2 0 LINE",
"151 0 LINE",
"199 135 LINE",
"472 135 LINE"
);
},
{
closed = 1;
nodes = (
"339 521 LINE",
"370 432 OFFCURVE",
"401 342 OFFCURVE",
"431 252 CURVE",
"241 252 LINE",
"272 342 OFFCURVE",
"303 432 OFFCURVE",
"334 521 CURVE"
);
},
{
closed = 1;
nodes = (
"154 750 LINE",
"258 750 LINE",
"343 833 LINE",
"427 750 LINE",
"532 750 LINE",
"486 798 OFFCURVE",
"440 847 OFFCURVE",
"395 895 CURVE",
"292 895 LINE"
);
}
);
width = 686;
}
);
unicode = 00C2;
},
{
glyphname = Atilde;
lastChange = "2014-09-05 18:35:58 +0000";
layers = (
{
background = {
paths = (
{
closed = 1;
nodes = (
"522 0 LINE",
"684 0 LINE",
"435 686 LINE",
"251 686 LINE",
"2 0 LINE",
"151 0 LINE",
"199 135 LINE",
"472 135 LINE"
);
},
{
closed = 1;
nodes = (
"339 521 LINE",
"370 432 OFFCURVE",
"401 342 OFFCURVE",
"431 252 CURVE",
"241 252 LINE",
"272 342 OFFCURVE",
"303 432 OFFCURVE",
"334 521 CURVE"
);
},
{
closed = 1;
nodes = (
"481 873 LINE",
"474 850 OFFCURVE",
"456 835 OFFCURVE",
"428 835 CURVE SMOOTH",
"374 835 OFFCURVE",
"322 873 OFFCURVE",
"258 873 CURVE SMOOTH",
"180 873 OFFCURVE",
"131 808 OFFCURVE",
"131 749 CURVE",
"197 749 LINE",
"204 772 OFFCURVE",
"221 786 OFFCURVE",
"249 786 CURVE SMOOTH",
"303 786 OFFCURVE",
"356 749 OFFCURVE",
"420 749 CURVE SMOOTH",
"498 749 OFFCURVE",
"546 813 OFFCURVE",
"546 873 CURVE"
);
}
);
};
layerId = "D9505699-D8FA-43B1-90A1-014B81D3291F";
paths = (
{
closed = 1;
nodes = (
"522 0 LINE",
"684 0 LINE",
"435 686 LINE",
"251 686 LINE",
"2 0 LINE",
"151 0 LINE",
"199 135 LINE",
"472 135 LINE"
);
},
{
closed = 1;
nodes = (
"339 521 LINE",
"370 432 OFFCURVE",
"401 342 OFFCURVE",
"431 252 CURVE",
"241 252 LINE",
"272 342 OFFCURVE",
"303 432 OFFCURVE",
"334 521 CURVE"
);
},
{
closed = 1;
nodes = (
"481 873 LINE",
"474 850 OFFCURVE",
"456 835 OFFCURVE",
"428 835 CURVE SMOOTH",
"374 835 OFFCURVE",
"322 873 OFFCURVE",
"258 873 CURVE SMOOTH",
"180 873 OFFCURVE",
"131 808 OFFCURVE",
"131 749 CURVE",
"197 749 LINE",
"204 772 OFFCURVE",
"221 786 OFFCURVE",
"249 786 CURVE SMOOTH",
"303 786 OFFCURVE",
"356 749 OFFCURVE",
"420 749 CURVE SMOOTH",
"498 749 OFFCURVE",
"546 813 OFFCURVE",
"546 873 CURVE"
);
}
);
width = 686;
}
);
unicode = 00C3;
},
{
glyphname = Adieresis;
lastChange = "2014-09-05 18:35:58 +0000";
layers = (
{
background = {
paths = (
{
closed = 1;
nodes = (
"522 0 LINE",
"684 0 LINE",
"435 686 LINE",
"251 686 LINE",
"2 0 LINE",
"151 0 LINE",
"199 135 LINE",
"472 135 LINE"
);
},
{
closed = 1;
nodes = (
"339 521 LINE",
"370 432 OFFCURVE",
"401 342 OFFCURVE",
"431 252 CURVE",
"241 252 LINE",
"272 342 OFFCURVE",
"303 432 OFFCURVE",
"334 521 CURVE"
);
},
{
closed = 1;
nodes = (
"176 749 LINE",
"297 749 LINE",
"297 871 LINE",
"176 871 LINE"
);
},
{
closed = 1;
nodes = (
"380 749 LINE",
"501 749 LINE",
"501 871 LINE",
"380 871 LINE"
);
}
);
};
layerId = "D9505699-D8FA-43B1-90A1-014B81D3291F";
paths = (
{
closed = 1;
nodes = (
"522 0 LINE",
"684 0 LINE",
"435 686 LINE",
"251 686 LINE",
"2 0 LINE",
"151 0 LINE",
"199 135 LINE",
"472 135 LINE"
);
},
{
closed = 1;
nodes = (
"339 521 LINE",
"370 432 OFFCURVE",
"401 342 OFFCURVE",
"431 252 CURVE",
"241 252 LINE",
"272 342 OFFCURVE",
"303 432 OFFCURVE",
"334 521 CURVE"
);
},
{
closed = 1;
nodes = (
"176 749 LINE",
"297 749 LINE",
"297 871 LINE",
"176 871 LINE"
);
},
{
closed = 1;
nodes = (
"380 749 LINE",
"501 749 LINE",
"501 871 LINE",
"380 871 LINE"
);
}
);
width = 686;
}
);
unicode = 00C4;
},
{
glyphname = Aring;
lastChange = "2014-09-05 18:35:58 +0000";
layers = (
{
background = {
paths = (
{
closed = 1;
nodes = (
"522 0 LINE",
"684 0 LINE",
"435 686 LINE",
"251 686 LINE",
"2 0 LINE",
"151 0 LINE",
"199 135 LINE",
"472 135 LINE"
);
},
{
closed = 1;
nodes = (
"339 521 LINE",
"370 432 OFFCURVE",
"401 342 OFFCURVE",
"431 252 CURVE",
"241 252 LINE",
"272 342 OFFCURVE",
"303 432 OFFCURVE",
"334 521 CURVE"
);
},
{
closed = 1;
nodes = (
"246 774 OFFCURVE",
"291 729 OFFCURVE",
"347 729 CURVE SMOOTH",
"403 729 OFFCURVE",
"448 774 OFFCURVE",
"448 830 CURVE SMOOTH",
"448 886 OFFCURVE",
"403 931 OFFCURVE",
"347 931 CURVE SMOOTH",
"291 931 OFFCURVE",
"246 886 OFFCURVE",
"246 830 CURVE SMOOTH"
);
},
{
closed = 1;
nodes = (
"303 854 OFFCURVE",
"323 874 OFFCURVE",
"347 874 CURVE SMOOTH",
"371 874 OFFCURVE",
"391 854 OFFCURVE",
"391 830 CURVE SMOOTH",
"391 806 OFFCURVE",
"371 786 OFFCURVE",
"347 786 CURVE SMOOTH",
"323 786 OFFCURVE",
"303 806 OFFCURVE",
"303 830 CURVE SMOOTH"
);
}
);
};
layerId = "D9505699-D8FA-43B1-90A1-014B81D3291F";
paths = (
{
closed = 1;
nodes = (
"522 0 LINE",
"684 0 LINE",
"435 686 LINE",
"251 686 LINE",
"2 0 LINE",
"151 0 LINE",
"199 135 LINE",
"472 135 LINE"
);
},
{
closed = 1;
nodes = (
"339 521 LINE",
"370 432 OFFCURVE",
"401 342 OFFCURVE",
"431 252 CURVE",
"241 252 LINE",
"272 342 OFFCURVE",
"303 432 OFFCURVE",
"334 521 CURVE"
);
},
{
closed = 1;
nodes = (
"246 774 OFFCURVE",
"291 729 OFFCURVE",
"347 729 CURVE SMOOTH",
"403 729 OFFCURVE",
"448 774 OFFCURVE",
"448 830 CURVE SMOOTH",
"448 886 OFFCURVE",
"403 931 OFFCURVE",
"347 931 CURVE SMOOTH",
"291 931 OFFCURVE",
"246 886 OFFCURVE",
"246 830 CURVE SMOOTH"
);
},
{
closed = 1;
nodes = (
"303 854 OFFCURVE",
"323 874 OFFCURVE",
"347 874 CURVE SMOOTH",
"371 874 OFFCURVE",
"391 854 OFFCURVE",
"391 830 CURVE SMOOTH",
"391 806 OFFCURVE",
"371 786 OFFCURVE",
"347 786 CURVE SMOOTH",
"323 786 OFFCURVE",
"303 806 OFFCURVE",
"303 830 CURVE SMOOTH"
);
}
);
width = 686;
}
);
unicode = 00C5;
},
{
glyphname = AE;
lastChange = "2014-09-05 18:35:58 +0000";
layers = (
{
anchors = (
{
name = top;
position = "{502, 686}";
}
);
background = {
anchors = (
{
name = top;
position = "{502, 686}";
}
);
paths = (
{
closed = 1;
nodes = (
"518 0 LINE",
"964 0 LINE",
"947 126 LINE",
"653 126 LINE",
"641 181 OFFCURVE",
"628 236 OFFCURVE",
"615 290 CURVE",
"922 290 LINE",
"922 411 LINE",
"589 411 LINE",
"555 562 LINE",
"944 562 LINE",
"960 686 LINE",
"344 686 LINE",
"0 0 LINE",
"147 0 LINE",
"169 45 OFFCURVE",
"192 90 OFFCURVE",
"215 135 CURVE",
"488 135 LINE"
);
},
{
closed = 1;
nodes = (
"409 521 LINE",
"428 432 OFFCURVE",
"445 342 OFFCURVE",
"464 252 CURVE",
"273 252 LINE",
"317 342 OFFCURVE",
"360 432 OFFCURVE",
"404 521 CURVE"
);
}
);
};
layerId = "D9505699-D8FA-43B1-90A1-014B81D3291F";
paths = (
{
closed = 1;
nodes = (
"518 0 LINE",
"964 0 LINE",
"947 126 LINE",
"653 126 LINE",
"641 181 OFFCURVE",
"628 236 OFFCURVE",
"615 290 CURVE",
"922 290 LINE",
"922 411 LINE",
"589 411 LINE",
"555 562 LINE",
"944 562 LINE",
"960 686 LINE",
"344 686 LINE",
"0 0 LINE",
"147 0 LINE",
"169 45 OFFCURVE",
"192 90 OFFCURVE",
"215 135 CURVE",
"488 135 LINE"
);
},
{
closed = 1;
nodes = (
"409 521 LINE",
"428 432 OFFCURVE",
"445 342 OFFCURVE",
"464 252 CURVE",
"273 252 LINE",
"317 342 OFFCURVE",
"360 432 OFFCURVE",
"404 521 CURVE"
);
}
);
width = 1004;
}
);
unicode = 00C6;
},
{
glyphname = Ccedilla;
lastChange = "2014-09-05 18:35:58 +0000";
layers = (
{
background = {
paths = (
{
closed = 1;
nodes = (
"210 414 LINE SMOOTH",
"210 519 OFFCURVE",
"274 573 OFFCURVE",
"354 573 CURVE SMOOTH",
"440 573 OFFCURVE",
"488 519 OFFCURVE",
"488 414 CURVE",
"635 414 LINE",
"635 603 OFFCURVE",
"514 696 OFFCURVE",
"358 696 CURVE SMOOTH",
"344 696 LINE SMOOTH",
"180 696 OFFCURVE",
"48 586 OFFCURVE",
"48 392 CURVE SMOOTH",
"48 294 LINE SMOOTH",
"48 95 OFFCURVE",
"178 -10 OFFCURVE",
"348 -10 CURVE SMOOTH",
"362 -10 LINE SMOOTH",
"515 -10 OFFCURVE",
"635 88 OFFCURVE",
"635 270 CURVE",
"494 270 LINE",
"494 163 OFFCURVE",
"450 113 OFFCURVE",
"355 113 CURVE SMOOTH",
"275 113 OFFCURVE",
"210 167 OFFCURVE",
"210 272 CURVE SMOOTH"
);
},
{
closed = 1;
nodes = (
"234 -168 LINE",
"261 -187 OFFCURVE",
"305 -197 OFFCURVE",
"342 -197 CURVE SMOOTH",
"386 -197 OFFCURVE",
"461 -182 OFFCURVE",
"461 -107 CURVE SMOOTH",
"461 -34 OFFCURVE",
"402 -17 OFFCURVE",
"345 -17 CURVE SMOOTH",
"322 -17 LINE",
"322 -68 LINE",
"342 -68 LINE SMOOTH",
"370 -68 OFFCURVE",
"387 -81 OFFCURVE",
"387 -104 CURVE SMOOTH",
"387 -131 OFFCURVE",
"365 -142 OFFCURVE",
"338 -142 CURVE SMOOTH",
"291 -142 OFFCURVE",
"261 -119 OFFCURVE",
"255 -116 CURVE"
);
}
);
};
layerId = "D9505699-D8FA-43B1-90A1-014B81D3291F";
paths = (
{
closed = 1;
nodes = (
"210 414 LINE SMOOTH",
"210 519 OFFCURVE",
"274 573 OFFCURVE",
"354 573 CURVE SMOOTH",
"440 573 OFFCURVE",
"488 519 OFFCURVE",
"488 414 CURVE",
"635 414 LINE",
"635 603 OFFCURVE",
"514 696 OFFCURVE",
"358 696 CURVE SMOOTH",
"344 696 LINE SMOOTH",
"180 696 OFFCURVE",
"48 586 OFFCURVE",
"48 392 CURVE SMOOTH",
"48 294 LINE SMOOTH",
"48 95 OFFCURVE",
"178 -10 OFFCURVE",
"348 -10 CURVE SMOOTH",
"362 -10 LINE SMOOTH",
"515 -10 OFFCURVE",
"635 88 OFFCURVE",
"635 270 CURVE",
"494 270 LINE",
"494 163 OFFCURVE",
"450 113 OFFCURVE",
"355 113 CURVE SMOOTH",
"275 113 OFFCURVE",
"210 167 OFFCURVE",
"210 272 CURVE SMOOTH"
);
},
{
closed = 1;
nodes = (
"234 -168 LINE",
"261 -187 OFFCURVE",
"305 -197 OFFCURVE",
"342 -197 CURVE SMOOTH",
"386 -197 OFFCURVE",
"461 -182 OFFCURVE",
"461 -107 CURVE SMOOTH",
"461 -34 OFFCURVE",
"402 -17 OFFCURVE",
"345 -17 CURVE SMOOTH",
"322 -17 LINE",
"322 -68 LINE",
"342 -68 LINE SMOOTH",
"370 -68 OFFCURVE",
"387 -81 OFFCURVE",
"387 -104 CURVE SMOOTH",
"387 -131 OFFCURVE",
"365 -142 OFFCURVE",
"338 -142 CURVE SMOOTH",
"291 -142 OFFCURVE",
"261 -119 OFFCURVE",
"255 -116 CURVE"
);
}
);
width = 683;
}
);
unicode = 00C7;
},
{
glyphname = Egrave;
lastChange = "2014-09-05 18:35:58 +0000";
layers = (
{
background = {
paths = (
{
closed = 1;
nodes = (
"558 0 LINE",
"541 123 LINE",
"224 123 LINE",
"224 290 LINE",
"517 290 LINE",
"517 413 LINE",
"224 413 LINE",
"224 563 LINE",
"538 563 LINE",
"555 686 LINE",
"72 686 LINE",
"72 0 LINE"
);
},
{
closed = 1;
nodes = (
"379 750 LINE",
"286 895 LINE",
"158 895 LINE",
"157 892 LINE",
"277 750 LINE"
);
}
);
};
layerId = "D9505699-D8FA-43B1-90A1-014B81D3291F";
paths = (
{
closed = 1;
nodes = (
"558 0 LINE",
"541 123 LINE",
"224 123 LINE",
"224 290 LINE",
"517 290 LINE",
"517 413 LINE",
"224 413 LINE",
"224 563 LINE",
"538 563 LINE",
"555 686 LINE",
"72 686 LINE",
"72 0 LINE"
);
},
{
closed = 1;
nodes = (
"379 750 LINE",
"286 895 LINE",
"158 895 LINE",
"157 892 LINE",
"277 750 LINE"
);
}
);
width = 598;
}
);
unicode = 00C8;
},
{
glyphname = Eacute;
lastChange = "2014-09-05 18:35:58 +0000";
layers = (
{
background = {
paths = (
{
closed = 1;
nodes = (
"558 0 LINE",
"541 123 LINE",
"224 123 LINE",
"224 290 LINE",
"517 290 LINE",
"517 413 LINE",
"224 413 LINE",
"224 563 LINE",
"538 563 LINE",
"555 686 LINE",
"72 686 LINE",
"72 0 LINE"
);
},
{
closed = 1;
nodes = (
"364 750 LINE",
"485 892 LINE",
"484 895 LINE",
"355 895 LINE",
"263 750 LINE"
);
}
);
};
layerId = "D9505699-D8FA-43B1-90A1-014B81D3291F";
paths = (
{
closed = 1;
nodes = (
"558 0 LINE",
"541 123 LINE",
"224 123 LINE",
"224 290 LINE",
"517 290 LINE",
"517 413 LINE",
"224 413 LINE",
"224 563 LINE",
"538 563 LINE",
"555 686 LINE",
"72 686 LINE",
"72 0 LINE"
);
},
{
closed = 1;
nodes = (
"364 750 LINE",
"485 892 LINE",
"484 895 LINE",
"355 895 LINE",
"263 750 LINE"
);
}
);
width = 598;
}
);
unicode = 00C9;
},
{
glyphname = Ecircumflex;
lastChange = "2014-09-05 18:35:58 +0000";
layers = (
{
background = {
paths = (
{
closed = 1;
nodes = (
"558 0 LINE",
"541 123 LINE",
"224 123 LINE",
"224 290 LINE",
"517 290 LINE",
"517 413 LINE",
"224 413 LINE",
"224 563 LINE",
"538 563 LINE",
"555 686 LINE",
"72 686 LINE",
"72 0 LINE"
);
},
{
closed = 1;
nodes = (
"123 750 LINE",
"227 750 LINE",
"312 833 LINE",
"396 750 LINE",
"501 750 LINE",
"455 798 OFFCURVE",
"409 847 OFFCURVE",
"364 895 CURVE",
"261 895 LINE"
);
}
);
};
layerId = "D9505699-D8FA-43B1-90A1-014B81D3291F";
paths = (
{
closed = 1;
nodes = (
"558 0 LINE",
"541 123 LINE",
"224 123 LINE",
"224 290 LINE",
"517 290 LINE",
"517 413 LINE",
"224 413 LINE",
"224 563 LINE",
"538 563 LINE",
"555 686 LINE",
"72 686 LINE",
"72 0 LINE"
);
},
{
closed = 1;
nodes = (
"123 750 LINE",
"227 750 LINE",
"312 833 LINE",
"396 750 LINE",
"501 750 LINE",
"455 798 OFFCURVE",
"409 847 OFFCURVE",
"364 895 CURVE",
"261 895 LINE"
);
}
);
width = 598;
}
);
unicode = 00CA;
},
{
glyphname = Edieresis;
lastChange = "2014-09-05 18:35:58 +0000";
layers = (
{
background = {
paths = (
{
closed = 1;
nodes = (
"558 0 LINE",
"541 123 LINE",
"224 123 LINE",
"224 290 LINE",
"517 290 LINE",
"517 413 LINE",
"224 413 LINE",
"224 563 LINE",
"538 563 LINE",
"555 686 LINE",
"72 686 LINE",
"72 0 LINE"
);
},
{
closed = 1;
nodes = (
"152 750 LINE",
"273 750 LINE",
"273 872 LINE",
"152 872 LINE"
);
},
{
closed = 1;
nodes = (
"356 750 LINE",
"477 750 LINE",
"477 872 LINE",
"356 872 LINE"
);
}
);
};
layerId = "D9505699-D8FA-43B1-90A1-014B81D3291F";
paths = (
{
closed = 1;
nodes = (
"558 0 LINE",
"541 123 LINE",
"224 123 LINE",
"224 290 LINE",
"517 290 LINE",
"517 413 LINE",
"224 413 LINE",
"224 563 LINE",
"538 563 LINE",
"555 686 LINE",
"72 686 LINE",
"72 0 LINE"
);
},
{
closed = 1;
nodes = (
"152 750 LINE",
"273 750 LINE",
"273 872 LINE",
"152 872 LINE"
);
},
{
closed = 1;
nodes = (
"356 750 LINE",
"477 750 LINE",
"477 872 LINE",
"356 872 LINE"
);
}
);
width = 598;
}
);
unicode = 00CB;
},
{
glyphname = Igrave;
lastChange = "2014-09-05 18:35:58 +0000";
layers = (
{
background = {
paths = (
{
closed = 1;
nodes = (
"72 563 LINE",
"153 563 LINE",
"153 123 LINE",
"72 123 LINE",
"72 0 LINE",
"388 0 LINE",
"388 123 LINE",
"308 123 LINE",
"308 563 LINE",
"388 563 LINE",
"388 686 LINE",
"72 686 LINE"
);
},
{
closed = 1;
nodes = (
"294 750 LINE",
"201 895 LINE",
"73 895 LINE",
"72 892 LINE",
"192 750 LINE"
);
}
);
};
layerId = "D9505699-D8FA-43B1-90A1-014B81D3291F";
paths = (
{
closed = 1;
nodes = (
"72 563 LINE",
"153 563 LINE",
"153 123 LINE",
"72 123 LINE",
"72 0 LINE",
"388 0 LINE",
"388 123 LINE",
"308 123 LINE",
"308 563 LINE",
"388 563 LINE",
"388 686 LINE",
"72 686 LINE"
);
},
{
closed = 1;
nodes = (
"294 750 LINE",
"201 895 LINE",
"73 895 LINE",
"72 892 LINE",
"192 750 LINE"
);
}
);
width = 461;
}
);
unicode = 00CC;
},
{
glyphname = Iacute;
lastChange = "2014-09-05 18:35:58 +0000";
layers = (
{
background = {
paths = (
{
closed = 1;
nodes = (
"72 563 LINE",
"153 563 LINE",
"153 123 LINE",
"72 123 LINE",
"72 0 LINE",
"388 0 LINE",
"388 123 LINE",
"308 123 LINE",
"308 563 LINE",
"388 563 LINE",
"388 686 LINE",
"72 686 LINE"
);
},
{
closed = 1;
nodes = (
"270 750 LINE",
"391 892 LINE",
"390 895 LINE",
"261 895 LINE",
"169 750 LINE"
);
}
);
};
layerId = "D9505699-D8FA-43B1-90A1-014B81D3291F";
paths = (
{
closed = 1;
nodes = (
"72 563 LINE",
"153 563 LINE",
"153 123 LINE",
"72 123 LINE",
"72 0 LINE",
"388 0 LINE",
"388 123 LINE",
"308 123 LINE",
"308 563 LINE",
"388 563 LINE",
"388 686 LINE",
"72 686 LINE"
);
},
{
closed = 1;
nodes = (
"270 750 LINE",
"391 892 LINE",
"390 895 LINE",
"261 895 LINE",
"169 750 LINE"
);
}
);
width = 461;
}
);
unicode = 00CD;
},
{
glyphname = Icircumflex;
lastChange = "2014-09-05 18:35:58 +0000";
layers = (
{
background = {
paths = (
{
closed = 1;
nodes = (
"72 563 LINE",
"153 563 LINE",
"153 123 LINE",
"72 123 LINE",
"72 0 LINE",
"388 0 LINE",
"388 123 LINE",
"308 123 LINE",
"308 563 LINE",
"388 563 LINE",
"388 686 LINE",
"72 686 LINE"
);
},
{
closed = 1;
nodes = (
"42 750 LINE",
"146 750 LINE",
"231 833 LINE",
"315 750 LINE",
"420 750 LINE",
"374 798 OFFCURVE",
"328 847 OFFCURVE",
"283 895 CURVE",
"180 895 LINE"
);
}
);
};
layerId = "D9505699-D8FA-43B1-90A1-014B81D3291F";
paths = (
{
closed = 1;
nodes = (
"72 563 LINE",
"153 563 LINE",
"153 123 LINE",
"72 123 LINE",
"72 0 LINE",
"388 0 LINE",
"388 123 LINE",
"308 123 LINE",
"308 563 LINE",
"388 563 LINE",
"388 686 LINE",
"72 686 LINE"
);
},
{
closed = 1;
nodes = (
"42 750 LINE",
"146 750 LINE",
"231 833 LINE",
"315 750 LINE",
"420 750 LINE",
"374 798 OFFCURVE",
"328 847 OFFCURVE",
"283 895 CURVE",
"180 895 LINE"
);
}
);
width = 461;
}
);
unicode = 00CE;
},
{
glyphname = Idieresis;
lastChange = "2014-09-05 18:35:58 +0000";
layers = (
{
background = {
paths = (
{
closed = 1;
nodes = (
"72 563 LINE",
"153 563 LINE",
"153 123 LINE",
"72 123 LINE",
"72 0 LINE",
"388 0 LINE",
"388 123 LINE",
"308 123 LINE",
"308 563 LINE",
"388 563 LINE",
"388 686 LINE",
"72 686 LINE"
);
},
{
closed = 1;
nodes = (
"70 750 LINE",
"191 750 LINE",
"191 872 LINE",
"70 872 LINE"
);
},
{
closed = 1;
nodes = (
"274 750 LINE",
"395 750 LINE",
"395 872 LINE",
"274 872 LINE"
);
}
);
};
layerId = "D9505699-D8FA-43B1-90A1-014B81D3291F";
paths = (
{
closed = 1;
nodes = (
"72 563 LINE",
"153 563 LINE",
"153 123 LINE",
"72 123 LINE",
"72 0 LINE",
"388 0 LINE",
"388 123 LINE",
"308 123 LINE",
"308 563 LINE",
"388 563 LINE",
"388 686 LINE",
"72 686 LINE"
);
},
{
closed = 1;
nodes = (
"70 750 LINE",
"191 750 LINE",
"191 872 LINE",
"70 872 LINE"
);
},
{
closed = 1;
nodes = (
"274 750 LINE",
"395 750 LINE",
"395 872 LINE",
"274 872 LINE"
);
}
);
width = 461;
}
);
unicode = 00CF;
},
{
glyphname = Eth;
lastChange = "2014-09-05 18:35:58 +0000";
layers = (
{
background = {
paths = (
{
closed = 1;
nodes = (
"-11 303 LINE",
"73 303 LINE",
"73 0 LINE",
"347 0 LINE SMOOTH",
"508 0 OFFCURVE",
"638 117 OFFCURVE",
"638 304 CURVE SMOOTH",
"638 382 LINE SMOOTH",
"638 569 OFFCURVE",
"508 686 OFFCURVE",
"347 686 CURVE SMOOTH",
"73 686 LINE",
"73 383 LINE",
"-11 383 LINE"
);
},
{
closed = 1;
nodes = (
"227 124 LINE",
"227 303 LINE",
"339 303 LINE",
"339 383 LINE",
"227 383 LINE",
"227 563 LINE",
"337 563 LINE SMOOTH",
"429 563 OFFCURVE",
"480 500 OFFCURVE",
"480 387 CURVE SMOOTH",
"480 317 LINE SMOOTH",
"480 193 OFFCURVE",
"437 124 OFFCURVE",
"337 124 CURVE SMOOTH"
);
}
);
};
layerId = "D9505699-D8FA-43B1-90A1-014B81D3291F";
paths = (
{
closed = 1;
nodes = (
"-11 303 LINE",
"73 303 LINE",
"73 0 LINE",
"347 0 LINE SMOOTH",
"508 0 OFFCURVE",
"638 117 OFFCURVE",
"638 304 CURVE SMOOTH",
"638 382 LINE SMOOTH",
"638 569 OFFCURVE",
"508 686 OFFCURVE",
"347 686 CURVE SMOOTH",
"73 686 LINE",
"73 383 LINE",
"-11 383 LINE"
);
},
{
closed = 1;
nodes = (
"227 124 LINE",
"227 303 LINE",
"339 303 LINE",
"339 383 LINE",
"227 383 LINE",
"227 563 LINE",
"337 563 LINE SMOOTH",
"429 563 OFFCURVE",
"480 500 OFFCURVE",
"480 387 CURVE SMOOTH",
"480 317 LINE SMOOTH",
"480 193 OFFCURVE",
"437 124 OFFCURVE",
"337 124 CURVE SMOOTH"
);
}
);
width = 686;
}
);
unicode = 00D0;
},
{
glyphname = Ntilde;
lastChange = "2014-09-05 18:35:58 +0000";
layers = (
{
background = {
paths = (
{
closed = 1;
nodes = (
"618 0 LINE",
"618 686 LINE",
"477 686 LINE",
"477 283 LINE",
"474 280 LINE",
"455 309 OFFCURVE",
"438 340 OFFCURVE",
"419 368 CURVE SMOOTH",
"203 686 LINE",
"72 686 LINE",
"72 0 LINE",
"213 0 LINE",
"213 402 LINE",
"217 405 LINE",
"217 405 OFFCURVE",
"254 342 OFFCURVE",
"272 316 CURVE SMOOTH",
"487 0 LINE"
);
},
{
closed = 1;
nodes = (
"490 873 LINE",
"483 850 OFFCURVE",
"465 835 OFFCURVE",
"437 835 CURVE SMOOTH",
"383 835 OFFCURVE",
"331 873 OFFCURVE",
"267 873 CURVE SMOOTH",
"189 873 OFFCURVE",
"140 808 OFFCURVE",
"140 749 CURVE",
"206 749 LINE",
"213 772 OFFCURVE",
"230 786 OFFCURVE",
"258 786 CURVE SMOOTH",
"312 786 OFFCURVE",
"365 749 OFFCURVE",
"429 749 CURVE SMOOTH",
"507 749 OFFCURVE",
"555 813 OFFCURVE",
"555 873 CURVE"
);
}
);
};
layerId = "D9505699-D8FA-43B1-90A1-014B81D3291F";
paths = (
{
closed = 1;
nodes = (
"618 0 LINE",
"618 686 LINE",
"477 686 LINE",
"477 283 LINE",
"474 280 LINE",
"455 309 OFFCURVE",
"438 340 OFFCURVE",
"419 368 CURVE SMOOTH",
"203 686 LINE",
"72 686 LINE",
"72 0 LINE",
"213 0 LINE",
"213 402 LINE",
"217 405 LINE",
"217 405 OFFCURVE",
"254 342 OFFCURVE",
"272 316 CURVE SMOOTH",
"487 0 LINE"
);
},
{
closed = 1;
nodes = (
"490 873 LINE",
"483 850 OFFCURVE",
"465 835 OFFCURVE",
"437 835 CURVE SMOOTH",
"383 835 OFFCURVE",
"331 873 OFFCURVE",
"267 873 CURVE SMOOTH",
"189 873 OFFCURVE",
"140 808 OFFCURVE",
"140 749 CURVE",
"206 749 LINE",
"213 772 OFFCURVE",
"230 786 OFFCURVE",
"258 786 CURVE SMOOTH",
"312 786 OFFCURVE",
"365 749 OFFCURVE",
"429 749 CURVE SMOOTH",
"507 749 OFFCURVE",
"555 813 OFFCURVE",
"555 873 CURVE"
);
}
);
width = 691;
}
);
unicode = 00D1;
},
{
glyphname = Ograve;
lastChange = "2014-09-05 18:35:58 +0000";
layers = (
{
background = {
paths = (
{
closed = 1;
nodes = (
"660 392 LINE SMOOTH",
"660 587 OFFCURVE",
"521 696 OFFCURVE",
"354 696 CURVE SMOOTH",
"187 696 OFFCURVE",
"48 587 OFFCURVE",
"48 392 CURVE SMOOTH",
"48 294 LINE SMOOTH",
"48 99 OFFCURVE",
"187 -10 OFFCURVE",
"354 -10 CURVE SMOOTH",
"521 -10 OFFCURVE",
"660 99 OFFCURVE",
"660 294 CURVE SMOOTH"
);
},
{
closed = 1;
nodes = (
"498 272 LINE SMOOTH",
"498 167 OFFCURVE",
"436 113 OFFCURVE",
"354 113 CURVE SMOOTH",
"272 113 OFFCURVE",
"210 167 OFFCURVE",
"210 272 CURVE SMOOTH",
"210 414 LINE SMOOTH",
"210 519 OFFCURVE",
"272 573 OFFCURVE",
"354 573 CURVE SMOOTH",
"436 573 OFFCURVE",
"498 519 OFFCURVE",
"498 414 CURVE SMOOTH"
);
},
{
closed = 1;
nodes = (
"409 750 LINE",
"316 895 LINE",
"188 895 LINE",
"187 892 LINE",
"307 750 LINE"
);
}
);
};
layerId = "D9505699-D8FA-43B1-90A1-014B81D3291F";
paths = (
{
closed = 1;
nodes = (
"660 392 LINE SMOOTH",
"660 587 OFFCURVE",
"521 696 OFFCURVE",
"354 696 CURVE SMOOTH",
"187 696 OFFCURVE",
"48 587 OFFCURVE",
"48 392 CURVE SMOOTH",
"48 294 LINE SMOOTH",
"48 99 OFFCURVE",
"187 -10 OFFCURVE",
"354 -10 CURVE SMOOTH",
"521 -10 OFFCURVE",
"660 99 OFFCURVE",
"660 294 CURVE SMOOTH"
);
},
{
closed = 1;
nodes = (
"498 272 LINE SMOOTH",
"498 167 OFFCURVE",
"436 113 OFFCURVE",
"354 113 CURVE SMOOTH",
"272 113 OFFCURVE",
"210 167 OFFCURVE",
"210 272 CURVE SMOOTH",
"210 414 LINE SMOOTH",
"210 519 OFFCURVE",
"272 573 OFFCURVE",
"354 573 CURVE SMOOTH",
"436 573 OFFCURVE",
"498 519 OFFCURVE",
"498 414 CURVE SMOOTH"
);
},
{
closed = 1;
nodes = (
"409 750 LINE",
"316 895 LINE",
"188 895 LINE",
"187 892 LINE",
"307 750 LINE"
);
}
);
width = 708;
}
);
unicode = 00D2;
},
{
glyphname = Oacute;
lastChange = "2014-09-05 18:35:58 +0000";
layers = (
{
background = {
paths = (
{
closed = 1;
nodes = (
"660 392 LINE SMOOTH",
"660 587 OFFCURVE",
"521 696 OFFCURVE",
"354 696 CURVE SMOOTH",
"187 696 OFFCURVE",
"48 587 OFFCURVE",
"48 392 CURVE SMOOTH",
"48 294 LINE SMOOTH",
"48 99 OFFCURVE",
"187 -10 OFFCURVE",
"354 -10 CURVE SMOOTH",
"521 -10 OFFCURVE",
"660 99 OFFCURVE",
"660 294 CURVE SMOOTH"
);
},
{
closed = 1;
nodes = (
"498 272 LINE SMOOTH",
"498 167 OFFCURVE",
"436 113 OFFCURVE",
"354 113 CURVE SMOOTH",
"272 113 OFFCURVE",
"210 167 OFFCURVE",
"210 272 CURVE SMOOTH",
"210 414 LINE SMOOTH",
"210 519 OFFCURVE",
"272 573 OFFCURVE",
"354 573 CURVE SMOOTH",
"436 573 OFFCURVE",
"498 519 OFFCURVE",
"498 414 CURVE SMOOTH"
);
},
{
closed = 1;
nodes = (
"405 750 LINE",
"526 892 LINE",
"525 895 LINE",
"396 895 LINE",
"304 750 LINE"
);
}
);
};
layerId = "D9505699-D8FA-43B1-90A1-014B81D3291F";
paths = (
{
closed = 1;
nodes = (
"660 392 LINE SMOOTH",
"660 587 OFFCURVE",
"521 696 OFFCURVE",
"354 696 CURVE SMOOTH",
"187 696 OFFCURVE",
"48 587 OFFCURVE",
"48 392 CURVE SMOOTH",
"48 294 LINE SMOOTH",
"48 99 OFFCURVE",
"187 -10 OFFCURVE",
"354 -10 CURVE SMOOTH",
"521 -10 OFFCURVE",
"660 99 OFFCURVE",
"660 294 CURVE SMOOTH"
);
},
{
closed = 1;
nodes = (
"498 272 LINE SMOOTH",
"498 167 OFFCURVE",
"436 113 OFFCURVE",
"354 113 CURVE SMOOTH",
"272 113 OFFCURVE",
"210 167 OFFCURVE",
"210 272 CURVE SMOOTH",
"210 414 LINE SMOOTH",
"210 519 OFFCURVE",
"272 573 OFFCURVE",
"354 573 CURVE SMOOTH",
"436 573 OFFCURVE",
"498 519 OFFCURVE",
"498 414 CURVE SMOOTH"
);
},
{
closed = 1;
nodes = (
"405 750 LINE",
"526 892 LINE",
"525 895 LINE",
"396 895 LINE",
"304 750 LINE"
);
}
);
width = 708;
}
);
unicode = 00D3;
},
{
glyphname = Ocircumflex;
lastChange = "2014-09-05 18:35:58 +0000";
layers = (
{
background = {
paths = (
{
closed = 1;
nodes = (
"660 392 LINE SMOOTH",
"660 587 OFFCURVE",
"521 696 OFFCURVE",
"354 696 CURVE SMOOTH",
"187 696 OFFCURVE",
"48 587 OFFCURVE",
"48 392 CURVE SMOOTH",
"48 294 LINE SMOOTH",
"48 99 OFFCURVE",
"187 -10 OFFCURVE",
"354 -10 CURVE SMOOTH",
"521 -10 OFFCURVE",
"660 99 OFFCURVE",
"660 294 CURVE SMOOTH"
);
},
{
closed = 1;
nodes = (
"498 272 LINE SMOOTH",
"498 167 OFFCURVE",
"436 113 OFFCURVE",
"354 113 CURVE SMOOTH",
"272 113 OFFCURVE",
"210 167 OFFCURVE",
"210 272 CURVE SMOOTH",
"210 414 LINE SMOOTH",
"210 519 OFFCURVE",
"272 573 OFFCURVE",
"354 573 CURVE SMOOTH",
"436 573 OFFCURVE",
"498 519 OFFCURVE",
"498 414 CURVE SMOOTH"
);
},
{
closed = 1;
nodes = (
"162 750 LINE",
"266 750 LINE",
"351 833 LINE",
"435 750 LINE",
"540 750 LINE",
"494 798 OFFCURVE",
"448 847 OFFCURVE",
"403 895 CURVE",
"300 895 LINE"
);
}
);
};
layerId = "D9505699-D8FA-43B1-90A1-014B81D3291F";
paths = (
{
closed = 1;
nodes = (
"660 392 LINE SMOOTH",
"660 587 OFFCURVE",
"521 696 OFFCURVE",
"354 696 CURVE SMOOTH",
"187 696 OFFCURVE",
"48 587 OFFCURVE",
"48 392 CURVE SMOOTH",
"48 294 LINE SMOOTH",
"48 99 OFFCURVE",
"187 -10 OFFCURVE",
"354 -10 CURVE SMOOTH",
"521 -10 OFFCURVE",
"660 99 OFFCURVE",
"660 294 CURVE SMOOTH"
);
},
{
closed = 1;
nodes = (
"498 272 LINE SMOOTH",
"498 167 OFFCURVE",
"436 113 OFFCURVE",
"354 113 CURVE SMOOTH",
"272 113 OFFCURVE",
"210 167 OFFCURVE",
"210 272 CURVE SMOOTH",
"210 414 LINE SMOOTH",
"210 519 OFFCURVE",
"272 573 OFFCURVE",
"354 573 CURVE SMOOTH",
"436 573 OFFCURVE",
"498 519 OFFCURVE",
"498 414 CURVE SMOOTH"
);
},
{
closed = 1;
nodes = (
"162 750 LINE",
"266 750 LINE",
"351 833 LINE",
"435 750 LINE",
"540 750 LINE",
"494 798 OFFCURVE",
"448 847 OFFCURVE",
"403 895 CURVE",
"300 895 LINE"
);
}
);
width = 708;
}
);
unicode = 00D4;
},
{
glyphname = Otilde;
lastChange = "2014-09-05 18:35:58 +0000";
layers = (
{
background = {
paths = (
{
closed = 1;
nodes = (
"660 392 LINE SMOOTH",
"660 587 OFFCURVE",
"521 696 OFFCURVE",
"354 696 CURVE SMOOTH",
"187 696 OFFCURVE",
"48 587 OFFCURVE",
"48 392 CURVE SMOOTH",
"48 294 LINE SMOOTH",
"48 99 OFFCURVE",
"187 -10 OFFCURVE",
"354 -10 CURVE SMOOTH",
"521 -10 OFFCURVE",
"660 99 OFFCURVE",
"660 294 CURVE SMOOTH"
);
},
{
closed = 1;
nodes = (
"498 272 LINE SMOOTH",
"498 167 OFFCURVE",
"436 113 OFFCURVE",
"354 113 CURVE SMOOTH",
"272 113 OFFCURVE",
"210 167 OFFCURVE",
"210 272 CURVE SMOOTH",
"210 414 LINE SMOOTH",
"210 519 OFFCURVE",
"272 573 OFFCURVE",
"354 573 CURVE SMOOTH",
"436 573 OFFCURVE",
"498 519 OFFCURVE",
"498 414 CURVE SMOOTH"
);
},
{
closed = 1;
nodes = (
"495 873 LINE",
"488 850 OFFCURVE",
"470 835 OFFCURVE",
"442 835 CURVE SMOOTH",
"388 835 OFFCURVE",
"336 873 OFFCURVE",
"272 873 CURVE SMOOTH",
"194 873 OFFCURVE",
"145 808 OFFCURVE",
"145 749 CURVE",
"211 749 LINE",
"218 772 OFFCURVE",
"235 786 OFFCURVE",
"263 786 CURVE SMOOTH",
"317 786 OFFCURVE",
"370 749 OFFCURVE",
"434 749 CURVE SMOOTH",
"512 749 OFFCURVE",
"560 813 OFFCURVE",
"560 873 CURVE"
);
}
);
};
layerId = "D9505699-D8FA-43B1-90A1-014B81D3291F";
paths = (
{
closed = 1;
nodes = (
"660 392 LINE SMOOTH",
"660 587 OFFCURVE",
"521 696 OFFCURVE",
"354 696 CURVE SMOOTH",
"187 696 OFFCURVE",
"48 587 OFFCURVE",
"48 392 CURVE SMOOTH",
"48 294 LINE SMOOTH",
"48 99 OFFCURVE",
"187 -10 OFFCURVE",
"354 -10 CURVE SMOOTH",
"521 -10 OFFCURVE",
"660 99 OFFCURVE",
"660 294 CURVE SMOOTH"
);
},
{
closed = 1;
nodes = (
"498 272 LINE SMOOTH",
"498 167 OFFCURVE",
"436 113 OFFCURVE",
"354 113 CURVE SMOOTH",
"272 113 OFFCURVE",
"210 167 OFFCURVE",
"210 272 CURVE SMOOTH",
"210 414 LINE SMOOTH",
"210 519 OFFCURVE",
"272 573 OFFCURVE",
"354 573 CURVE SMOOTH",
"436 573 OFFCURVE",
"498 519 OFFCURVE",
"498 414 CURVE SMOOTH"
);
},
{
closed = 1;
nodes = (
"495 873 LINE",
"488 850 OFFCURVE",
"470 835 OFFCURVE",
"442 835 CURVE SMOOTH",
"388 835 OFFCURVE",
"336 873 OFFCURVE",
"272 873 CURVE SMOOTH",
"194 873 OFFCURVE",
"145 808 OFFCURVE",
"145 749 CURVE",
"211 749 LINE",
"218 772 OFFCURVE",
"235 786 OFFCURVE",
"263 786 CURVE SMOOTH",
"317 786 OFFCURVE",
"370 749 OFFCURVE",
"434 749 CURVE SMOOTH",
"512 749 OFFCURVE",
"560 813 OFFCURVE",
"560 873 CURVE"
);
}
);
width = 708;
}
);
unicode = 00D5;
},
{
glyphname = Odieresis;
lastChange = "2014-09-05 18:35:58 +0000";
layers = (
{
background = {
paths = (
{
closed = 1;
nodes = (
"660 392 LINE SMOOTH",
"660 587 OFFCURVE",
"521 696 OFFCURVE",
"354 696 CURVE SMOOTH",
"187 696 OFFCURVE",
"48 587 OFFCURVE",
"48 392 CURVE SMOOTH",
"48 294 LINE SMOOTH",
"48 99 OFFCURVE",
"187 -10 OFFCURVE",
"354 -10 CURVE SMOOTH",
"521 -10 OFFCURVE",
"660 99 OFFCURVE",
"660 294 CURVE SMOOTH"
);
},
{
closed = 1;
nodes = (
"498 272 LINE SMOOTH",
"498 167 OFFCURVE",
"436 113 OFFCURVE",
"354 113 CURVE SMOOTH",
"272 113 OFFCURVE",
"210 167 OFFCURVE",
"210 272 CURVE SMOOTH",
"210 414 LINE SMOOTH",
"210 519 OFFCURVE",
"272 573 OFFCURVE",
"354 573 CURVE SMOOTH",
"436 573 OFFCURVE",
"498 519 OFFCURVE",
"498 414 CURVE SMOOTH"
);
},
{
closed = 1;
nodes = (
"194 750 LINE",
"315 750 LINE",
"315 872 LINE",
"194 872 LINE"
);
},
{
closed = 1;
nodes = (
"398 750 LINE",
"519 750 LINE",
"519 872 LINE",
"398 872 LINE"
);
}
);
};
layerId = "D9505699-D8FA-43B1-90A1-014B81D3291F";
paths = (
{
closed = 1;
nodes = (
"660 392 LINE SMOOTH",
"660 587 OFFCURVE",
"521 696 OFFCURVE",
"354 696 CURVE SMOOTH",
"187 696 OFFCURVE",
"48 587 OFFCURVE",
"48 392 CURVE SMOOTH",
"48 294 LINE SMOOTH",
"48 99 OFFCURVE",
"187 -10 OFFCURVE",
"354 -10 CURVE SMOOTH",
"521 -10 OFFCURVE",
"660 99 OFFCURVE",
"660 294 CURVE SMOOTH"
);
},
{
closed = 1;
nodes = (
"498 272 LINE SMOOTH",
"498 167 OFFCURVE",
"436 113 OFFCURVE",
"354 113 CURVE SMOOTH",
"272 113 OFFCURVE",
"210 167 OFFCURVE",
"210 272 CURVE SMOOTH",
"210 414 LINE SMOOTH",
"210 519 OFFCURVE",
"272 573 OFFCURVE",
"354 573 CURVE SMOOTH",
"436 573 OFFCURVE",
"498 519 OFFCURVE",
"498 414 CURVE SMOOTH"
);
},
{
closed = 1;
nodes = (
"194 750 LINE",
"315 750 LINE",
"315 872 LINE",
"194 872 LINE"
);
},
{
closed = 1;
nodes = (
"398 750 LINE",
"519 750 LINE",
"519 872 LINE",
"398 872 LINE"
);
}
);
width = 708;
}
);
unicode = 00D6;
},
{
glyphname = multiply;
lastChange = "2014-09-05 18:35:58 +0000";
layers = (
{
background = {
paths = (
{
closed = 1;
nodes = (
"155 474 LINE",
"131 449 OFFCURVE",
"107 424 OFFCURVE",
"82 399 CURVE",
"226 255 LINE",
"82 112 LINE",
"107 87 OFFCURVE",
"131 62 OFFCURVE",
"155 37 CURVE",
"300 180 LINE",
"347 132 OFFCURVE",
"396 85 OFFCURVE",
"444 37 CURVE",
"468 62 OFFCURVE",
"492 87 OFFCURVE",
"517 112 CURVE",
"373 255 LINE",
"517 399 LINE",
"493 424 OFFCURVE",
"469 449 OFFCURVE",
"444 474 CURVE",
"300 330 LINE"
);
}
);
};
layerId = "D9505699-D8FA-43B1-90A1-014B81D3291F";
paths = (
{
closed = 1;
nodes = (
"155 474 LINE",
"131 449 OFFCURVE",
"107 424 OFFCURVE",
"82 399 CURVE",
"226 255 LINE",
"82 112 LINE",
"107 87 OFFCURVE",
"131 62 OFFCURVE",
"155 37 CURVE",
"300 180 LINE",
"347 132 OFFCURVE",
"396 85 OFFCURVE",
"444 37 CURVE",
"468 62 OFFCURVE",
"492 87 OFFCURVE",
"517 112 CURVE",
"373 255 LINE",
"517 399 LINE",
"493 424 OFFCURVE",
"469 449 OFFCURVE",
"444 474 CURVE",
"300 330 LINE"
);
}
);
width = 600;
}
);
unicode = 00D7;
},
{
glyphname = Oslash;
lastChange = "2014-09-05 18:35:58 +0000";
layers = (
{
anchors = (
{
name = top;
position = "{354, 686}";
}
);
background = {
anchors = (
{
name = top;
position = "{354, 686}";
}
);
paths = (
{
closed = 1;
nodes = (
"660 392 LINE SMOOTH",
"660 492 OFFCURVE",
"623 570 OFFCURVE",
"564 622 CURVE",
"644 754 LINE",
"558 754 LINE",
"503 663 LINE",
"458 685 OFFCURVE",
"408 696 OFFCURVE",
"354 696 CURVE SMOOTH",
"187 696 OFFCURVE",
"48 587 OFFCURVE",
"48 392 CURVE SMOOTH",
"48 294 LINE SMOOTH",
"48 194 OFFCURVE",
"84 117 OFFCURVE",
"142 66 CURVE",
"63 -65 LINE",
"149 -65 LINE",
"203 24 LINE",
"248 1 OFFCURVE",
"299 -10 OFFCURVE",
"354 -10 CURVE SMOOTH",
"521 -10 OFFCURVE",
"660 99 OFFCURVE",
"660 294 CURVE SMOOTH"
);
},
{
closed = 1;
nodes = (
"498 272 LINE SMOOTH",
"498 167 OFFCURVE",
"436 113 OFFCURVE",
"354 113 CURVE SMOOTH",
"322 113 OFFCURVE",
"294 121 OFFCURVE",
"271 136 CURVE",
"484 490 LINE",
"493 468 OFFCURVE",
"498 443 OFFCURVE",
"498 414 CURVE SMOOTH"
);
},
{
closed = 1;
nodes = (
"210 414 LINE SMOOTH",
"210 519 OFFCURVE",
"272 573 OFFCURVE",
"354 573 CURVE SMOOTH",
"384 573 OFFCURVE",
"412 565 OFFCURVE",
"435 550 CURVE",
"222 199 LINE",
"214 219 OFFCURVE",
"210 244 OFFCURVE",
"210 272 CURVE SMOOTH"
);
}
);
};
layerId = "D9505699-D8FA-43B1-90A1-014B81D3291F";
paths = (
{
closed = 1;
nodes = (
"660 392 LINE SMOOTH",
"660 492 OFFCURVE",
"623 570 OFFCURVE",
"564 622 CURVE",
"644 754 LINE",
"558 754 LINE",
"503 663 LINE",
"458 685 OFFCURVE",
"408 696 OFFCURVE",
"354 696 CURVE SMOOTH",
"187 696 OFFCURVE",
"48 587 OFFCURVE",
"48 392 CURVE SMOOTH",
"48 294 LINE SMOOTH",
"48 194 OFFCURVE",
"84 117 OFFCURVE",
"142 66 CURVE",
"63 -65 LINE",
"149 -65 LINE",
"203 24 LINE",
"248 1 OFFCURVE",
"299 -10 OFFCURVE",
"354 -10 CURVE SMOOTH",
"521 -10 OFFCURVE",
"660 99 OFFCURVE",
"660 294 CURVE SMOOTH"
);
},
{
closed = 1;
nodes = (
"498 272 LINE SMOOTH",
"498 167 OFFCURVE",
"436 113 OFFCURVE",
"354 113 CURVE SMOOTH",
"322 113 OFFCURVE",
"294 121 OFFCURVE",
"271 136 CURVE",
"484 490 LINE",
"493 468 OFFCURVE",
"498 443 OFFCURVE",
"498 414 CURVE SMOOTH"
);
},
{
closed = 1;
nodes = (
"210 414 LINE SMOOTH",
"210 519 OFFCURVE",
"272 573 OFFCURVE",
"354 573 CURVE SMOOTH",
"384 573 OFFCURVE",
"412 565 OFFCURVE",
"435 550 CURVE",
"222 199 LINE",
"214 219 OFFCURVE",
"210 244 OFFCURVE",
"210 272 CURVE SMOOTH"
);
}
);
width = 708;
}
);
unicode = 00D8;
},
{
glyphname = Ugrave;
lastChange = "2014-09-05 18:35:58 +0000";
layers = (
{
background = {
paths = (
{
closed = 1;
nodes = (
"609 686 LINE",
"455 686 LINE",
"455 221 LINE SMOOTH",
"455 157 OFFCURVE",
"408 112 OFFCURVE",
"337 112 CURVE SMOOTH",
"267 112 OFFCURVE",
"218 158 OFFCURVE",
"218 221 CURVE SMOOTH",
"218 686 LINE",
"64 686 LINE",
"64 218 LINE SMOOTH",
"64 80 OFFCURVE",
"166 -10 OFFCURVE",
"322 -10 CURVE SMOOTH",
"350 -10 LINE SMOOTH",
"506 -10 OFFCURVE",
"609 80 OFFCURVE",
"609 218 CURVE SMOOTH"
);
},
{
closed = 1;
nodes = (
"392 750 LINE",
"299 895 LINE",
"171 895 LINE",
"170 892 LINE",
"290 750 LINE"
);
}
);
};
layerId = "D9505699-D8FA-43B1-90A1-014B81D3291F";
paths = (
{
closed = 1;
nodes = (
"609 686 LINE",
"455 686 LINE",
"455 221 LINE SMOOTH",
"455 157 OFFCURVE",
"408 112 OFFCURVE",
"337 112 CURVE SMOOTH",
"267 112 OFFCURVE",
"218 158 OFFCURVE",
"218 221 CURVE SMOOTH",
"218 686 LINE",
"64 686 LINE",
"64 218 LINE SMOOTH",
"64 80 OFFCURVE",
"166 -10 OFFCURVE",
"322 -10 CURVE SMOOTH",
"350 -10 LINE SMOOTH",
"506 -10 OFFCURVE",
"609 80 OFFCURVE",
"609 218 CURVE SMOOTH"
);
},
{
closed = 1;
nodes = (
"392 750 LINE",
"299 895 LINE",
"171 895 LINE",
"170 892 LINE",
"290 750 LINE"
);
}
);
width = 673;
}
);
unicode = 00D9;
},
